<?xml version="1.0" encoding="utf-8"?>
<!-- Generator: Adobe Illustrator 17.0.0, SVG Export Plug-In . SVG Version: 6.00 Build 0)  -->
<!DOCTYPE svg PUBLIC "-//W3C//DTD SVG 1.1//EN" "http://www.w3.org/Graphics/SVG/1.1/DTD/svg11.dtd">
<svg version="1.1" id="Layer_1" xmlns="http://www.w3.org/2000/svg" xmlns:xlink="http://www.w3.org/1999/xlink" x="0px" y="0px"
	 width="612px" height="792px" viewBox="0 0 612 792" enable-background="new 0 0 612 792" xml:space="preserve">
<path fill="#FFFFFF" d="M579.733,565.94c0,1.076,0,2.151-1.076,4.302L404.415,387.395l175.318-168.865
	c0,2.151,1.076,4.302,1.076,5.378L579.733,565.94L579.733,565.94z M546.39,599.283H64.534c-7.529,0-12.907-2.151-18.285-5.378
	l182.847-186.074l44.098,41.947l1.076,1.076c9.68,7.529,20.436,9.68,32.267,9.68s22.587-4.302,32.267-10.756l44.098-41.947
	l179.62,187.149C556.07,598.207,551.768,599.283,546.39,599.283L546.39,599.283z M31.192,224.984c0-1.076,0-4.302,1.076-5.378
	L206.51,386.32L31.192,563.789V224.984z M64.534,191.641h482.931c4.302,0,8.605,1.076,12.907,2.151L318.369,426.116
	c-7.529,5.378-18.285,5.378-24.738,0L51.627,193.793C55.93,192.717,59.156,191.641,64.534,191.641L64.534,191.641z M546.39,160.45
	H64.534C29.04,160.45,0,189.49,0,224.984v342.032c0,8.605,1.076,16.134,4.302,24.738l2.151,5.378
	c10.756,20.436,32.267,34.418,57.005,34.418H546.39c35.494,0,64.534-29.04,64.534-64.534V224.984
	C610.924,189.49,581.884,160.45,546.39,160.45L546.39,160.45z"/>
</svg>
