<?xml version="1.0" encoding="utf-8"?>
<!-- Generator: Adobe Illustrator 17.0.0, SVG Export Plug-In . SVG Version: 6.00 Build 0)  -->
<!DOCTYPE svg PUBLIC "-//W3C//DTD SVG 1.1//EN" "http://www.w3.org/Graphics/SVG/1.1/DTD/svg11.dtd">
<svg version="1.1" id="Layer_1" xmlns="http://www.w3.org/2000/svg" xmlns:xlink="http://www.w3.org/1999/xlink" x="0px" y="0px"
	 width="612px" height="512.535px" viewBox="0 139.732 612 512.535" enable-background="new 0 139.732 612 512.535"
	 xml:space="preserve">
<path fill="#FFFFFF" d="M300.734,170.157c-133.4,0-241.055,94.784-241.055,210.631c0,44.467,16.382,86.593,44.467,120.528
	c2.34,2.34,3.511,4.681,3.511,8.191l10.532,105.316l97.124-35.105c3.51-1.17,5.851-1.17,9.361,0
	c24.574,8.191,50.317,11.702,77.231,11.702c133.4,0,241.055-94.784,241.055-210.631C541.79,264.941,434.134,170.157,300.734,170.157
	L300.734,170.157z M105.315,652.268c-8.191,0-15.212-7.021-15.212-15.212L78.402,516.528l0,0
	c-30.424-38.616-47.977-86.593-47.977-135.74c0-132.229,120.528-241.055,270.31-241.055s271.48,107.656,271.48,241.055
	s-120.528,241.055-271.48,241.055c-26.914,0-53.828-3.51-80.742-10.532l-109.996,39.786
	C108.826,652.268,107.656,652.268,105.315,652.268L105.315,652.268z"/>
<path fill="#FFFFFF" d="M315.946,441.637c-5.851,0-11.702-3.51-14.042-9.361l-24.574-70.21l-105.315,52.658
	c-3.511,2.34-8.191,2.34-11.702,1.17c-3.511-1.17-7.021-3.51-9.361-8.191c-2.34-3.511-2.34-8.191-1.17-11.702
	c1.17-3.511,4.681-7.021,8.191-8.191l120.528-59.679l0,0c3.511-2.34,9.361-2.34,12.872-1.17c4.681,2.34,7.021,5.851,9.361,9.361
	l24.574,70.21l105.315-49.147c7.021-3.51,16.382,0,19.893,7.021c3.51,7.021,0,16.382-7.021,19.893l-120.528,56.168
	C320.627,441.637,318.287,441.637,315.946,441.637L315.946,441.637z"/>
</svg>
