<?xml version="1.0" encoding="utf-8"?>
<!-- Generator: Adobe Illustrator 17.0.0, SVG Export Plug-In . SVG Version: 6.00 Build 0)  -->
<!DOCTYPE svg PUBLIC "-//W3C//DTD SVG 1.1//EN" "http://www.w3.org/Graphics/SVG/1.1/DTD/svg11.dtd">
<svg version="1.1" id="Layer_1" xmlns="http://www.w3.org/2000/svg" xmlns:xlink="http://www.w3.org/1999/xlink" x="0px" y="0px"
	 width="612px" height="792px" viewBox="0 0 612 792" enable-background="new 0 0 612 792" xml:space="preserve">
<g>
	<path fill="#FFFFFF" stroke="#000000" stroke-miterlimit="10" d="M344.945,693.655H216.982V426.6h-70.936V304.2h70.936v-68.155
		c0-62.591,38.945-136.309,150.218-136.309c38.945,0,68.155,4.173,69.545,4.173h12.518l-2.782,114.055h-12.518c0,0-29.209,0-61.2,0
		c-23.645,0-26.427,5.564-26.427,29.209V304.2h104.318l-5.564,122.4h-98.755L344.945,693.655L344.945,693.655L344.945,693.655z
		 M243.409,667.227h75.109V400.173h100.145l2.782-69.545H318.518v-83.455c0-27.818,6.955-55.636,52.855-55.636
		c19.473,0,36.164,0,48.682,0l1.391-63.982c-11.127-1.391-30.6-2.782-54.245-2.782c-91.8,0-123.791,57.027-123.791,109.882v94.582
		h-70.936v69.545h70.936V667.227L243.409,667.227L243.409,667.227z"/>
</g>
</svg>
