<?xml version="1.0" encoding="utf-8"?>
<!-- Generator: Adobe Illustrator 17.0.0, SVG Export Plug-In . SVG Version: 6.00 Build 0)  -->
<!DOCTYPE svg PUBLIC "-//W3C//DTD SVG 1.1//EN" "http://www.w3.org/Graphics/SVG/1.1/DTD/svg11.dtd">
<svg version="1.1" id="Layer_1" xmlns="http://www.w3.org/2000/svg" xmlns:xlink="http://www.w3.org/1999/xlink" x="0px" y="0px"
	 width="612px" height="612px" viewBox="0 90 612 612" enable-background="new 0 90 612 612" xml:space="preserve">
<path fill="#FFFFFF" d="M306,300.027c52.855,0,95.973,43.118,95.973,95.973S358.855,491.973,306,491.973
	S210.027,448.855,210.027,396S253.145,300.027,306,300.027z M306,247.173c-82.064,0-148.827,66.764-148.827,148.827
	S223.936,544.827,306,544.827S454.827,478.064,454.827,396S388.064,247.173,306,247.173z M481.255,195.709
	c-19.473,0-34.773,15.3-34.773,34.773s15.3,34.773,34.773,34.773s34.773-15.3,34.773-34.773S499.336,195.709,481.255,195.709z
	 M148.827,142.855h314.345c54.245,0,95.973,41.727,95.973,95.973v314.345c0,54.245-41.727,95.973-95.973,95.973H148.827
	c-54.245,0-95.973-41.727-95.973-95.973V238.827C52.855,184.582,94.582,142.855,148.827,142.855z M148.827,90
	C66.764,90,0,156.764,0,238.827v314.345C0,635.236,66.764,702,148.827,702h314.345C545.236,702,612,635.236,612,553.173V238.827
	C612,156.764,545.236,90,463.173,90H148.827z"/>
</svg>
