<svg id="Layer_1" data-name="Layer 1" xmlns="http://www.w3.org/2000/svg" viewBox="0 0 181.54 101.41"><defs><style>.cls-1,.cls-2,.cls-3,.cls-4{fill:none;stroke-linecap:round;stroke-linejoin:round;}.cls-1{stroke:#eb008b;stroke-width:3.51px;}.cls-2{stroke:#ef67a5;stroke-width:2.63px;}.cls-3{stroke:#f5accc;stroke-width:1.46px;}.cls-4{stroke:#fff;stroke-width:0.58px;}</style></defs><title>ds-logo-neon</title><g id="_Group_" data-name="&lt;Group&gt;"><g id="_Group_2" data-name="&lt;Group&gt;"><path id="_Compound_Path_" data-name="&lt;Compound Path&gt;" class="cls-1" d="M89,71.74a15.12,15.12,0,0,0,3.87-5.25,13.15,13.15,0,0,0,.92-3,8.74,8.74,0,0,0,.09-2.93,4.69,4.69,0,0,0-1-2.32,3.51,3.51,0,0,0-2.39-1.16.9.9,0,0,0-.31,0,1,1,0,0,1-.4-.07,7,7,0,0,0-2.32.14,18.64,18.64,0,0,0-2.94.82A23.8,23.8,0,0,0,82.25,59q-1.14.59-2.19,1.27a19.66,19.66,0,0,0-1.85,1.38q-.9.76-1.74,1.55A21.26,21.26,0,0,0,74,66.29a22,22,0,0,0-1.86,3.34A16.55,16.55,0,0,0,71,73.08a10.91,10.91,0,0,0-.19,3.32q.13,1.25.24,2.5t.29,2.49q.37,2.2.79,4.42A12.18,12.18,0,0,1,72,90.51a15,15,0,0,1-1.13,3.4,16.42,16.42,0,0,1-1.71,2.93A27.92,27.92,0,0,1,67,99.53,20.18,20.18,0,0,1,65.51,101q-.79.7-1.59,1.3a14.6,14.6,0,0,1-3.1,1.7,13.11,13.11,0,0,1-3.21.85,10.78,10.78,0,0,1-3.06,0,6.09,6.09,0,0,1-2.57-1,13,13,0,0,1-1.74-1.39A4.9,4.9,0,0,1,49,100.57a6.64,6.64,0,0,1-.42-1.64c.67-.12,1.32-.25,1.95-.39A35.9,35.9,0,0,0,57.73,96h0a20.85,20.85,0,0,0,5.6-3.41,12.16,12.16,0,0,0,1.36-1.13c.44-.43.85-.88,1.26-1.35l.19-.22a14.93,14.93,0,0,0,2.07-3.5,11.56,11.56,0,0,0,1-3.73,5,5,0,0,0-.68-3.06A3.71,3.71,0,0,0,65.68,78a6.73,6.73,0,0,0-2,0,11.59,11.59,0,0,0-2,.51,29.19,29.19,0,0,0-6.35,3.19,28.85,28.85,0,0,0-4.58,3.85,30,30,0,0,0-3.86,4.85,24.32,24.32,0,0,0-2.54,5.21c-.14.4-.25.8-.35,1.2l-2.21-.09a31.43,31.43,0,0,1-9.4-1.94,29.22,29.22,0,0,1-9-5.38,26.26,26.26,0,0,1-6.6-8.94,25.47,25.47,0,0,1-2.2-11.4,27.32,27.32,0,0,1,.85-5.93,28,28,0,0,1,2.13-5.64,31.86,31.86,0,0,1,7.26-9.37,34.63,34.63,0,0,1,9.42-6,34.28,34.28,0,0,1,9.59-2.52c1.23-.13,2.43-.2,3.57-.21,0,0,0,.05,0,.08a17.24,17.24,0,0,0,.22,2.4,5.59,5.59,0,0,0,1.67,3.23,5.28,5.28,0,0,0,3.43,1.4,8.58,8.58,0,0,0,3.76-.66c.58-.23,1.15-.49,1.71-.75,1.72-.89,3-1.83,3.41-2.89a2,2,0,0,0,.15-.74h0a1.56,1.56,0,0,0-.28-.88h0a2.94,2.94,0,0,0-1-.9,5.78,5.78,0,0,0-.67-.32l-.62-.24a33.13,33.13,0,0,0-5.52-1.61c0-.25,0-.49.08-.75a12.61,12.61,0,0,1,.76-2.75,18.94,18.94,0,0,1,1.13-2.39,32.22,32.22,0,0,1,4.83-6.54,27.77,27.77,0,0,1,6.41-5.12q.87-.53,1.75-1l1.85-1q1-.5,2.08-.91t2.16-.78a30.43,30.43,0,0,1,7.23-1.29,13.84,13.84,0,0,1,6.64,1.21,6.49,6.49,0,0,1,3.31,3.34A13.44,13.44,0,0,1,93,24.55a24.1,24.1,0,0,1-.8,7.28,42.33,42.33,0,0,1-2.62,7.26l-.93,1.87q-.45.91-.93,1.82a46.36,46.36,0,0,1-4.27,6.5A39.54,39.54,0,0,1,78,54.91a12.44,12.44,0,0,1-2.75,1.83,16.15,16.15,0,0,1-6.13,1.61,17.2,17.2,0,0,1-3-.07q-.8-.14-1.66-.23a8.8,8.8,0,0,1-1.65-.33,4,4,0,0,1-.86-.23.73.73,0,0,1-.54-.55.93.93,0,0,1,.34-.8l.71-.66a44.05,44.05,0,0,0,4.36-4.73,54.81,54.81,0,0,0,3.69-5.22q.74-1.18,1.44-2.38t1.44-2.43q1.21-2,2.4-4.11t2.48-4.12q1.29-2.05,2.68-4a42.28,42.28,0,0,1,3-3.78q.92-1.06,1.86-2a6.54,6.54,0,0,1,2.24-1.5l.8-.33a4.08,4.08,0,0,0,.89-.49,1.42,1.42,0,0,0,.52-.63.67.67,0,0,0-.26-.73A1.51,1.51,0,0,0,89,18.7a6.12,6.12,0,0,0-1.47.27q-.77.23-1.52.54T84.87,20a23.31,23.31,0,0,0-5.62,3.43,42.5,42.5,0,0,0-3.68,3.46q-1.69,1.8-3.28,3.79a37.18,37.18,0,0,0-2.75,3.78Q68.31,36.38,67,38.34q-1.47,2.22-3,4.39t-2.82,4.43q-1,1.69-2.09,3.39a27.23,27.23,0,0,1-2.36,3.23,7.27,7.27,0,0,1-1.92,1.7,3.13,3.13,0,0,1-2.25.17,7.16,7.16,0,0,0-1.42-.16H49.7q-1.29-.08-2.59,0t-2.65.15a25.52,25.52,0,0,0-2.66.48,13.11,13.11,0,0,0-2.89,1,8.19,8.19,0,0,0-2.38,1.76,3.9,3.9,0,0,0-1.05,2.6,2.51,2.51,0,0,0,.28,1.25,2.31,2.31,0,0,0,.8.9,5.63,5.63,0,0,0,2.51,1,13.81,13.81,0,0,0,2.89.13l.19,0q1.69-.11,3.44-.36a19.76,19.76,0,0,0,3.49-.84,15.11,15.11,0,0,0,2.62-1.26,8,8,0,0,1,2.65-1,6.18,6.18,0,0,1,2.73.08,16.56,16.56,0,0,0,2.64.47,39.42,39.42,0,0,0,4.66.13,29.43,29.43,0,0,0,4.83-.55,37.58,37.58,0,0,0,11.1-4.22,38.64,38.64,0,0,0,9.62-7.71q.44-.53.89-1a8.82,8.82,0,0,0,.85-1.05q1.38-1.83,2.55-3.66a32.9,32.9,0,0,0,2.08-3.79,28.9,28.9,0,0,0,2.44-7.33,30.06,30.06,0,0,0,.47-7.28,17.82,17.82,0,0,0-.68-4,10.73,10.73,0,0,0-1.74-3.45,14.7,14.7,0,0,0-1.31-1.51,10,10,0,0,0-1.57-1.29,11.74,11.74,0,0,0-3.33-1.46,20.75,20.75,0,0,0-3.75-.6q-2.37-.24-4.74-.29a21.11,21.11,0,0,0-4.87.49,50.13,50.13,0,0,0-6.71,2.08A52,52,0,0,0,64,18.35a31.53,31.53,0,0,0-4.89,3.32,42.69,42.69,0,0,0-4.3,4.1,54.11,54.11,0,0,0-4.25,5.36A19.13,19.13,0,0,0,47.75,37c-.51,0-1,0-1.57,0L45,37l-1.22.09a37,37,0,0,0-10.44,2.49A36.16,36.16,0,0,0,22.9,45.93a34.56,34.56,0,0,0-8.16,10.34,31.49,31.49,0,0,0-2.41,6.32,30.41,30.41,0,0,0-1,6.66,28.27,28.27,0,0,0,10,22.61,30.69,30.69,0,0,0,10,5.7,34.13,34.13,0,0,0,10.3,1.86c.42,0,.79,0,1.19,0h.9a10,10,0,0,0,0,1.27,8.26,8.26,0,0,0,1.44,4,6.82,6.82,0,0,0,3.47,2.37,10.35,10.35,0,0,0,1.8.41,17.71,17.71,0,0,0,1.95.16,14.77,14.77,0,0,0,2-.09,21.78,21.78,0,0,0,4.38-.89,32.86,32.86,0,0,0,4.62-1.8,33.52,33.52,0,0,0,4.4-2.53,25.08,25.08,0,0,0,3.81-3.16,40.92,40.92,0,0,0,3.44-4.08,18.54,18.54,0,0,0,2.51-4.49A16.51,16.51,0,0,0,78.76,85a35.08,35.08,0,0,0-.28-5.34,19.49,19.49,0,0,0-.34-2q-.22-1-.4-2-.32-1.74-.53-3.54a10.52,10.52,0,0,1,.3-3.82,12.1,12.1,0,0,1,1-2.56A16,16,0,0,1,80,63.25a11,11,0,0,1,1.71-1.73,10.06,10.06,0,0,1,2.08-1.33A6.8,6.8,0,0,1,86,59.55a4.2,4.2,0,0,1,2,.24,2.44,2.44,0,0,1,1.21,1,4.08,4.08,0,0,1,.52,1.6,7.61,7.61,0,0,1,0,1.87,10.75,10.75,0,0,1-.4,1.84,12.77,12.77,0,0,1-2.2,4.17A8.55,8.55,0,0,1,85.33,72a5,5,0,0,1-2.18.87,4,4,0,0,0-.78.16q-.34.11-.4.68t.18.66a1.39,1.39,0,0,0,.68.2,3.33,3.33,0,0,0,.88-.08,5.92,5.92,0,0,0,.84-.23,10.14,10.14,0,0,0,2.32-1A11.9,11.9,0,0,0,89,71.74ZM48.81,60a9.46,9.46,0,0,1-1.53.71q-.87.32-1.68.53t-1,.23a6,6,0,0,1-1.07.13q-.77,0-1.64.05a2.22,2.22,0,0,1-1.44-.45A1.13,1.13,0,0,1,40.13,60a1.93,1.93,0,0,1,.89-1.2,3.74,3.74,0,0,1,2-.62,10.37,10.37,0,0,1,2,.1l.85.18,1.41.31,1.46.3a1.38,1.38,0,0,0,.38.05q.29,0,.32.15Q49.47,59.65,48.81,60ZM58.3,41.21l.61.21.4.17-.31.09a7.5,7.5,0,0,1-2.13.23A3.65,3.65,0,0,1,55,41.3a2.68,2.68,0,0,1-1-1.25A31.11,31.11,0,0,1,58.3,41.21Zm-9.81,55.3a15.8,15.8,0,0,1,1.6-5.23,27.58,27.58,0,0,1,3.15-5,16.24,16.24,0,0,1,2.4-2.39A13.86,13.86,0,0,1,58.49,82a8.56,8.56,0,0,1,3-.82,4.48,4.48,0,0,1,2.68.59,2.46,2.46,0,0,1,1.14,1.63,5.82,5.82,0,0,1,0,2.34,11.17,11.17,0,0,1-.8,2.51,11.57,11.57,0,0,1-4.67,4.83c-1.12.57-2.53,1.27-3.42,1.63a34.62,34.62,0,0,1-6.28,1.81c-.53.1-1.08.17-1.64.23C48.48,96.69,48.48,96.6,48.49,96.51Z" transform="translate(-9.58 -8.01)"/><path id="_Compound_Path_2" data-name="&lt;Compound Path&gt;" class="cls-1" d="M110.21,67.25a4.28,4.28,0,0,0-.45-3.18,2.78,2.78,0,0,0-1.67-1.33,7.16,7.16,0,0,0-2.63-.08,11.5,11.5,0,0,0-2.43.66,19.38,19.38,0,0,0-2.39,1.13,25.71,25.71,0,0,0-2.3,1.45q-1.12.79-2.13,1.62-1.64,1.33-3.31,2.89a30,30,0,0,0-5.05,6.32,16.63,16.63,0,0,0-1.55,3.4,19.93,19.93,0,0,0-.61,1.94A10.15,10.15,0,0,0,85.37,84a3.12,3.12,0,0,0,.95,2.6,4.52,4.52,0,0,0,2.5,1.18,4,4,0,0,0,1.17.08,10.16,10.16,0,0,0,1.2-.16,17.94,17.94,0,0,0,4.48-1.79,37,37,0,0,0,4.2-2.71,27.09,27.09,0,0,0,5.56-5.71,29.15,29.15,0,0,0,3.71-6.78A24.37,24.37,0,0,0,110.21,67.25Zm-4.85,1.65-1,2q-.79,1.47-1.66,2.94t-1.84,2.87q-.4.57-.78,1.13T99.3,79a38.21,38.21,0,0,1-2.75,3.26,12.57,12.57,0,0,1-3.39,2.57q-.61.31-1.11.51a3.36,3.36,0,0,1-1.12.13A1.12,1.12,0,0,1,90,85a2,2,0,0,1-.11-1.74,12.79,12.79,0,0,1,.72-1.84q.75-1.51,1.6-3T94,75.51q1.1-1.64,2.34-3.26A38.94,38.94,0,0,1,99,69.15a18.9,18.9,0,0,1,1.41-1.42Q101.2,67,102,66.3a14.81,14.81,0,0,1,1.53-1.22,2.32,2.32,0,0,1,1.74-.48,1,1,0,0,1,.79.88,3.65,3.65,0,0,1,0,1.35A9.11,9.11,0,0,1,105.36,68.9Z" transform="translate(-9.58 -8.01)"/><path id="_Compound_Path_3" data-name="&lt;Compound Path&gt;" class="cls-1" d="M189.14,48.49v-.11l0-.23a29.78,29.78,0,0,0-.07-7.18A28.69,28.69,0,0,0,184,28a30.8,30.8,0,0,0-10.32-9,32.89,32.89,0,0,0-6.42-2.61c-.56-.16-1.12-.32-1.69-.44s-1.14-.26-1.72-.35l-.86-.15-.89-.11-.89-.11-.84-.06a35.27,35.27,0,0,0-7.08.15,36.84,36.84,0,0,0-6.58,1.42c.45-.68.89-1.35,1.35-2a13,13,0,0,0,1.26-2.24q.24-.5.52-1.13a1.33,1.33,0,0,0,.08-1.08.92.92,0,0,0-1.05-.52,11.24,11.24,0,0,0-1.32.28,4.08,4.08,0,0,1-1.07.18q-.58,0-1.16.09a6.88,6.88,0,0,0-1.13.23,2.77,2.77,0,0,0-1,.49,3,3,0,0,0-.63.81,10.85,10.85,0,0,0-.48,1q-.22.53-.42,1t-.38.93q-.54,1.06-1.14,2.09l-.94,1.56-10.67,2.43-4.46,1-4.45,1-1.11.23-1.08.19c-.73.11-1.45.21-2.17.26-.41,0-.81,0-1.2,0,.12-.1.24-.19.35-.3a5.39,5.39,0,0,0,.94-1.21,5.86,5.86,0,0,0,.57-1.35,3.24,3.24,0,0,0,.11-1.3,1.55,1.55,0,0,0-1.93-1.29,3.52,3.52,0,0,0-1.91.85,6.9,6.9,0,0,0-1.34,1.4A5.14,5.14,0,0,0,110,22a2.1,2.1,0,0,0,.07,1.49,1.74,1.74,0,0,0,.33.45l-.07,0c0,.09.08.15.15.25a2.71,2.71,0,0,0,.36.4l.33.24.34.17a5.28,5.28,0,0,0,1.29.36,12.62,12.62,0,0,0,2.43.11c.79,0,1.57-.1,2.35-.2l1.17-.17,1.13-.2,4.51-.87,4.49-.89c2.76-.56,5.52-1.11,8.27-1.68l-5.09,6.85q-2.64,3.41-5.09,7t-4.5,7q-.75,1-1.49,2A35.62,35.62,0,0,1,117.9,48l-.83.84a7.57,7.57,0,0,1-1,.83,5.64,5.64,0,0,1-1,.6,1.86,1.86,0,0,1-1,.15q-.52-.08-.48-.7a5.45,5.45,0,0,1,.31-1.42,12.74,12.74,0,0,1,.63-1.53,10.94,10.94,0,0,1,.53-1q.47-.91,1-1.83t1.17-1.85q2-3.09,4.41-6.18l1.2-1.45q.6-.71,1.25-1.46.44-.53,1.08-1.2a2.63,2.63,0,0,0,.76-1.35q.12-.68-.35-.81a1.58,1.58,0,0,0-1,.07,24.92,24.92,0,0,1-3.71,1.16,4.61,4.61,0,0,1-3.4-.5,1,1,0,0,0-1.22,0,4.41,4.41,0,0,0-1,1.11q-1,1.45-1.78,2.95a32.69,32.69,0,0,1-1.83,3q-.8,1.14-1.56,2.25c-.11,0-2.91,4.08-3.39,4.68s-1.13,1.46-1.69,2.22-1,1.34-1.52,2l-.62.69-1,1.09q-.26.3-.54.58c-.35.34-.71.66-1.08,1a7.78,7.78,0,0,1-.77.54,2.66,2.66,0,0,1-1.26.41c-.39,0-.63-.05-.71-.3a1.61,1.61,0,0,1,.05-1,6.76,6.76,0,0,1,.59-1.35q.41-.74.84-1.43t.8-1.24q.37-.54.48-.75,1.54-2.42,3.11-4.75t3.2-4.66q.34-.51.84-1.17t.92-1.3a8.06,8.06,0,0,0,.71-1.32,3.58,3.58,0,0,0,.3-1.3.74.74,0,0,0-.27-.66,1.3,1.3,0,0,0-.65-.21,3.46,3.46,0,0,0-.82.05q-.44.08-.78.16l-1.79.36a3.23,3.23,0,0,0-1.69.82,1.49,1.49,0,0,0-.38.64c-.07.25-.14.48-.19.71A5.34,5.34,0,0,1,102,36q-.59.9-1.21,1.79-1.48,2.27-3,4.43t-2.94,4.46q-.81,1.33-1.55,2.75a12.07,12.07,0,0,0-1.08,2.89A7.37,7.37,0,0,0,92.12,54a3.3,3.3,0,0,0,.43,1.49,2.25,2.25,0,0,0,1.34,1A3.57,3.57,0,0,0,96,56.23l.09,0a.68.68,0,0,0,.67.09,4.52,4.52,0,0,0,1.47-.79q.83-.62,1.78-1.5t1.78-1.73q.83-.86,1.43-1.55t.81-.91q.76-.85,1.47-1.7t1.37-1.73q1.21-1.57,2.31-3.15T111.37,40l1-1.55q.51-.77,1-1.5a8.53,8.53,0,0,1,.8-1,1.36,1.36,0,0,1,1.07-.41,2.64,2.64,0,0,1,.89.23,1.65,1.65,0,0,0,.9.13,2.72,2.72,0,0,0,.42-.1,3.11,3.11,0,0,1,.49-.11.6.6,0,0,1,.33,0c.08,0,.06.16-.06.36a2.75,2.75,0,0,1-.83.91,10.47,10.47,0,0,0-1,.83q-1.87,1.89-3.76,4a23.84,23.84,0,0,0-3.17,4.37q-.46.77-.88,1.63t-.75,1.71a8.27,8.27,0,0,0-.46,1.69,4.93,4.93,0,0,0,0,1.69A1.94,1.94,0,0,0,108,54a2.38,2.38,0,0,0,1,.57,3.63,3.63,0,0,0,1.26.14,7,7,0,0,0,1.39-.21,10.25,10.25,0,0,0,3.68-2,30.43,30.43,0,0,0,3.06-3q.65-.74,1.31-1.56l.53-.68q-.1.35-.18.7a7.29,7.29,0,0,0-.12,2.65,2.79,2.79,0,0,0,1.27,2,3.07,3.07,0,0,0,1.29.56,5.18,5.18,0,0,0,3.3-.35,14.2,14.2,0,0,0,3.22-2A26.57,26.57,0,0,0,131.89,48l.87-.94c-.05.19-.1.38-.13.57a8.9,8.9,0,0,0-.13,1.3,4.47,4.47,0,0,0,.14,1.27,2.4,2.4,0,0,0,.54,1,1.75,1.75,0,0,0,1,.54,5.89,5.89,0,0,0,2.65-.15,10,10,0,0,0,2.6-1.09,13.32,13.32,0,0,0,3.38-3.07s-1.93,3.2-2.71,4.39-7.87,12-9,13.61q-.93,1.32-1.84,2.67a1.75,1.75,0,0,0-.51.63c-.1.21-.22.42-.33.62l-.65,1c-.42.55-.86,1.09-1.33,1.61l-1.95,2.1q-.49.53-1,1t-1,1l-.89.86-.89.86-1.15,1q-.56.49-1.14.94a12.88,12.88,0,0,1-1.81,1.13,11.4,11.4,0,0,1-2.32,1,3.76,3.76,0,0,1-2,.09q-.86-.23-.86-1.52a5.22,5.22,0,0,1,.58-2.53q.63-1.26,1.34-2.43,1.59-2.51,3.31-5a47.1,47.1,0,0,1,3.76-4.68q.39-.42,1.08-1.24A12.11,12.11,0,0,1,123,63.13a5.3,5.3,0,0,1,1.57-.94,1,1,0,0,1,1.28.38,2.28,2.28,0,0,1,.36,1.29,8.29,8.29,0,0,1-.14,1.39,3.56,3.56,0,0,1-.11.53,1.77,1.77,0,0,0-.07.58,1.05,1.05,0,0,0,.11.46q.1.18.44.14a1.38,1.38,0,0,0,1.11-.65q.43-.62.83-1.14.52-.72,1.08-1.43a5.17,5.17,0,0,0,.85-1.54,1.59,1.59,0,0,0,.09-.77,3.43,3.43,0,0,0-.21-.69,1.09,1.09,0,0,0-.5-.49,2.6,2.6,0,0,0-.76-.24,5.17,5.17,0,0,0-.88-.07h-.79a15.48,15.48,0,0,0-4.15,1,18.26,18.26,0,0,0-2.34,1.17,27.66,27.66,0,0,0-4.09,3q-1.92,1.69-3.67,3.5a29.56,29.56,0,0,0-3.13,3.85,34.58,34.58,0,0,0-2.45,4.2,18.12,18.12,0,0,0-1,2.53,11.35,11.35,0,0,0-.41,2.28,5.11,5.11,0,0,0,.28,2.15,2.7,2.7,0,0,0,1.43,1.52,5.21,5.21,0,0,0,2.18.49l1.95-.22a7.71,7.71,0,0,0,1.47-.5q.68-.32,1.4-.68a7,7,0,0,0,1.34-.79l1.27-1q2.12-1.71,4.09-3.62,1.17-1.13,2.31-2.27-.53.77-1.07,1.52-.74,1-1.51,2.07t-1.47,2.11c-.12.17-.25.39-.41.66a3.72,3.72,0,0,0-.35.78,1,1,0,0,0,0,.62q.09.25.62.24a4,4,0,0,0,.67,0l.95-.08.85-.1.44-.05.64-.17a4.3,4.3,0,0,0,.94-.2,2,2,0,0,0,.79-.56,12,12,0,0,0,1.45-1.94q.63-1,1.27-2l1.42-2.08q.72-1.05,1.37-2.08.83-1.33,1.63-2.68a12.43,12.43,0,0,1,1.94-2.48,8.59,8.59,0,0,1,2.89-1.71,5.92,5.92,0,0,1,.72-.22.59.59,0,0,1,.59.12.7.7,0,0,1,.17.41,3.28,3.28,0,0,0,.11.51,2.64,2.64,0,0,1-.1,1.72,9.13,9.13,0,0,1-.92,1.77A17.82,17.82,0,0,1,136,74.4q-.72.84-1.28,1.52a12.94,12.94,0,0,0-1.13,1.7,6.62,6.62,0,0,0-.71,1.81,3.48,3.48,0,0,0,0,1.66A2,2,0,0,0,134,82.31a4.22,4.22,0,0,0,2.23.37,6.89,6.89,0,0,0,2.09-.59,13.19,13.19,0,0,0,2.06-1.18,20,20,0,0,0,1.82-1.42,43.7,43.7,0,0,0,5.45-5.95q.84-1,1.61-2.08l.21-.31,1.3-1.6,2.32-2.85q.61-.73,1.16-1.48t1.16-1.48q.34-.42.66-.76t.66-.76a3.87,3.87,0,0,1,.41-.62,2.39,2.39,0,0,1,.54-.54,31.11,31.11,0,0,1-1.35,4.4q-.86,2.21-1.63,4.34-.57,1.58-1.26,3.18a19.49,19.49,0,0,1-1.26,2.42,19.17,19.17,0,0,0-5.22.23,4,4,0,0,0-1.14.44,3.19,3.19,0,0,0-.49.31A4.69,4.69,0,0,0,144,77.91a2.76,2.76,0,0,0-.35,1.77,1.68,1.68,0,0,0,.36.84,2,2,0,0,0,.66.52,2.69,2.69,0,0,0,.86.26l.95.1h0a8.22,8.22,0,0,0,3.58-.67,14.14,14.14,0,0,0,3.3-2A18.18,18.18,0,0,0,155,77.39c.54,0,1.07,0,1.61,0l1.76-.16a15.82,15.82,0,0,0,1.76-.21l1.75-.32.88-.16.86-.24A27.35,27.35,0,0,0,167,75.21l1.69-.64,1.64-.79c.54-.28,1.11-.5,1.63-.83l1.57-.94.78-.47.75-.54,1.49-1.08c.5-.35.94-.79,1.41-1.18s.94-.79,1.38-1.23a35.11,35.11,0,0,0,4.72-5.69c.34-.52.69-1,1-1.56l.86-1.64a29.5,29.5,0,0,0,1.49-3.38,14.73,14.73,0,0,0,.58-1.78l.52-1.81c.12-.57.21-1.13.32-1.7l.16-.85.08-.42v-.05l0-.11ZM150,78.27a5.59,5.59,0,0,1-1.14.91,3.67,3.67,0,0,1-1,.35c-2.19.32-2.16-1-1.83-1.52a1.79,1.79,0,0,1,.92-.55,16.88,16.88,0,0,1,4-.3A11.35,11.35,0,0,1,150,78.27ZM185.8,48.74l-.15.85c-.1.56-.2,1.14-.31,1.69l-.44,1.52a11.8,11.8,0,0,1-.49,1.52,26,26,0,0,1-1.31,3l-.75,1.47c-.28.48-.59.93-.88,1.4a31.63,31.63,0,0,1-4.16,5.19c-.39.4-.82.76-1.23,1.14s-.81.78-1.25,1.11l-1.33,1-.67.51-.71.45-1.41.9c-.46.32-1,.54-1.46.81l-1.48.78-1.54.65a35.27,35.27,0,0,1-6.37,2,14.42,14.42,0,0,1-1.64.29l-1.41.21a18.85,18.85,0,0,0,1.61-2.5,25.71,25.71,0,0,0,1.77-4.14q.67-2.07,1.3-4.23.39-1.33.76-2.65t.86-2.66a8.73,8.73,0,0,1,.48-1.05l.58-1.06a2.3,2.3,0,0,1,.19-.38q.18-.33.34-.68l.29-.65q.13-.3.08-.29a4.14,4.14,0,0,0-1,.23,6.34,6.34,0,0,1-1,.28c-.43.08-1.38.1-1.78.13a4.22,4.22,0,0,0-1.26.31,3.19,3.19,0,0,0-1.06.67,10.6,10.6,0,0,0-.86,1q-1.06,1.31-2,2.63t-2,2.62l-2.36,3c-.13.16-7,9.15-7.54,9.74a15.71,15.71,0,0,1-1.54,1.62c-.17.16-.44.35-.79.61a7.09,7.09,0,0,1-1.09.67,4.47,4.47,0,0,1-1.05.38.66.66,0,0,1-.74-.25A.76.76,0,0,1,139,78a3,3,0,0,1,.3-.72,8,8,0,0,1,.47-.74q.26-.36.43-.57.68-.88,1.41-1.8a18.36,18.36,0,0,0,1.32-1.88,6.73,6.73,0,0,0,.82-1.95,3.68,3.68,0,0,0-.08-2,3.18,3.18,0,0,0-1.76-2.05,4.67,4.67,0,0,0-2.93-.16,3.51,3.51,0,0,1,.35-.3l.34-.25q.84-.67,1.62-1.35t1.61-1.3a10,10,0,0,1,1.4-.87,2.19,2.19,0,0,1,1.47-.22,3,3,0,0,1,1,.55,1.62,1.62,0,0,0,1.14.34,2.06,2.06,0,0,0,1.44-.62,7.82,7.82,0,0,0,1.13-1.29,8.19,8.19,0,0,0,.7-1.31,3.27,3.27,0,0,0,.29-1.29,1.24,1.24,0,0,0-.39-1,1.81,1.81,0,0,0-1.26-.35,4.73,4.73,0,0,0-1.82.4,10,10,0,0,0-1.77,1q-.86.6-1.69,1.28T143,60.92q-.69.6-1.38,1.15l-1.38,1.11-.79.64-.79.64-.45.38-.45.38q-.43.38-.87.72a8.51,8.51,0,0,0-.88.77,4.88,4.88,0,0,0,1-1.39,10.53,10.53,0,0,1,.84-1.47q.52-.77,1-1.49t1-1.49c1-1.47,14.21-21.7,14.85-22.7l1.93-3,2.21-3.4,1.1-1.6,1.1-1.6a5.48,5.48,0,0,0,.73-1.28,4.91,4.91,0,0,0,.35-1.37q.06-.62-.21-.78a1.28,1.28,0,0,0-.86,0q-.93.21-1.81.31t-1.75.26a3,3,0,0,0-1,.39,1.84,1.84,0,0,0-.67.91,16.23,16.23,0,0,1-1.73,3.63Q153,32.32,151.88,34t-2.44,3.57q-1.26,1.77-2.53,3.49-.78,1-1.54,1.94l-2.24,2.53a10.73,10.73,0,0,1-2.59,2.14,3.42,3.42,0,0,1-1.17.45,1.47,1.47,0,0,1-.9-.08.75.75,0,0,1-.39-.64,2.42,2.42,0,0,1,.31-1.23,10,10,0,0,1,1.08-1.89q.64-.88,1.26-1.77l1.36-2.09q.68-1.06,1.41-2.09,1.36-2.11,2.77-4.16l2.81-4.12q.46-.72.94-1.44a1.94,1.94,0,0,0,.32-1.51q-.13-.65-.65-.68a3.67,3.67,0,0,0-1.16.14,6.18,6.18,0,0,1-1.33.11,4.83,4.83,0,0,0-1.34.16,2.15,2.15,0,0,0-1,.54,3.32,3.32,0,0,0-.61.86,10.51,10.51,0,0,0-.44,1,9,9,0,0,1-.43,1q-1,1.78-2.12,3.46T139,37l-2,2.83-.75.95q-1.13,1.44-2.33,2.87-1,1.21-2,2.41a10.64,10.64,0,0,1-2.39,2,4.29,4.29,0,0,1-1.4.6,1.48,1.48,0,0,1-1-.11,1.19,1.19,0,0,1-.54-.79,2.41,2.41,0,0,1,.19-1.4,9.67,9.67,0,0,1,1-2.11q.63-1,1.35-2,2.83-3.86,5.43-7.73l5.24-7.81L144.35,20l2.44-.51h.05l.08,0a33.86,33.86,0,0,1,6.46-1.32,32.28,32.28,0,0,1,6.51,0l.84.08.78.11.78.11.79.15c.53.09,1,.21,1.56.34s1,.27,1.54.42A30,30,0,0,1,172,21.77,28,28,0,0,1,181.35,30a25.71,25.71,0,0,1,4.54,11.6,26.56,26.56,0,0,1,0,6.39l0,.32Z" transform="translate(-9.58 -8.01)"/></g><g id="_Group_3" data-name="&lt;Group&gt;"><path id="_Compound_Path_4" data-name="&lt;Compound Path&gt;" class="cls-2" d="M89,71.74a15.12,15.12,0,0,0,3.87-5.25,13.15,13.15,0,0,0,.92-3,8.74,8.74,0,0,0,.09-2.93,4.69,4.69,0,0,0-1-2.32,3.51,3.51,0,0,0-2.39-1.16.9.9,0,0,0-.31,0,1,1,0,0,1-.4-.07,7,7,0,0,0-2.32.14,18.64,18.64,0,0,0-2.94.82A23.8,23.8,0,0,0,82.25,59q-1.14.59-2.19,1.27a19.66,19.66,0,0,0-1.85,1.38q-.9.76-1.74,1.55A21.26,21.26,0,0,0,74,66.29a22,22,0,0,0-1.86,3.34A16.55,16.55,0,0,0,71,73.08a10.91,10.91,0,0,0-.19,3.32q.13,1.25.24,2.5t.29,2.49q.37,2.2.79,4.42A12.18,12.18,0,0,1,72,90.51a15,15,0,0,1-1.13,3.4,16.42,16.42,0,0,1-1.71,2.93A27.92,27.92,0,0,1,67,99.53,20.18,20.18,0,0,1,65.51,101q-.79.7-1.59,1.3a14.6,14.6,0,0,1-3.1,1.7,13.11,13.11,0,0,1-3.21.85,10.78,10.78,0,0,1-3.06,0,6.09,6.09,0,0,1-2.57-1,13,13,0,0,1-1.74-1.39A4.9,4.9,0,0,1,49,100.57a6.64,6.64,0,0,1-.42-1.64c.67-.12,1.32-.25,1.95-.39A35.9,35.9,0,0,0,57.73,96h0a20.85,20.85,0,0,0,5.6-3.41,12.16,12.16,0,0,0,1.36-1.13c.44-.43.85-.88,1.26-1.35l.19-.22a14.93,14.93,0,0,0,2.07-3.5,11.56,11.56,0,0,0,1-3.73,5,5,0,0,0-.68-3.06A3.71,3.71,0,0,0,65.68,78a6.73,6.73,0,0,0-2,0,11.59,11.59,0,0,0-2,.51,29.19,29.19,0,0,0-6.35,3.19,28.85,28.85,0,0,0-4.58,3.85,30,30,0,0,0-3.86,4.85,24.32,24.32,0,0,0-2.54,5.21c-.14.4-.25.8-.35,1.2l-2.21-.09a31.43,31.43,0,0,1-9.4-1.94,29.22,29.22,0,0,1-9-5.38,26.26,26.26,0,0,1-6.6-8.94,25.47,25.47,0,0,1-2.2-11.4,27.32,27.32,0,0,1,.85-5.93,28,28,0,0,1,2.13-5.64,31.86,31.86,0,0,1,7.26-9.37,34.63,34.63,0,0,1,9.42-6,34.28,34.28,0,0,1,9.59-2.52c1.23-.13,2.43-.2,3.57-.21,0,0,0,.05,0,.08a17.24,17.24,0,0,0,.22,2.4,5.59,5.59,0,0,0,1.67,3.23,5.28,5.28,0,0,0,3.43,1.4,8.58,8.58,0,0,0,3.76-.66c.58-.23,1.15-.49,1.71-.75,1.72-.89,3-1.83,3.41-2.89a2,2,0,0,0,.15-.74h0a1.56,1.56,0,0,0-.28-.88h0a2.94,2.94,0,0,0-1-.9,5.78,5.78,0,0,0-.67-.32l-.62-.24a33.13,33.13,0,0,0-5.52-1.61c0-.25,0-.49.08-.75a12.61,12.61,0,0,1,.76-2.75,18.94,18.94,0,0,1,1.13-2.39,32.22,32.22,0,0,1,4.83-6.54,27.77,27.77,0,0,1,6.41-5.12q.87-.53,1.75-1l1.85-1q1-.5,2.08-.91t2.16-.78a30.43,30.43,0,0,1,7.23-1.29,13.84,13.84,0,0,1,6.64,1.21,6.49,6.49,0,0,1,3.31,3.34A13.44,13.44,0,0,1,93,24.55a24.1,24.1,0,0,1-.8,7.28,42.33,42.33,0,0,1-2.62,7.26l-.93,1.87q-.45.91-.93,1.82a46.36,46.36,0,0,1-4.27,6.5A39.54,39.54,0,0,1,78,54.91a12.44,12.44,0,0,1-2.75,1.83,16.15,16.15,0,0,1-6.13,1.61,17.2,17.2,0,0,1-3-.07q-.8-.14-1.66-.23a8.8,8.8,0,0,1-1.65-.33,4,4,0,0,1-.86-.23.73.73,0,0,1-.54-.55.93.93,0,0,1,.34-.8l.71-.66a44.05,44.05,0,0,0,4.36-4.73,54.81,54.81,0,0,0,3.69-5.22q.74-1.18,1.44-2.38t1.44-2.43q1.21-2,2.4-4.11t2.48-4.12q1.29-2.05,2.68-4a42.28,42.28,0,0,1,3-3.78q.92-1.06,1.86-2a6.54,6.54,0,0,1,2.24-1.5l.8-.33a4.08,4.08,0,0,0,.89-.49,1.42,1.42,0,0,0,.52-.63.67.67,0,0,0-.26-.73A1.51,1.51,0,0,0,89,18.7a6.12,6.12,0,0,0-1.47.27q-.77.23-1.52.54T84.87,20a23.31,23.31,0,0,0-5.62,3.43,42.5,42.5,0,0,0-3.68,3.46q-1.69,1.8-3.28,3.79a37.18,37.18,0,0,0-2.75,3.78Q68.31,36.38,67,38.34q-1.47,2.22-3,4.39t-2.82,4.43q-1,1.69-2.09,3.39a27.23,27.23,0,0,1-2.36,3.23,7.27,7.27,0,0,1-1.92,1.7,3.13,3.13,0,0,1-2.25.17,7.16,7.16,0,0,0-1.42-.16H49.7q-1.29-.08-2.59,0t-2.65.15a25.52,25.52,0,0,0-2.66.48,13.11,13.11,0,0,0-2.89,1,8.19,8.19,0,0,0-2.38,1.76,3.9,3.9,0,0,0-1.05,2.6,2.51,2.51,0,0,0,.28,1.25,2.31,2.31,0,0,0,.8.9,5.63,5.63,0,0,0,2.51,1,13.81,13.81,0,0,0,2.89.13l.19,0q1.69-.11,3.44-.36a19.76,19.76,0,0,0,3.49-.84,15.11,15.11,0,0,0,2.62-1.26,8,8,0,0,1,2.65-1,6.18,6.18,0,0,1,2.73.08,16.56,16.56,0,0,0,2.64.47,39.42,39.42,0,0,0,4.66.13,29.43,29.43,0,0,0,4.83-.55,37.58,37.58,0,0,0,11.1-4.22,38.64,38.64,0,0,0,9.62-7.71q.44-.53.89-1a8.82,8.82,0,0,0,.85-1.05q1.38-1.83,2.55-3.66a32.9,32.9,0,0,0,2.08-3.79,28.9,28.9,0,0,0,2.44-7.33,30.06,30.06,0,0,0,.47-7.28,17.82,17.82,0,0,0-.68-4,10.73,10.73,0,0,0-1.74-3.45,14.7,14.7,0,0,0-1.31-1.51,10,10,0,0,0-1.57-1.29,11.74,11.74,0,0,0-3.33-1.46,20.75,20.75,0,0,0-3.75-.6q-2.37-.24-4.74-.29a21.11,21.11,0,0,0-4.87.49,50.13,50.13,0,0,0-6.71,2.08A52,52,0,0,0,64,18.35a31.53,31.53,0,0,0-4.89,3.32,42.69,42.69,0,0,0-4.3,4.1,54.11,54.11,0,0,0-4.25,5.36A19.13,19.13,0,0,0,47.75,37c-.51,0-1,0-1.57,0L45,37l-1.22.09a37,37,0,0,0-10.44,2.49A36.16,36.16,0,0,0,22.9,45.93a34.56,34.56,0,0,0-8.16,10.34,31.49,31.49,0,0,0-2.41,6.32,30.41,30.41,0,0,0-1,6.66,28.27,28.27,0,0,0,10,22.61,30.69,30.69,0,0,0,10,5.7,34.13,34.13,0,0,0,10.3,1.86c.42,0,.79,0,1.19,0h.9a10,10,0,0,0,0,1.27,8.26,8.26,0,0,0,1.44,4,6.82,6.82,0,0,0,3.47,2.37,10.35,10.35,0,0,0,1.8.41,17.71,17.71,0,0,0,1.95.16,14.77,14.77,0,0,0,2-.09,21.78,21.78,0,0,0,4.38-.89,32.86,32.86,0,0,0,4.62-1.8,33.52,33.52,0,0,0,4.4-2.53,25.08,25.08,0,0,0,3.81-3.16,40.92,40.92,0,0,0,3.44-4.08,18.54,18.54,0,0,0,2.51-4.49A16.51,16.51,0,0,0,78.76,85a35.08,35.08,0,0,0-.28-5.34,19.49,19.49,0,0,0-.34-2q-.22-1-.4-2-.32-1.74-.53-3.54a10.52,10.52,0,0,1,.3-3.82,12.1,12.1,0,0,1,1-2.56A16,16,0,0,1,80,63.25a11,11,0,0,1,1.71-1.73,10.06,10.06,0,0,1,2.08-1.33A6.8,6.8,0,0,1,86,59.55a4.2,4.2,0,0,1,2,.24,2.44,2.44,0,0,1,1.21,1,4.08,4.08,0,0,1,.52,1.6,7.61,7.61,0,0,1,0,1.87,10.75,10.75,0,0,1-.4,1.84,12.77,12.77,0,0,1-2.2,4.17A8.55,8.55,0,0,1,85.33,72a5,5,0,0,1-2.18.87,4,4,0,0,0-.78.16q-.34.11-.4.68t.18.66a1.39,1.39,0,0,0,.68.2,3.33,3.33,0,0,0,.88-.08,5.92,5.92,0,0,0,.84-.23,10.14,10.14,0,0,0,2.32-1A11.9,11.9,0,0,0,89,71.74ZM48.81,60a9.46,9.46,0,0,1-1.53.71q-.87.32-1.68.53t-1,.23a6,6,0,0,1-1.07.13q-.77,0-1.64.05a2.22,2.22,0,0,1-1.44-.45A1.13,1.13,0,0,1,40.13,60a1.93,1.93,0,0,1,.89-1.2,3.74,3.74,0,0,1,2-.62,10.37,10.37,0,0,1,2,.1l.85.18,1.41.31,1.46.3a1.38,1.38,0,0,0,.38.05q.29,0,.32.15Q49.47,59.65,48.81,60ZM58.3,41.21l.61.21.4.17-.31.09a7.5,7.5,0,0,1-2.13.23A3.65,3.65,0,0,1,55,41.3a2.68,2.68,0,0,1-1-1.25A31.11,31.11,0,0,1,58.3,41.21Zm-9.81,55.3a15.8,15.8,0,0,1,1.6-5.23,27.58,27.58,0,0,1,3.15-5,16.24,16.24,0,0,1,2.4-2.39A13.86,13.86,0,0,1,58.49,82a8.56,8.56,0,0,1,3-.82,4.48,4.48,0,0,1,2.68.59,2.46,2.46,0,0,1,1.14,1.63,5.82,5.82,0,0,1,0,2.34,11.17,11.17,0,0,1-.8,2.51,11.57,11.57,0,0,1-4.67,4.83c-1.12.57-2.53,1.27-3.42,1.63a34.62,34.62,0,0,1-6.28,1.81c-.53.1-1.08.17-1.64.23C48.48,96.69,48.48,96.6,48.49,96.51Z" transform="translate(-9.58 -8.01)"/><path id="_Compound_Path_5" data-name="&lt;Compound Path&gt;" class="cls-2" d="M110.21,67.25a4.28,4.28,0,0,0-.45-3.18,2.78,2.78,0,0,0-1.67-1.33,7.16,7.16,0,0,0-2.63-.08,11.5,11.5,0,0,0-2.43.66,19.38,19.38,0,0,0-2.39,1.13,25.71,25.71,0,0,0-2.3,1.45q-1.12.79-2.13,1.62-1.64,1.33-3.31,2.89a30,30,0,0,0-5.05,6.32,16.63,16.63,0,0,0-1.55,3.4,19.93,19.93,0,0,0-.61,1.94A10.15,10.15,0,0,0,85.37,84a3.12,3.12,0,0,0,.95,2.6,4.52,4.52,0,0,0,2.5,1.18,4,4,0,0,0,1.17.08,10.16,10.16,0,0,0,1.2-.16,17.94,17.94,0,0,0,4.48-1.79,37,37,0,0,0,4.2-2.71,27.09,27.09,0,0,0,5.56-5.71,29.15,29.15,0,0,0,3.71-6.78A24.37,24.37,0,0,0,110.21,67.25Zm-4.85,1.65-1,2q-.79,1.47-1.66,2.94t-1.84,2.87q-.4.57-.78,1.13T99.3,79a38.21,38.21,0,0,1-2.75,3.26,12.57,12.57,0,0,1-3.39,2.57q-.61.31-1.11.51a3.36,3.36,0,0,1-1.12.13A1.12,1.12,0,0,1,90,85a2,2,0,0,1-.11-1.74,12.79,12.79,0,0,1,.72-1.84q.75-1.51,1.6-3T94,75.51q1.1-1.64,2.34-3.26A38.94,38.94,0,0,1,99,69.15a18.9,18.9,0,0,1,1.41-1.42Q101.2,67,102,66.3a14.81,14.81,0,0,1,1.53-1.22,2.32,2.32,0,0,1,1.74-.48,1,1,0,0,1,.79.88,3.65,3.65,0,0,1,0,1.35A9.11,9.11,0,0,1,105.36,68.9Z" transform="translate(-9.58 -8.01)"/><path id="_Compound_Path_6" data-name="&lt;Compound Path&gt;" class="cls-2" d="M189.14,48.49v-.11l0-.23a29.78,29.78,0,0,0-.07-7.18A28.69,28.69,0,0,0,184,28a30.8,30.8,0,0,0-10.32-9,32.89,32.89,0,0,0-6.42-2.61c-.56-.16-1.12-.32-1.69-.44s-1.14-.26-1.72-.35l-.86-.15-.89-.11-.89-.11-.84-.06a35.27,35.27,0,0,0-7.08.15,36.84,36.84,0,0,0-6.58,1.42c.45-.68.89-1.35,1.35-2a13,13,0,0,0,1.26-2.24q.24-.5.52-1.13a1.33,1.33,0,0,0,.08-1.08.92.92,0,0,0-1.05-.52,11.24,11.24,0,0,0-1.32.28,4.08,4.08,0,0,1-1.07.18q-.58,0-1.16.09a6.88,6.88,0,0,0-1.13.23,2.77,2.77,0,0,0-1,.49,3,3,0,0,0-.63.81,10.85,10.85,0,0,0-.48,1q-.22.53-.42,1t-.38.93q-.54,1.06-1.14,2.09l-.94,1.56-10.67,2.43-4.46,1-4.45,1-1.11.23-1.08.19c-.73.11-1.45.21-2.17.26-.41,0-.81,0-1.2,0,.12-.1.24-.19.35-.3a5.39,5.39,0,0,0,.94-1.21,5.86,5.86,0,0,0,.57-1.35,3.24,3.24,0,0,0,.11-1.3,1.55,1.55,0,0,0-1.93-1.29,3.52,3.52,0,0,0-1.91.85,6.9,6.9,0,0,0-1.34,1.4A5.14,5.14,0,0,0,110,22a2.1,2.1,0,0,0,.07,1.49,1.74,1.74,0,0,0,.33.45l-.07,0c0,.09.08.15.15.25a2.71,2.71,0,0,0,.36.4l.33.24.34.17a5.28,5.28,0,0,0,1.29.36,12.62,12.62,0,0,0,2.43.11c.79,0,1.57-.1,2.35-.2l1.17-.17,1.13-.2,4.51-.87,4.49-.89c2.76-.56,5.52-1.11,8.27-1.68l-5.09,6.85q-2.64,3.41-5.09,7t-4.5,7q-.75,1-1.49,2A35.62,35.62,0,0,1,117.9,48l-.83.84a7.57,7.57,0,0,1-1,.83,5.64,5.64,0,0,1-1,.6,1.86,1.86,0,0,1-1,.15q-.52-.08-.48-.7a5.45,5.45,0,0,1,.31-1.42,12.74,12.74,0,0,1,.63-1.53,10.94,10.94,0,0,1,.53-1q.47-.91,1-1.83t1.17-1.85q2-3.09,4.41-6.18l1.2-1.45q.6-.71,1.25-1.46.44-.53,1.08-1.2a2.63,2.63,0,0,0,.76-1.35q.12-.68-.35-.81a1.58,1.58,0,0,0-1,.07,24.92,24.92,0,0,1-3.71,1.16,4.61,4.61,0,0,1-3.4-.5,1,1,0,0,0-1.22,0,4.41,4.41,0,0,0-1,1.11q-1,1.45-1.78,2.95a32.69,32.69,0,0,1-1.83,3q-.8,1.14-1.56,2.25c-.11,0-2.91,4.08-3.39,4.68s-1.13,1.46-1.69,2.22-1,1.34-1.52,2l-.62.69-1,1.09q-.26.3-.54.58c-.35.34-.71.66-1.08,1a7.78,7.78,0,0,1-.77.54,2.66,2.66,0,0,1-1.26.41c-.39,0-.63-.05-.71-.3a1.61,1.61,0,0,1,.05-1,6.76,6.76,0,0,1,.59-1.35q.41-.74.84-1.43t.8-1.24q.37-.54.48-.75,1.54-2.42,3.11-4.75t3.2-4.66q.34-.51.84-1.17t.92-1.3a8.06,8.06,0,0,0,.71-1.32,3.58,3.58,0,0,0,.3-1.3.74.74,0,0,0-.27-.66,1.3,1.3,0,0,0-.65-.21,3.46,3.46,0,0,0-.82.05q-.44.08-.78.16l-1.79.36a3.23,3.23,0,0,0-1.69.82,1.49,1.49,0,0,0-.38.64c-.07.25-.14.48-.19.71A5.34,5.34,0,0,1,102,36q-.59.9-1.21,1.79-1.48,2.27-3,4.43t-2.94,4.46q-.81,1.33-1.55,2.75a12.07,12.07,0,0,0-1.08,2.89A7.37,7.37,0,0,0,92.12,54a3.3,3.3,0,0,0,.43,1.49,2.25,2.25,0,0,0,1.34,1A3.57,3.57,0,0,0,96,56.23l.09,0a.68.68,0,0,0,.67.09,4.52,4.52,0,0,0,1.47-.79q.83-.62,1.78-1.5t1.78-1.73q.83-.86,1.43-1.55t.81-.91q.76-.85,1.47-1.7t1.37-1.73q1.21-1.57,2.31-3.15T111.37,40l1-1.55q.51-.77,1-1.5a8.53,8.53,0,0,1,.8-1,1.36,1.36,0,0,1,1.07-.41,2.64,2.64,0,0,1,.89.23,1.65,1.65,0,0,0,.9.13,2.72,2.72,0,0,0,.42-.1,3.11,3.11,0,0,1,.49-.11.6.6,0,0,1,.33,0c.08,0,.06.16-.06.36a2.75,2.75,0,0,1-.83.91,10.47,10.47,0,0,0-1,.83q-1.87,1.89-3.76,4a23.84,23.84,0,0,0-3.17,4.37q-.46.77-.88,1.63t-.75,1.71a8.27,8.27,0,0,0-.46,1.69,4.93,4.93,0,0,0,0,1.69A1.94,1.94,0,0,0,108,54a2.38,2.38,0,0,0,1,.57,3.63,3.63,0,0,0,1.26.14,7,7,0,0,0,1.39-.21,10.25,10.25,0,0,0,3.68-2,30.43,30.43,0,0,0,3.06-3q.65-.74,1.31-1.56l.53-.68q-.1.35-.18.7a7.29,7.29,0,0,0-.12,2.65,2.79,2.79,0,0,0,1.27,2,3.07,3.07,0,0,0,1.29.56,5.18,5.18,0,0,0,3.3-.35,14.2,14.2,0,0,0,3.22-2A26.57,26.57,0,0,0,131.89,48l.87-.94c-.05.19-.1.38-.13.57a8.9,8.9,0,0,0-.13,1.3,4.47,4.47,0,0,0,.14,1.27,2.4,2.4,0,0,0,.54,1,1.75,1.75,0,0,0,1,.54,5.89,5.89,0,0,0,2.65-.15,10,10,0,0,0,2.6-1.09,13.32,13.32,0,0,0,3.38-3.07s-1.93,3.2-2.71,4.39-7.87,12-9,13.61q-.93,1.32-1.84,2.67a1.75,1.75,0,0,0-.51.63c-.1.21-.22.42-.33.62l-.65,1c-.42.55-.86,1.09-1.33,1.61l-1.95,2.1q-.49.53-1,1t-1,1l-.89.86-.89.86-1.15,1q-.56.49-1.14.94a12.88,12.88,0,0,1-1.81,1.13,11.4,11.4,0,0,1-2.32,1,3.76,3.76,0,0,1-2,.09q-.86-.23-.86-1.52a5.22,5.22,0,0,1,.58-2.53q.63-1.26,1.34-2.43,1.59-2.51,3.31-5a47.1,47.1,0,0,1,3.76-4.68q.39-.42,1.08-1.24A12.11,12.11,0,0,1,123,63.13a5.3,5.3,0,0,1,1.57-.94,1,1,0,0,1,1.28.38,2.28,2.28,0,0,1,.36,1.29,8.29,8.29,0,0,1-.14,1.39,3.56,3.56,0,0,1-.11.53,1.77,1.77,0,0,0-.07.58,1.05,1.05,0,0,0,.11.46q.1.18.44.14a1.38,1.38,0,0,0,1.11-.65q.43-.62.83-1.14.52-.72,1.08-1.43a5.17,5.17,0,0,0,.85-1.54,1.59,1.59,0,0,0,.09-.77,3.43,3.43,0,0,0-.21-.69,1.09,1.09,0,0,0-.5-.49,2.6,2.6,0,0,0-.76-.24,5.17,5.17,0,0,0-.88-.07h-.79a15.48,15.48,0,0,0-4.15,1,18.26,18.26,0,0,0-2.34,1.17,27.66,27.66,0,0,0-4.09,3q-1.92,1.69-3.67,3.5a29.56,29.56,0,0,0-3.13,3.85,34.58,34.58,0,0,0-2.45,4.2,18.12,18.12,0,0,0-1,2.53,11.35,11.35,0,0,0-.41,2.28,5.11,5.11,0,0,0,.28,2.15,2.7,2.7,0,0,0,1.43,1.52,5.21,5.21,0,0,0,2.18.49l1.95-.22a7.71,7.71,0,0,0,1.47-.5q.68-.32,1.4-.68a7,7,0,0,0,1.34-.79l1.27-1q2.12-1.71,4.09-3.62,1.17-1.13,2.31-2.27-.53.77-1.07,1.52-.74,1-1.51,2.07t-1.47,2.11c-.12.17-.25.39-.41.66a3.72,3.72,0,0,0-.35.78,1,1,0,0,0,0,.62q.09.25.62.24a4,4,0,0,0,.67,0l.95-.08.85-.1.44-.05.64-.17a4.3,4.3,0,0,0,.94-.2,2,2,0,0,0,.79-.56,12,12,0,0,0,1.45-1.94q.63-1,1.27-2l1.42-2.08q.72-1.05,1.37-2.08.83-1.33,1.63-2.68a12.43,12.43,0,0,1,1.94-2.48,8.59,8.59,0,0,1,2.89-1.71,5.92,5.92,0,0,1,.72-.22.59.59,0,0,1,.59.12.7.7,0,0,1,.17.41,3.28,3.28,0,0,0,.11.51,2.64,2.64,0,0,1-.1,1.72,9.13,9.13,0,0,1-.92,1.77A17.82,17.82,0,0,1,136,74.4q-.72.84-1.28,1.52a12.94,12.94,0,0,0-1.13,1.7,6.62,6.62,0,0,0-.71,1.81,3.48,3.48,0,0,0,0,1.66A2,2,0,0,0,134,82.31a4.22,4.22,0,0,0,2.23.37,6.89,6.89,0,0,0,2.09-.59,13.19,13.19,0,0,0,2.06-1.18,20,20,0,0,0,1.82-1.42,43.7,43.7,0,0,0,5.45-5.95q.84-1,1.61-2.08l.21-.31,1.3-1.6,2.32-2.85q.61-.73,1.16-1.48t1.16-1.48q.34-.42.66-.76t.66-.76a3.87,3.87,0,0,1,.41-.62,2.39,2.39,0,0,1,.54-.54,31.11,31.11,0,0,1-1.35,4.4q-.86,2.21-1.63,4.34-.57,1.58-1.26,3.18a19.49,19.49,0,0,1-1.26,2.42,19.17,19.17,0,0,0-5.22.23,4,4,0,0,0-1.14.44,3.19,3.19,0,0,0-.49.31A4.69,4.69,0,0,0,144,77.91a2.76,2.76,0,0,0-.35,1.77,1.68,1.68,0,0,0,.36.84,2,2,0,0,0,.66.52,2.69,2.69,0,0,0,.86.26l.95.1h0a8.22,8.22,0,0,0,3.58-.67,14.14,14.14,0,0,0,3.3-2A18.18,18.18,0,0,0,155,77.39c.54,0,1.07,0,1.61,0l1.76-.16a15.82,15.82,0,0,0,1.76-.21l1.75-.32.88-.16.86-.24A27.35,27.35,0,0,0,167,75.21l1.69-.64,1.64-.79c.54-.28,1.11-.5,1.63-.83l1.57-.94.78-.47.75-.54,1.49-1.08c.5-.35.94-.79,1.41-1.18s.94-.79,1.38-1.23a35.11,35.11,0,0,0,4.72-5.69c.34-.52.69-1,1-1.56l.86-1.64a29.5,29.5,0,0,0,1.49-3.38,14.73,14.73,0,0,0,.58-1.78l.52-1.81c.12-.57.21-1.13.32-1.7l.16-.85.08-.42v-.05l0-.11ZM150,78.27a5.59,5.59,0,0,1-1.14.91,3.67,3.67,0,0,1-1,.35c-2.19.32-2.16-1-1.83-1.52a1.79,1.79,0,0,1,.92-.55,16.88,16.88,0,0,1,4-.3A11.35,11.35,0,0,1,150,78.27ZM185.8,48.74l-.15.85c-.1.56-.2,1.14-.31,1.69l-.44,1.52a11.8,11.8,0,0,1-.49,1.52,26,26,0,0,1-1.31,3l-.75,1.47c-.28.48-.59.93-.88,1.4a31.63,31.63,0,0,1-4.16,5.19c-.39.4-.82.76-1.23,1.14s-.81.78-1.25,1.11l-1.33,1-.67.51-.71.45-1.41.9c-.46.32-1,.54-1.46.81l-1.48.78-1.54.65a35.27,35.27,0,0,1-6.37,2,14.42,14.42,0,0,1-1.64.29l-1.41.21a18.85,18.85,0,0,0,1.61-2.5,25.71,25.71,0,0,0,1.77-4.14q.67-2.07,1.3-4.23.39-1.33.76-2.65t.86-2.66a8.73,8.73,0,0,1,.48-1.05l.58-1.06a2.3,2.3,0,0,1,.19-.38q.18-.33.34-.68l.29-.65q.13-.3.08-.29a4.14,4.14,0,0,0-1,.23,6.34,6.34,0,0,1-1,.28c-.43.08-1.38.1-1.78.13a4.22,4.22,0,0,0-1.26.31,3.19,3.19,0,0,0-1.06.67,10.6,10.6,0,0,0-.86,1q-1.06,1.31-2,2.63t-2,2.62l-2.36,3c-.13.16-7,9.15-7.54,9.74a15.71,15.71,0,0,1-1.54,1.62c-.17.16-.44.35-.79.61a7.09,7.09,0,0,1-1.09.67,4.47,4.47,0,0,1-1.05.38.66.66,0,0,1-.74-.25A.76.76,0,0,1,139,78a3,3,0,0,1,.3-.72,8,8,0,0,1,.47-.74q.26-.36.43-.57.68-.88,1.41-1.8a18.36,18.36,0,0,0,1.32-1.88,6.73,6.73,0,0,0,.82-1.95,3.68,3.68,0,0,0-.08-2,3.18,3.18,0,0,0-1.76-2.05,4.67,4.67,0,0,0-2.93-.16,3.51,3.51,0,0,1,.35-.3l.34-.25q.84-.67,1.62-1.35t1.61-1.3a10,10,0,0,1,1.4-.87,2.19,2.19,0,0,1,1.47-.22,3,3,0,0,1,1,.55,1.62,1.62,0,0,0,1.14.34,2.06,2.06,0,0,0,1.44-.62,7.82,7.82,0,0,0,1.13-1.29,8.19,8.19,0,0,0,.7-1.31,3.27,3.27,0,0,0,.29-1.29,1.24,1.24,0,0,0-.39-1,1.81,1.81,0,0,0-1.26-.35,4.73,4.73,0,0,0-1.82.4,10,10,0,0,0-1.77,1q-.86.6-1.69,1.28T143,60.92q-.69.6-1.38,1.15l-1.38,1.11-.79.64-.79.64-.45.38-.45.38q-.43.38-.87.72a8.51,8.51,0,0,0-.88.77,4.88,4.88,0,0,0,1-1.39,10.53,10.53,0,0,1,.84-1.47q.52-.77,1-1.49t1-1.49c1-1.47,14.21-21.7,14.85-22.7l1.93-3,2.21-3.4,1.1-1.6,1.1-1.6a5.48,5.48,0,0,0,.73-1.28,4.91,4.91,0,0,0,.35-1.37q.06-.62-.21-.78a1.28,1.28,0,0,0-.86,0q-.93.21-1.81.31t-1.75.26a3,3,0,0,0-1,.39,1.84,1.84,0,0,0-.67.91,16.23,16.23,0,0,1-1.73,3.63Q153,32.32,151.88,34t-2.44,3.57q-1.26,1.77-2.53,3.49-.78,1-1.54,1.94l-2.24,2.53a10.73,10.73,0,0,1-2.59,2.14,3.42,3.42,0,0,1-1.17.45,1.47,1.47,0,0,1-.9-.08.75.75,0,0,1-.39-.64,2.42,2.42,0,0,1,.31-1.23,10,10,0,0,1,1.08-1.89q.64-.88,1.26-1.77l1.36-2.09q.68-1.06,1.41-2.09,1.36-2.11,2.77-4.16l2.81-4.12q.46-.72.94-1.44a1.94,1.94,0,0,0,.32-1.51q-.13-.65-.65-.68a3.67,3.67,0,0,0-1.16.14,6.18,6.18,0,0,1-1.33.11,4.83,4.83,0,0,0-1.34.16,2.15,2.15,0,0,0-1,.54,3.32,3.32,0,0,0-.61.86,10.51,10.51,0,0,0-.44,1,9,9,0,0,1-.43,1q-1,1.78-2.12,3.46T139,37l-2,2.83-.75.95q-1.13,1.44-2.33,2.87-1,1.21-2,2.41a10.64,10.64,0,0,1-2.39,2,4.29,4.29,0,0,1-1.4.6,1.48,1.48,0,0,1-1-.11,1.19,1.19,0,0,1-.54-.79,2.41,2.41,0,0,1,.19-1.4,9.67,9.67,0,0,1,1-2.11q.63-1,1.35-2,2.83-3.86,5.43-7.73l5.24-7.81L144.35,20l2.44-.51h.05l.08,0a33.86,33.86,0,0,1,6.46-1.32,32.28,32.28,0,0,1,6.51,0l.84.08.78.11.78.11.79.15c.53.09,1,.21,1.56.34s1,.27,1.54.42A30,30,0,0,1,172,21.77,28,28,0,0,1,181.35,30a25.71,25.71,0,0,1,4.54,11.6,26.56,26.56,0,0,1,0,6.39l0,.32Z" transform="translate(-9.58 -8.01)"/></g><g id="_Group_4" data-name="&lt;Group&gt;"><path id="_Compound_Path_7" data-name="&lt;Compound Path&gt;" class="cls-3" d="M89,71.74a15.12,15.12,0,0,0,3.87-5.25,13.15,13.15,0,0,0,.92-3,8.74,8.74,0,0,0,.09-2.93,4.69,4.69,0,0,0-1-2.32,3.51,3.51,0,0,0-2.39-1.16.9.9,0,0,0-.31,0,1,1,0,0,1-.4-.07,7,7,0,0,0-2.32.14,18.64,18.64,0,0,0-2.94.82A23.8,23.8,0,0,0,82.25,59q-1.14.59-2.19,1.27a19.66,19.66,0,0,0-1.85,1.38q-.9.76-1.74,1.55A21.26,21.26,0,0,0,74,66.29a22,22,0,0,0-1.86,3.34A16.55,16.55,0,0,0,71,73.08a10.91,10.91,0,0,0-.19,3.32q.13,1.25.24,2.5t.29,2.49q.37,2.2.79,4.42A12.18,12.18,0,0,1,72,90.51a15,15,0,0,1-1.13,3.4,16.42,16.42,0,0,1-1.71,2.93A27.92,27.92,0,0,1,67,99.53,20.18,20.18,0,0,1,65.51,101q-.79.7-1.59,1.3a14.6,14.6,0,0,1-3.1,1.7,13.11,13.11,0,0,1-3.21.85,10.78,10.78,0,0,1-3.06,0,6.09,6.09,0,0,1-2.57-1,13,13,0,0,1-1.74-1.39A4.9,4.9,0,0,1,49,100.57a6.64,6.64,0,0,1-.42-1.64c.67-.12,1.32-.25,1.95-.39A35.9,35.9,0,0,0,57.73,96h0a20.85,20.85,0,0,0,5.6-3.41,12.16,12.16,0,0,0,1.36-1.13c.44-.43.85-.88,1.26-1.35l.19-.22a14.93,14.93,0,0,0,2.07-3.5,11.56,11.56,0,0,0,1-3.73,5,5,0,0,0-.68-3.06A3.71,3.71,0,0,0,65.68,78a6.73,6.73,0,0,0-2,0,11.59,11.59,0,0,0-2,.51,29.19,29.19,0,0,0-6.35,3.19,28.85,28.85,0,0,0-4.58,3.85,30,30,0,0,0-3.86,4.85,24.32,24.32,0,0,0-2.54,5.21c-.14.4-.25.8-.35,1.2l-2.21-.09a31.43,31.43,0,0,1-9.4-1.94,29.22,29.22,0,0,1-9-5.38,26.26,26.26,0,0,1-6.6-8.94,25.47,25.47,0,0,1-2.2-11.4,27.32,27.32,0,0,1,.85-5.93,28,28,0,0,1,2.13-5.64,31.86,31.86,0,0,1,7.26-9.37,34.63,34.63,0,0,1,9.42-6,34.28,34.28,0,0,1,9.59-2.52c1.23-.13,2.43-.2,3.57-.21,0,0,0,.05,0,.08a17.24,17.24,0,0,0,.22,2.4,5.59,5.59,0,0,0,1.67,3.23,5.28,5.28,0,0,0,3.43,1.4,8.58,8.58,0,0,0,3.76-.66c.58-.23,1.15-.49,1.71-.75,1.72-.89,3-1.83,3.41-2.89a2,2,0,0,0,.15-.74h0a1.56,1.56,0,0,0-.28-.88h0a2.94,2.94,0,0,0-1-.9,5.78,5.78,0,0,0-.67-.32l-.62-.24a33.13,33.13,0,0,0-5.52-1.61c0-.25,0-.49.08-.75a12.61,12.61,0,0,1,.76-2.75,18.94,18.94,0,0,1,1.13-2.39,32.22,32.22,0,0,1,4.83-6.54,27.77,27.77,0,0,1,6.41-5.12q.87-.53,1.75-1l1.85-1q1-.5,2.08-.91t2.16-.78a30.43,30.43,0,0,1,7.23-1.29,13.84,13.84,0,0,1,6.64,1.21,6.49,6.49,0,0,1,3.31,3.34A13.44,13.44,0,0,1,93,24.55a24.1,24.1,0,0,1-.8,7.28,42.33,42.33,0,0,1-2.62,7.26l-.93,1.87q-.45.91-.93,1.82a46.36,46.36,0,0,1-4.27,6.5A39.54,39.54,0,0,1,78,54.91a12.44,12.44,0,0,1-2.75,1.83,16.15,16.15,0,0,1-6.13,1.61,17.2,17.2,0,0,1-3-.07q-.8-.14-1.66-.23a8.8,8.8,0,0,1-1.65-.33,4,4,0,0,1-.86-.23.73.73,0,0,1-.54-.55.93.93,0,0,1,.34-.8l.71-.66a44.05,44.05,0,0,0,4.36-4.73,54.81,54.81,0,0,0,3.69-5.22q.74-1.18,1.44-2.38t1.44-2.43q1.21-2,2.4-4.11t2.48-4.12q1.29-2.05,2.68-4a42.28,42.28,0,0,1,3-3.78q.92-1.06,1.86-2a6.54,6.54,0,0,1,2.24-1.5l.8-.33a4.08,4.08,0,0,0,.89-.49,1.42,1.42,0,0,0,.52-.63.67.67,0,0,0-.26-.73A1.51,1.51,0,0,0,89,18.7a6.12,6.12,0,0,0-1.47.27q-.77.23-1.52.54T84.87,20a23.31,23.31,0,0,0-5.62,3.43,42.5,42.5,0,0,0-3.68,3.46q-1.69,1.8-3.28,3.79a37.18,37.18,0,0,0-2.75,3.78Q68.31,36.38,67,38.34q-1.47,2.22-3,4.39t-2.82,4.43q-1,1.69-2.09,3.39a27.23,27.23,0,0,1-2.36,3.23,7.27,7.27,0,0,1-1.92,1.7,3.13,3.13,0,0,1-2.25.17,7.16,7.16,0,0,0-1.42-.16H49.7q-1.29-.08-2.59,0t-2.65.15a25.52,25.52,0,0,0-2.66.48,13.11,13.11,0,0,0-2.89,1,8.19,8.19,0,0,0-2.38,1.76,3.9,3.9,0,0,0-1.05,2.6,2.51,2.51,0,0,0,.28,1.25,2.31,2.31,0,0,0,.8.9,5.63,5.63,0,0,0,2.51,1,13.81,13.81,0,0,0,2.89.13l.19,0q1.69-.11,3.44-.36a19.76,19.76,0,0,0,3.49-.84,15.11,15.11,0,0,0,2.62-1.26,8,8,0,0,1,2.65-1,6.18,6.18,0,0,1,2.73.08,16.56,16.56,0,0,0,2.64.47,39.42,39.42,0,0,0,4.66.13,29.43,29.43,0,0,0,4.83-.55,37.58,37.58,0,0,0,11.1-4.22,38.64,38.64,0,0,0,9.62-7.71q.44-.53.89-1a8.82,8.82,0,0,0,.85-1.05q1.38-1.83,2.55-3.66a32.9,32.9,0,0,0,2.08-3.79,28.9,28.9,0,0,0,2.44-7.33,30.06,30.06,0,0,0,.47-7.28,17.82,17.82,0,0,0-.68-4,10.73,10.73,0,0,0-1.74-3.45,14.7,14.7,0,0,0-1.31-1.51,10,10,0,0,0-1.57-1.29,11.74,11.74,0,0,0-3.33-1.46,20.75,20.75,0,0,0-3.75-.6q-2.37-.24-4.74-.29a21.11,21.11,0,0,0-4.87.49,50.13,50.13,0,0,0-6.71,2.08A52,52,0,0,0,64,18.35a31.53,31.53,0,0,0-4.89,3.32,42.69,42.69,0,0,0-4.3,4.1,54.11,54.11,0,0,0-4.25,5.36A19.13,19.13,0,0,0,47.75,37c-.51,0-1,0-1.57,0L45,37l-1.22.09a37,37,0,0,0-10.44,2.49A36.16,36.16,0,0,0,22.9,45.93a34.56,34.56,0,0,0-8.16,10.34,31.49,31.49,0,0,0-2.41,6.32,30.41,30.41,0,0,0-1,6.66,28.27,28.27,0,0,0,10,22.61,30.69,30.69,0,0,0,10,5.7,34.13,34.13,0,0,0,10.3,1.86c.42,0,.79,0,1.19,0h.9a10,10,0,0,0,0,1.27,8.26,8.26,0,0,0,1.44,4,6.82,6.82,0,0,0,3.47,2.37,10.35,10.35,0,0,0,1.8.41,17.71,17.71,0,0,0,1.95.16,14.77,14.77,0,0,0,2-.09,21.78,21.78,0,0,0,4.38-.89,32.86,32.86,0,0,0,4.62-1.8,33.52,33.52,0,0,0,4.4-2.53,25.08,25.08,0,0,0,3.81-3.16,40.92,40.92,0,0,0,3.44-4.08,18.54,18.54,0,0,0,2.51-4.49A16.51,16.51,0,0,0,78.76,85a35.08,35.08,0,0,0-.28-5.34,19.49,19.49,0,0,0-.34-2q-.22-1-.4-2-.32-1.74-.53-3.54a10.52,10.52,0,0,1,.3-3.82,12.1,12.1,0,0,1,1-2.56A16,16,0,0,1,80,63.25a11,11,0,0,1,1.71-1.73,10.06,10.06,0,0,1,2.08-1.33A6.8,6.8,0,0,1,86,59.55a4.2,4.2,0,0,1,2,.24,2.44,2.44,0,0,1,1.21,1,4.08,4.08,0,0,1,.52,1.6,7.61,7.61,0,0,1,0,1.87,10.75,10.75,0,0,1-.4,1.84,12.77,12.77,0,0,1-2.2,4.17A8.55,8.55,0,0,1,85.33,72a5,5,0,0,1-2.18.87,4,4,0,0,0-.78.16q-.34.11-.4.68t.18.66a1.39,1.39,0,0,0,.68.2,3.33,3.33,0,0,0,.88-.08,5.92,5.92,0,0,0,.84-.23,10.14,10.14,0,0,0,2.32-1A11.9,11.9,0,0,0,89,71.74ZM48.81,60a9.46,9.46,0,0,1-1.53.71q-.87.32-1.68.53t-1,.23a6,6,0,0,1-1.07.13q-.77,0-1.64.05a2.22,2.22,0,0,1-1.44-.45A1.13,1.13,0,0,1,40.13,60a1.93,1.93,0,0,1,.89-1.2,3.74,3.74,0,0,1,2-.62,10.37,10.37,0,0,1,2,.1l.85.18,1.41.31,1.46.3a1.38,1.38,0,0,0,.38.05q.29,0,.32.15Q49.47,59.65,48.81,60ZM58.3,41.21l.61.21.4.17-.31.09a7.5,7.5,0,0,1-2.13.23A3.65,3.65,0,0,1,55,41.3a2.68,2.68,0,0,1-1-1.25A31.11,31.11,0,0,1,58.3,41.21Zm-9.81,55.3a15.8,15.8,0,0,1,1.6-5.23,27.58,27.58,0,0,1,3.15-5,16.24,16.24,0,0,1,2.4-2.39A13.86,13.86,0,0,1,58.49,82a8.56,8.56,0,0,1,3-.82,4.48,4.48,0,0,1,2.68.59,2.46,2.46,0,0,1,1.14,1.63,5.82,5.82,0,0,1,0,2.34,11.17,11.17,0,0,1-.8,2.51,11.57,11.57,0,0,1-4.67,4.83c-1.12.57-2.53,1.27-3.42,1.63a34.62,34.62,0,0,1-6.28,1.81c-.53.1-1.08.17-1.64.23C48.48,96.69,48.48,96.6,48.49,96.51Z" transform="translate(-9.58 -8.01)"/><path id="_Compound_Path_8" data-name="&lt;Compound Path&gt;" class="cls-3" d="M110.21,67.25a4.28,4.28,0,0,0-.45-3.18,2.78,2.78,0,0,0-1.67-1.33,7.16,7.16,0,0,0-2.63-.08,11.5,11.5,0,0,0-2.43.66,19.38,19.38,0,0,0-2.39,1.13,25.71,25.71,0,0,0-2.3,1.45q-1.12.79-2.13,1.62-1.64,1.33-3.31,2.89a30,30,0,0,0-5.05,6.32,16.63,16.63,0,0,0-1.55,3.4,19.93,19.93,0,0,0-.61,1.94A10.15,10.15,0,0,0,85.37,84a3.12,3.12,0,0,0,.95,2.6,4.52,4.52,0,0,0,2.5,1.18,4,4,0,0,0,1.17.08,10.16,10.16,0,0,0,1.2-.16,17.94,17.94,0,0,0,4.48-1.79,37,37,0,0,0,4.2-2.71,27.09,27.09,0,0,0,5.56-5.71,29.15,29.15,0,0,0,3.71-6.78A24.37,24.37,0,0,0,110.21,67.25Zm-4.85,1.65-1,2q-.79,1.47-1.66,2.94t-1.84,2.87q-.4.57-.78,1.13T99.3,79a38.21,38.21,0,0,1-2.75,3.26,12.57,12.57,0,0,1-3.39,2.57q-.61.31-1.11.51a3.36,3.36,0,0,1-1.12.13A1.12,1.12,0,0,1,90,85a2,2,0,0,1-.11-1.74,12.79,12.79,0,0,1,.72-1.84q.75-1.51,1.6-3T94,75.51q1.1-1.64,2.34-3.26A38.94,38.94,0,0,1,99,69.15a18.9,18.9,0,0,1,1.41-1.42Q101.2,67,102,66.3a14.81,14.81,0,0,1,1.53-1.22,2.32,2.32,0,0,1,1.74-.48,1,1,0,0,1,.79.88,3.65,3.65,0,0,1,0,1.35A9.11,9.11,0,0,1,105.36,68.9Z" transform="translate(-9.58 -8.01)"/><path id="_Compound_Path_9" data-name="&lt;Compound Path&gt;" class="cls-3" d="M189.14,48.49v-.11l0-.23a29.78,29.78,0,0,0-.07-7.18A28.69,28.69,0,0,0,184,28a30.8,30.8,0,0,0-10.32-9,32.89,32.89,0,0,0-6.42-2.61c-.56-.16-1.12-.32-1.69-.44s-1.14-.26-1.72-.35l-.86-.15-.89-.11-.89-.11-.84-.06a35.27,35.27,0,0,0-7.08.15,36.84,36.84,0,0,0-6.58,1.42c.45-.68.89-1.35,1.35-2a13,13,0,0,0,1.26-2.24q.24-.5.52-1.13a1.33,1.33,0,0,0,.08-1.08.92.92,0,0,0-1.05-.52,11.24,11.24,0,0,0-1.32.28,4.08,4.08,0,0,1-1.07.18q-.58,0-1.16.09a6.88,6.88,0,0,0-1.13.23,2.77,2.77,0,0,0-1,.49,3,3,0,0,0-.63.81,10.85,10.85,0,0,0-.48,1q-.22.53-.42,1t-.38.93q-.54,1.06-1.14,2.09l-.94,1.56-10.67,2.43-4.46,1-4.45,1-1.11.23-1.08.19c-.73.11-1.45.21-2.17.26-.41,0-.81,0-1.2,0,.12-.1.24-.19.35-.3a5.39,5.39,0,0,0,.94-1.21,5.86,5.86,0,0,0,.57-1.35,3.24,3.24,0,0,0,.11-1.3,1.55,1.55,0,0,0-1.93-1.29,3.52,3.52,0,0,0-1.91.85,6.9,6.9,0,0,0-1.34,1.4A5.14,5.14,0,0,0,110,22a2.1,2.1,0,0,0,.07,1.49,1.74,1.74,0,0,0,.33.45l-.07,0c0,.09.08.15.15.25a2.71,2.71,0,0,0,.36.4l.33.24.34.17a5.28,5.28,0,0,0,1.29.36,12.62,12.62,0,0,0,2.43.11c.79,0,1.57-.1,2.35-.2l1.17-.17,1.13-.2,4.51-.87,4.49-.89c2.76-.56,5.52-1.11,8.27-1.68l-5.09,6.85q-2.64,3.41-5.09,7t-4.5,7q-.75,1-1.49,2A35.62,35.62,0,0,1,117.9,48l-.83.84a7.57,7.57,0,0,1-1,.83,5.64,5.64,0,0,1-1,.6,1.86,1.86,0,0,1-1,.15q-.52-.08-.48-.7a5.45,5.45,0,0,1,.31-1.42,12.74,12.74,0,0,1,.63-1.53,10.94,10.94,0,0,1,.53-1q.47-.91,1-1.83t1.17-1.85q2-3.09,4.41-6.18l1.2-1.45q.6-.71,1.25-1.46.44-.53,1.08-1.2a2.63,2.63,0,0,0,.76-1.35q.12-.68-.35-.81a1.58,1.58,0,0,0-1,.07,24.92,24.92,0,0,1-3.71,1.16,4.61,4.61,0,0,1-3.4-.5,1,1,0,0,0-1.22,0,4.41,4.41,0,0,0-1,1.11q-1,1.45-1.78,2.95a32.69,32.69,0,0,1-1.83,3q-.8,1.14-1.56,2.25c-.11,0-2.91,4.08-3.39,4.68s-1.13,1.46-1.69,2.22-1,1.34-1.52,2l-.62.69-1,1.09q-.26.3-.54.58c-.35.34-.71.66-1.08,1a7.78,7.78,0,0,1-.77.54,2.66,2.66,0,0,1-1.26.41c-.39,0-.63-.05-.71-.3a1.61,1.61,0,0,1,.05-1,6.76,6.76,0,0,1,.59-1.35q.41-.74.84-1.43t.8-1.24q.37-.54.48-.75,1.54-2.42,3.11-4.75t3.2-4.66q.34-.51.84-1.17t.92-1.3a8.06,8.06,0,0,0,.71-1.32,3.58,3.58,0,0,0,.3-1.3.74.74,0,0,0-.27-.66,1.3,1.3,0,0,0-.65-.21,3.46,3.46,0,0,0-.82.05q-.44.08-.78.16l-1.79.36a3.23,3.23,0,0,0-1.69.82,1.49,1.49,0,0,0-.38.64c-.07.25-.14.48-.19.71A5.34,5.34,0,0,1,102,36q-.59.9-1.21,1.79-1.48,2.27-3,4.43t-2.94,4.46q-.81,1.33-1.55,2.75a12.07,12.07,0,0,0-1.08,2.89A7.37,7.37,0,0,0,92.12,54a3.3,3.3,0,0,0,.43,1.49,2.25,2.25,0,0,0,1.34,1A3.57,3.57,0,0,0,96,56.23l.09,0a.68.68,0,0,0,.67.09,4.52,4.52,0,0,0,1.47-.79q.83-.62,1.78-1.5t1.78-1.73q.83-.86,1.43-1.55t.81-.91q.76-.85,1.47-1.7t1.37-1.73q1.21-1.57,2.31-3.15T111.37,40l1-1.55q.51-.77,1-1.5a8.53,8.53,0,0,1,.8-1,1.36,1.36,0,0,1,1.07-.41,2.64,2.64,0,0,1,.89.23,1.65,1.65,0,0,0,.9.13,2.72,2.72,0,0,0,.42-.1,3.11,3.11,0,0,1,.49-.11.6.6,0,0,1,.33,0c.08,0,.06.16-.06.36a2.75,2.75,0,0,1-.83.91,10.47,10.47,0,0,0-1,.83q-1.87,1.89-3.76,4a23.84,23.84,0,0,0-3.17,4.37q-.46.77-.88,1.63t-.75,1.71a8.27,8.27,0,0,0-.46,1.69,4.93,4.93,0,0,0,0,1.69A1.94,1.94,0,0,0,108,54a2.38,2.38,0,0,0,1,.57,3.63,3.63,0,0,0,1.26.14,7,7,0,0,0,1.39-.21,10.25,10.25,0,0,0,3.68-2,30.43,30.43,0,0,0,3.06-3q.65-.74,1.31-1.56l.53-.68q-.1.35-.18.7a7.29,7.29,0,0,0-.12,2.65,2.79,2.79,0,0,0,1.27,2,3.07,3.07,0,0,0,1.29.56,5.18,5.18,0,0,0,3.3-.35,14.2,14.2,0,0,0,3.22-2A26.57,26.57,0,0,0,131.89,48l.87-.94c-.05.19-.1.38-.13.57a8.9,8.9,0,0,0-.13,1.3,4.47,4.47,0,0,0,.14,1.27,2.4,2.4,0,0,0,.54,1,1.75,1.75,0,0,0,1,.54,5.89,5.89,0,0,0,2.65-.15,10,10,0,0,0,2.6-1.09,13.32,13.32,0,0,0,3.38-3.07s-1.93,3.2-2.71,4.39-7.87,12-9,13.61q-.93,1.32-1.84,2.67a1.75,1.75,0,0,0-.51.63c-.1.21-.22.42-.33.62l-.65,1c-.42.55-.86,1.09-1.33,1.61l-1.95,2.1q-.49.53-1,1t-1,1l-.89.86-.89.86-1.15,1q-.56.49-1.14.94a12.88,12.88,0,0,1-1.81,1.13,11.4,11.4,0,0,1-2.32,1,3.76,3.76,0,0,1-2,.09q-.86-.23-.86-1.52a5.22,5.22,0,0,1,.58-2.53q.63-1.26,1.34-2.43,1.59-2.51,3.31-5a47.1,47.1,0,0,1,3.76-4.68q.39-.42,1.08-1.24A12.11,12.11,0,0,1,123,63.13a5.3,5.3,0,0,1,1.57-.94,1,1,0,0,1,1.28.38,2.28,2.28,0,0,1,.36,1.29,8.29,8.29,0,0,1-.14,1.39,3.56,3.56,0,0,1-.11.53,1.77,1.77,0,0,0-.07.58,1.05,1.05,0,0,0,.11.46q.1.18.44.14a1.38,1.38,0,0,0,1.11-.65q.43-.62.83-1.14.52-.72,1.08-1.43a5.17,5.17,0,0,0,.85-1.54,1.59,1.59,0,0,0,.09-.77,3.43,3.43,0,0,0-.21-.69,1.09,1.09,0,0,0-.5-.49,2.6,2.6,0,0,0-.76-.24,5.17,5.17,0,0,0-.88-.07h-.79a15.48,15.48,0,0,0-4.15,1,18.26,18.26,0,0,0-2.34,1.17,27.66,27.66,0,0,0-4.09,3q-1.92,1.69-3.67,3.5a29.56,29.56,0,0,0-3.13,3.85,34.58,34.58,0,0,0-2.45,4.2,18.12,18.12,0,0,0-1,2.53,11.35,11.35,0,0,0-.41,2.28,5.11,5.11,0,0,0,.28,2.15,2.7,2.7,0,0,0,1.43,1.52,5.21,5.21,0,0,0,2.18.49l1.95-.22a7.71,7.71,0,0,0,1.47-.5q.68-.32,1.4-.68a7,7,0,0,0,1.34-.79l1.27-1q2.12-1.71,4.09-3.62,1.17-1.13,2.31-2.27-.53.77-1.07,1.52-.74,1-1.51,2.07t-1.47,2.11c-.12.17-.25.39-.41.66a3.72,3.72,0,0,0-.35.78,1,1,0,0,0,0,.62q.09.25.62.24a4,4,0,0,0,.67,0l.95-.08.85-.1.44-.05.64-.17a4.3,4.3,0,0,0,.94-.2,2,2,0,0,0,.79-.56,12,12,0,0,0,1.45-1.94q.63-1,1.27-2l1.42-2.08q.72-1.05,1.37-2.08.83-1.33,1.63-2.68a12.43,12.43,0,0,1,1.94-2.48,8.59,8.59,0,0,1,2.89-1.71,5.92,5.92,0,0,1,.72-.22.59.59,0,0,1,.59.12.7.7,0,0,1,.17.41,3.28,3.28,0,0,0,.11.51,2.64,2.64,0,0,1-.1,1.72,9.13,9.13,0,0,1-.92,1.77A17.82,17.82,0,0,1,136,74.4q-.72.84-1.28,1.52a12.94,12.94,0,0,0-1.13,1.7,6.62,6.62,0,0,0-.71,1.81,3.48,3.48,0,0,0,0,1.66A2,2,0,0,0,134,82.31a4.22,4.22,0,0,0,2.23.37,6.89,6.89,0,0,0,2.09-.59,13.19,13.19,0,0,0,2.06-1.18,20,20,0,0,0,1.82-1.42,43.7,43.7,0,0,0,5.45-5.95q.84-1,1.61-2.08l.21-.31,1.3-1.6,2.32-2.85q.61-.73,1.16-1.48t1.16-1.48q.34-.42.66-.76t.66-.76a3.87,3.87,0,0,1,.41-.62,2.39,2.39,0,0,1,.54-.54,31.11,31.11,0,0,1-1.35,4.4q-.86,2.21-1.63,4.34-.57,1.58-1.26,3.18a19.49,19.49,0,0,1-1.26,2.42,19.17,19.17,0,0,0-5.22.23,4,4,0,0,0-1.14.44,3.19,3.19,0,0,0-.49.31A4.69,4.69,0,0,0,144,77.91a2.76,2.76,0,0,0-.35,1.77,1.68,1.68,0,0,0,.36.84,2,2,0,0,0,.66.52,2.69,2.69,0,0,0,.86.26l.95.1h0a8.22,8.22,0,0,0,3.58-.67,14.14,14.14,0,0,0,3.3-2A18.18,18.18,0,0,0,155,77.39c.54,0,1.07,0,1.61,0l1.76-.16a15.82,15.82,0,0,0,1.76-.21l1.75-.32.88-.16.86-.24A27.35,27.35,0,0,0,167,75.21l1.69-.64,1.64-.79c.54-.28,1.11-.5,1.63-.83l1.57-.94.78-.47.75-.54,1.49-1.08c.5-.35.94-.79,1.41-1.18s.94-.79,1.38-1.23a35.11,35.11,0,0,0,4.72-5.69c.34-.52.69-1,1-1.56l.86-1.64a29.5,29.5,0,0,0,1.49-3.38,14.73,14.73,0,0,0,.58-1.78l.52-1.81c.12-.57.21-1.13.32-1.7l.16-.85.08-.42v-.05l0-.11ZM150,78.27a5.59,5.59,0,0,1-1.14.91,3.67,3.67,0,0,1-1,.35c-2.19.32-2.16-1-1.83-1.52a1.79,1.79,0,0,1,.92-.55,16.88,16.88,0,0,1,4-.3A11.35,11.35,0,0,1,150,78.27ZM185.8,48.74l-.15.85c-.1.56-.2,1.14-.31,1.69l-.44,1.52a11.8,11.8,0,0,1-.49,1.52,26,26,0,0,1-1.31,3l-.75,1.47c-.28.48-.59.93-.88,1.4a31.63,31.63,0,0,1-4.16,5.19c-.39.4-.82.76-1.23,1.14s-.81.78-1.25,1.11l-1.33,1-.67.51-.71.45-1.41.9c-.46.32-1,.54-1.46.81l-1.48.78-1.54.65a35.27,35.27,0,0,1-6.37,2,14.42,14.42,0,0,1-1.64.29l-1.41.21a18.85,18.85,0,0,0,1.61-2.5,25.71,25.71,0,0,0,1.77-4.14q.67-2.07,1.3-4.23.39-1.33.76-2.65t.86-2.66a8.73,8.73,0,0,1,.48-1.05l.58-1.06a2.3,2.3,0,0,1,.19-.38q.18-.33.34-.68l.29-.65q.13-.3.08-.29a4.14,4.14,0,0,0-1,.23,6.34,6.34,0,0,1-1,.28c-.43.08-1.38.1-1.78.13a4.22,4.22,0,0,0-1.26.31,3.19,3.19,0,0,0-1.06.67,10.6,10.6,0,0,0-.86,1q-1.06,1.31-2,2.63t-2,2.62l-2.36,3c-.13.16-7,9.15-7.54,9.74a15.71,15.71,0,0,1-1.54,1.62c-.17.16-.44.35-.79.61a7.09,7.09,0,0,1-1.09.67,4.47,4.47,0,0,1-1.05.38.66.66,0,0,1-.74-.25A.76.76,0,0,1,139,78a3,3,0,0,1,.3-.72,8,8,0,0,1,.47-.74q.26-.36.43-.57.68-.88,1.41-1.8a18.36,18.36,0,0,0,1.32-1.88,6.73,6.73,0,0,0,.82-1.95,3.68,3.68,0,0,0-.08-2,3.18,3.18,0,0,0-1.76-2.05,4.67,4.67,0,0,0-2.93-.16,3.51,3.51,0,0,1,.35-.3l.34-.25q.84-.67,1.62-1.35t1.61-1.3a10,10,0,0,1,1.4-.87,2.19,2.19,0,0,1,1.47-.22,3,3,0,0,1,1,.55,1.62,1.62,0,0,0,1.14.34,2.06,2.06,0,0,0,1.44-.62,7.82,7.82,0,0,0,1.13-1.29,8.19,8.19,0,0,0,.7-1.31,3.27,3.27,0,0,0,.29-1.29,1.24,1.24,0,0,0-.39-1,1.81,1.81,0,0,0-1.26-.35,4.73,4.73,0,0,0-1.82.4,10,10,0,0,0-1.77,1q-.86.6-1.69,1.28T143,60.92q-.69.6-1.38,1.15l-1.38,1.11-.79.64-.79.64-.45.38-.45.38q-.43.38-.87.72a8.51,8.51,0,0,0-.88.77,4.88,4.88,0,0,0,1-1.39,10.53,10.53,0,0,1,.84-1.47q.52-.77,1-1.49t1-1.49c1-1.47,14.21-21.7,14.85-22.7l1.93-3,2.21-3.4,1.1-1.6,1.1-1.6a5.48,5.48,0,0,0,.73-1.28,4.91,4.91,0,0,0,.35-1.37q.06-.62-.21-.78a1.28,1.28,0,0,0-.86,0q-.93.21-1.81.31t-1.75.26a3,3,0,0,0-1,.39,1.84,1.84,0,0,0-.67.91,16.23,16.23,0,0,1-1.73,3.63Q153,32.32,151.88,34t-2.44,3.57q-1.26,1.77-2.53,3.49-.78,1-1.54,1.94l-2.24,2.53a10.73,10.73,0,0,1-2.59,2.14,3.42,3.42,0,0,1-1.17.45,1.47,1.47,0,0,1-.9-.08.75.75,0,0,1-.39-.64,2.42,2.42,0,0,1,.31-1.23,10,10,0,0,1,1.08-1.89q.64-.88,1.26-1.77l1.36-2.09q.68-1.06,1.41-2.09,1.36-2.11,2.77-4.16l2.81-4.12q.46-.72.94-1.44a1.94,1.94,0,0,0,.32-1.51q-.13-.65-.65-.68a3.67,3.67,0,0,0-1.16.14,6.18,6.18,0,0,1-1.33.11,4.83,4.83,0,0,0-1.34.16,2.15,2.15,0,0,0-1,.54,3.32,3.32,0,0,0-.61.86,10.51,10.51,0,0,0-.44,1,9,9,0,0,1-.43,1q-1,1.78-2.12,3.46T139,37l-2,2.83-.75.95q-1.13,1.44-2.33,2.87-1,1.21-2,2.41a10.64,10.64,0,0,1-2.39,2,4.29,4.29,0,0,1-1.4.6,1.48,1.48,0,0,1-1-.11,1.19,1.19,0,0,1-.54-.79,2.41,2.41,0,0,1,.19-1.4,9.67,9.67,0,0,1,1-2.11q.63-1,1.35-2,2.83-3.86,5.43-7.73l5.24-7.81L144.35,20l2.44-.51h.05l.08,0a33.86,33.86,0,0,1,6.46-1.32,32.28,32.28,0,0,1,6.51,0l.84.08.78.11.78.11.79.15c.53.09,1,.21,1.56.34s1,.27,1.54.42A30,30,0,0,1,172,21.77,28,28,0,0,1,181.35,30a25.71,25.71,0,0,1,4.54,11.6,26.56,26.56,0,0,1,0,6.39l0,.32Z" transform="translate(-9.58 -8.01)"/></g><g id="_Group_5" data-name="&lt;Group&gt;"><path id="_Compound_Path_10" data-name="&lt;Compound Path&gt;" class="cls-4" d="M89,71.74a15.12,15.12,0,0,0,3.87-5.25,13.15,13.15,0,0,0,.92-3,8.74,8.74,0,0,0,.09-2.93,4.69,4.69,0,0,0-1-2.32,3.51,3.51,0,0,0-2.39-1.16.9.9,0,0,0-.31,0,1,1,0,0,1-.4-.07,7,7,0,0,0-2.32.14,18.64,18.64,0,0,0-2.94.82A23.8,23.8,0,0,0,82.25,59q-1.14.59-2.19,1.27a19.66,19.66,0,0,0-1.85,1.38q-.9.76-1.74,1.55A21.26,21.26,0,0,0,74,66.29a22,22,0,0,0-1.86,3.34A16.55,16.55,0,0,0,71,73.08a10.91,10.91,0,0,0-.19,3.32q.13,1.25.24,2.5t.29,2.49q.37,2.2.79,4.42A12.18,12.18,0,0,1,72,90.51a15,15,0,0,1-1.13,3.4,16.42,16.42,0,0,1-1.71,2.93A27.92,27.92,0,0,1,67,99.53,20.18,20.18,0,0,1,65.51,101q-.79.7-1.59,1.3a14.6,14.6,0,0,1-3.1,1.7,13.11,13.11,0,0,1-3.21.85,10.78,10.78,0,0,1-3.06,0,6.09,6.09,0,0,1-2.57-1,13,13,0,0,1-1.74-1.39A4.9,4.9,0,0,1,49,100.57a6.64,6.64,0,0,1-.42-1.64c.67-.12,1.32-.25,1.95-.39A35.9,35.9,0,0,0,57.73,96h0a20.85,20.85,0,0,0,5.6-3.41,12.16,12.16,0,0,0,1.36-1.13c.44-.43.85-.88,1.26-1.35l.19-.22a14.93,14.93,0,0,0,2.07-3.5,11.56,11.56,0,0,0,1-3.73,5,5,0,0,0-.68-3.06A3.71,3.71,0,0,0,65.68,78a6.73,6.73,0,0,0-2,0,11.59,11.59,0,0,0-2,.51,29.19,29.19,0,0,0-6.35,3.19,28.85,28.85,0,0,0-4.58,3.85,30,30,0,0,0-3.86,4.85,24.32,24.32,0,0,0-2.54,5.21c-.14.4-.25.8-.35,1.2l-2.21-.09a31.43,31.43,0,0,1-9.4-1.94,29.22,29.22,0,0,1-9-5.38,26.26,26.26,0,0,1-6.6-8.94,25.47,25.47,0,0,1-2.2-11.4,27.32,27.32,0,0,1,.85-5.93,28,28,0,0,1,2.13-5.64,31.86,31.86,0,0,1,7.26-9.37,34.63,34.63,0,0,1,9.42-6,34.28,34.28,0,0,1,9.59-2.52c1.23-.13,2.43-.2,3.57-.21,0,0,0,.05,0,.08a17.24,17.24,0,0,0,.22,2.4,5.59,5.59,0,0,0,1.67,3.23,5.28,5.28,0,0,0,3.43,1.4,8.58,8.58,0,0,0,3.76-.66c.58-.23,1.15-.49,1.71-.75,1.72-.89,3-1.83,3.41-2.89a2,2,0,0,0,.15-.74h0a1.56,1.56,0,0,0-.28-.88h0a2.94,2.94,0,0,0-1-.9,5.78,5.78,0,0,0-.67-.32l-.62-.24a33.13,33.13,0,0,0-5.52-1.61c0-.25,0-.49.08-.75a12.61,12.61,0,0,1,.76-2.75,18.94,18.94,0,0,1,1.13-2.39,32.22,32.22,0,0,1,4.83-6.54,27.77,27.77,0,0,1,6.41-5.12q.87-.53,1.75-1l1.85-1q1-.5,2.08-.91t2.16-.78a30.43,30.43,0,0,1,7.23-1.29,13.84,13.84,0,0,1,6.64,1.21,6.49,6.49,0,0,1,3.31,3.34A13.44,13.44,0,0,1,93,24.55a24.1,24.1,0,0,1-.8,7.28,42.33,42.33,0,0,1-2.62,7.26l-.93,1.87q-.45.91-.93,1.82a46.36,46.36,0,0,1-4.27,6.5A39.54,39.54,0,0,1,78,54.91a12.44,12.44,0,0,1-2.75,1.83,16.15,16.15,0,0,1-6.13,1.61,17.2,17.2,0,0,1-3-.07q-.8-.14-1.66-.23a8.8,8.8,0,0,1-1.65-.33,4,4,0,0,1-.86-.23.73.73,0,0,1-.54-.55.93.93,0,0,1,.34-.8l.71-.66a44.05,44.05,0,0,0,4.36-4.73,54.81,54.81,0,0,0,3.69-5.22q.74-1.18,1.44-2.38t1.44-2.43q1.21-2,2.4-4.11t2.48-4.12q1.29-2.05,2.68-4a42.28,42.28,0,0,1,3-3.78q.92-1.06,1.86-2a6.54,6.54,0,0,1,2.24-1.5l.8-.33a4.08,4.08,0,0,0,.89-.49,1.42,1.42,0,0,0,.52-.63.67.67,0,0,0-.26-.73A1.51,1.51,0,0,0,89,18.7a6.12,6.12,0,0,0-1.47.27q-.77.23-1.52.54T84.87,20a23.31,23.31,0,0,0-5.62,3.43,42.5,42.5,0,0,0-3.68,3.46q-1.69,1.8-3.28,3.79a37.18,37.18,0,0,0-2.75,3.78Q68.31,36.38,67,38.34q-1.47,2.22-3,4.39t-2.82,4.43q-1,1.69-2.09,3.39a27.23,27.23,0,0,1-2.36,3.23,7.27,7.27,0,0,1-1.92,1.7,3.13,3.13,0,0,1-2.25.17,7.16,7.16,0,0,0-1.42-.16H49.7q-1.29-.08-2.59,0t-2.65.15a25.52,25.52,0,0,0-2.66.48,13.11,13.11,0,0,0-2.89,1,8.19,8.19,0,0,0-2.38,1.76,3.9,3.9,0,0,0-1.05,2.6,2.51,2.51,0,0,0,.28,1.25,2.31,2.31,0,0,0,.8.9,5.63,5.63,0,0,0,2.51,1,13.81,13.81,0,0,0,2.89.13l.19,0q1.69-.11,3.44-.36a19.76,19.76,0,0,0,3.49-.84,15.11,15.11,0,0,0,2.62-1.26,8,8,0,0,1,2.65-1,6.18,6.18,0,0,1,2.73.08,16.56,16.56,0,0,0,2.64.47,39.42,39.42,0,0,0,4.66.13,29.43,29.43,0,0,0,4.83-.55,37.58,37.58,0,0,0,11.1-4.22,38.64,38.64,0,0,0,9.62-7.71q.44-.53.89-1a8.82,8.82,0,0,0,.85-1.05q1.38-1.83,2.55-3.66a32.9,32.9,0,0,0,2.08-3.79,28.9,28.9,0,0,0,2.44-7.33,30.06,30.06,0,0,0,.47-7.28,17.82,17.82,0,0,0-.68-4,10.73,10.73,0,0,0-1.74-3.45,14.7,14.7,0,0,0-1.31-1.51,10,10,0,0,0-1.57-1.29,11.74,11.74,0,0,0-3.33-1.46,20.75,20.75,0,0,0-3.75-.6q-2.37-.24-4.74-.29a21.11,21.11,0,0,0-4.87.49,50.13,50.13,0,0,0-6.71,2.08A52,52,0,0,0,64,18.35a31.53,31.53,0,0,0-4.89,3.32,42.69,42.69,0,0,0-4.3,4.1,54.11,54.11,0,0,0-4.25,5.36A19.13,19.13,0,0,0,47.75,37c-.51,0-1,0-1.57,0L45,37l-1.22.09a37,37,0,0,0-10.44,2.49A36.16,36.16,0,0,0,22.9,45.93a34.56,34.56,0,0,0-8.16,10.34,31.49,31.49,0,0,0-2.41,6.32,30.41,30.41,0,0,0-1,6.66,28.27,28.27,0,0,0,10,22.61,30.69,30.69,0,0,0,10,5.7,34.13,34.13,0,0,0,10.3,1.86c.42,0,.79,0,1.19,0h.9a10,10,0,0,0,0,1.27,8.26,8.26,0,0,0,1.44,4,6.82,6.82,0,0,0,3.47,2.37,10.35,10.35,0,0,0,1.8.41,17.71,17.71,0,0,0,1.95.16,14.77,14.77,0,0,0,2-.09,21.78,21.78,0,0,0,4.38-.89,32.86,32.86,0,0,0,4.62-1.8,33.52,33.52,0,0,0,4.4-2.53,25.08,25.08,0,0,0,3.81-3.16,40.92,40.92,0,0,0,3.44-4.08,18.54,18.54,0,0,0,2.51-4.49A16.51,16.51,0,0,0,78.76,85a35.08,35.08,0,0,0-.28-5.34,19.49,19.49,0,0,0-.34-2q-.22-1-.4-2-.32-1.74-.53-3.54a10.52,10.52,0,0,1,.3-3.82,12.1,12.1,0,0,1,1-2.56A16,16,0,0,1,80,63.25a11,11,0,0,1,1.71-1.73,10.06,10.06,0,0,1,2.08-1.33A6.8,6.8,0,0,1,86,59.55a4.2,4.2,0,0,1,2,.24,2.44,2.44,0,0,1,1.21,1,4.08,4.08,0,0,1,.52,1.6,7.61,7.61,0,0,1,0,1.87,10.75,10.75,0,0,1-.4,1.84,12.77,12.77,0,0,1-2.2,4.17A8.55,8.55,0,0,1,85.33,72a5,5,0,0,1-2.18.87,4,4,0,0,0-.78.16q-.34.11-.4.68t.18.66a1.39,1.39,0,0,0,.68.2,3.33,3.33,0,0,0,.88-.08,5.92,5.92,0,0,0,.84-.23,10.14,10.14,0,0,0,2.32-1A11.9,11.9,0,0,0,89,71.74ZM48.81,60a9.46,9.46,0,0,1-1.53.71q-.87.32-1.68.53t-1,.23a6,6,0,0,1-1.07.13q-.77,0-1.64.05a2.22,2.22,0,0,1-1.44-.45A1.13,1.13,0,0,1,40.13,60a1.93,1.93,0,0,1,.89-1.2,3.74,3.74,0,0,1,2-.62,10.37,10.37,0,0,1,2,.1l.85.18,1.41.31,1.46.3a1.38,1.38,0,0,0,.38.05q.29,0,.32.15Q49.47,59.65,48.81,60ZM58.3,41.21l.61.21.4.17-.31.09a7.5,7.5,0,0,1-2.13.23A3.65,3.65,0,0,1,55,41.3a2.68,2.68,0,0,1-1-1.25A31.11,31.11,0,0,1,58.3,41.21Zm-9.81,55.3a15.8,15.8,0,0,1,1.6-5.23,27.58,27.58,0,0,1,3.15-5,16.24,16.24,0,0,1,2.4-2.39A13.86,13.86,0,0,1,58.49,82a8.56,8.56,0,0,1,3-.82,4.48,4.48,0,0,1,2.68.59,2.46,2.46,0,0,1,1.14,1.63,5.82,5.82,0,0,1,0,2.34,11.17,11.17,0,0,1-.8,2.51,11.57,11.57,0,0,1-4.67,4.83c-1.12.57-2.53,1.27-3.42,1.63a34.62,34.62,0,0,1-6.28,1.81c-.53.1-1.08.17-1.64.23C48.48,96.69,48.48,96.6,48.49,96.51Z" transform="translate(-9.58 -8.01)"/><path id="_Compound_Path_11" data-name="&lt;Compound Path&gt;" class="cls-4" d="M110.21,67.25a4.28,4.28,0,0,0-.45-3.18,2.78,2.78,0,0,0-1.67-1.33,7.16,7.16,0,0,0-2.63-.08,11.5,11.5,0,0,0-2.43.66,19.38,19.38,0,0,0-2.39,1.13,25.71,25.71,0,0,0-2.3,1.45q-1.12.79-2.13,1.62-1.64,1.33-3.31,2.89a30,30,0,0,0-5.05,6.32,16.63,16.63,0,0,0-1.55,3.4,19.93,19.93,0,0,0-.61,1.94A10.15,10.15,0,0,0,85.37,84a3.12,3.12,0,0,0,.95,2.6,4.52,4.52,0,0,0,2.5,1.18,4,4,0,0,0,1.17.08,10.16,10.16,0,0,0,1.2-.16,17.94,17.94,0,0,0,4.48-1.79,37,37,0,0,0,4.2-2.71,27.09,27.09,0,0,0,5.56-5.71,29.15,29.15,0,0,0,3.71-6.78A24.37,24.37,0,0,0,110.21,67.25Zm-4.85,1.65-1,2q-.79,1.47-1.66,2.94t-1.84,2.87q-.4.57-.78,1.13T99.3,79a38.21,38.21,0,0,1-2.75,3.26,12.57,12.57,0,0,1-3.39,2.57q-.61.31-1.11.51a3.36,3.36,0,0,1-1.12.13A1.12,1.12,0,0,1,90,85a2,2,0,0,1-.11-1.74,12.79,12.79,0,0,1,.72-1.84q.75-1.51,1.6-3T94,75.51q1.1-1.64,2.34-3.26A38.94,38.94,0,0,1,99,69.15a18.9,18.9,0,0,1,1.41-1.42Q101.2,67,102,66.3a14.81,14.81,0,0,1,1.53-1.22,2.32,2.32,0,0,1,1.74-.48,1,1,0,0,1,.79.88,3.65,3.65,0,0,1,0,1.35A9.11,9.11,0,0,1,105.36,68.9Z" transform="translate(-9.58 -8.01)"/><path id="_Compound_Path_12" data-name="&lt;Compound Path&gt;" class="cls-4" d="M189.14,48.49v-.11l0-.23a29.78,29.78,0,0,0-.07-7.18A28.69,28.69,0,0,0,184,28a30.8,30.8,0,0,0-10.32-9,32.89,32.89,0,0,0-6.42-2.61c-.56-.16-1.12-.32-1.69-.44s-1.14-.26-1.72-.35l-.86-.15-.89-.11-.89-.11-.84-.06a35.27,35.27,0,0,0-7.08.15,36.84,36.84,0,0,0-6.58,1.42c.45-.68.89-1.35,1.35-2a13,13,0,0,0,1.26-2.24q.24-.5.52-1.13a1.33,1.33,0,0,0,.08-1.08.92.92,0,0,0-1.05-.52,11.24,11.24,0,0,0-1.32.28,4.08,4.08,0,0,1-1.07.18q-.58,0-1.16.09a6.88,6.88,0,0,0-1.13.23,2.77,2.77,0,0,0-1,.49,3,3,0,0,0-.63.81,10.85,10.85,0,0,0-.48,1q-.22.53-.42,1t-.38.93q-.54,1.06-1.14,2.09l-.94,1.56-10.67,2.43-4.46,1-4.45,1-1.11.23-1.08.19c-.73.11-1.45.21-2.17.26-.41,0-.81,0-1.2,0,.12-.1.24-.19.35-.3a5.39,5.39,0,0,0,.94-1.21,5.86,5.86,0,0,0,.57-1.35,3.24,3.24,0,0,0,.11-1.3,1.55,1.55,0,0,0-1.93-1.29,3.52,3.52,0,0,0-1.91.85,6.9,6.9,0,0,0-1.34,1.4A5.14,5.14,0,0,0,110,22a2.1,2.1,0,0,0,.07,1.49,1.74,1.74,0,0,0,.33.45l-.07,0c0,.09.08.15.15.25a2.71,2.71,0,0,0,.36.4l.33.24.34.17a5.28,5.28,0,0,0,1.29.36,12.62,12.62,0,0,0,2.43.11c.79,0,1.57-.1,2.35-.2l1.17-.17,1.13-.2,4.51-.87,4.49-.89c2.76-.56,5.52-1.11,8.27-1.68l-5.09,6.85q-2.64,3.41-5.09,7t-4.5,7q-.75,1-1.49,2A35.62,35.62,0,0,1,117.9,48l-.83.84a7.57,7.57,0,0,1-1,.83,5.64,5.64,0,0,1-1,.6,1.86,1.86,0,0,1-1,.15q-.52-.08-.48-.7a5.45,5.45,0,0,1,.31-1.42,12.74,12.74,0,0,1,.63-1.53,10.94,10.94,0,0,1,.53-1q.47-.91,1-1.83t1.17-1.85q2-3.09,4.41-6.18l1.2-1.45q.6-.71,1.25-1.46.44-.53,1.08-1.2a2.63,2.63,0,0,0,.76-1.35q.12-.68-.35-.81a1.58,1.58,0,0,0-1,.07,24.92,24.92,0,0,1-3.71,1.16,4.61,4.61,0,0,1-3.4-.5,1,1,0,0,0-1.22,0,4.41,4.41,0,0,0-1,1.11q-1,1.45-1.78,2.95a32.69,32.69,0,0,1-1.83,3q-.8,1.14-1.56,2.25c-.11,0-2.91,4.08-3.39,4.68s-1.13,1.46-1.69,2.22-1,1.34-1.52,2l-.62.69-1,1.09q-.26.3-.54.58c-.35.34-.71.66-1.08,1a7.78,7.78,0,0,1-.77.54,2.66,2.66,0,0,1-1.26.41c-.39,0-.63-.05-.71-.3a1.61,1.61,0,0,1,.05-1,6.76,6.76,0,0,1,.59-1.35q.41-.74.84-1.43t.8-1.24q.37-.54.48-.75,1.54-2.42,3.11-4.75t3.2-4.66q.34-.51.84-1.17t.92-1.3a8.06,8.06,0,0,0,.71-1.32,3.58,3.58,0,0,0,.3-1.3.74.74,0,0,0-.27-.66,1.3,1.3,0,0,0-.65-.21,3.46,3.46,0,0,0-.82.05q-.44.08-.78.16l-1.79.36a3.23,3.23,0,0,0-1.69.82,1.49,1.49,0,0,0-.38.64c-.07.25-.14.48-.19.71A5.34,5.34,0,0,1,102,36q-.59.9-1.21,1.79-1.48,2.27-3,4.43t-2.94,4.46q-.81,1.33-1.55,2.75a12.07,12.07,0,0,0-1.08,2.89A7.37,7.37,0,0,0,92.12,54a3.3,3.3,0,0,0,.43,1.49,2.25,2.25,0,0,0,1.34,1A3.57,3.57,0,0,0,96,56.23l.09,0a.68.68,0,0,0,.67.09,4.52,4.52,0,0,0,1.47-.79q.83-.62,1.78-1.5t1.78-1.73q.83-.86,1.43-1.55t.81-.91q.76-.85,1.47-1.7t1.37-1.73q1.21-1.57,2.31-3.15T111.37,40l1-1.55q.51-.77,1-1.5a8.53,8.53,0,0,1,.8-1,1.36,1.36,0,0,1,1.07-.41,2.64,2.64,0,0,1,.89.23,1.65,1.65,0,0,0,.9.13,2.72,2.72,0,0,0,.42-.1,3.11,3.11,0,0,1,.49-.11.6.6,0,0,1,.33,0c.08,0,.06.16-.06.36a2.75,2.75,0,0,1-.83.91,10.47,10.47,0,0,0-1,.83q-1.87,1.89-3.76,4a23.84,23.84,0,0,0-3.17,4.37q-.46.77-.88,1.63t-.75,1.71a8.27,8.27,0,0,0-.46,1.69,4.93,4.93,0,0,0,0,1.69A1.94,1.94,0,0,0,108,54a2.38,2.38,0,0,0,1,.57,3.63,3.63,0,0,0,1.26.14,7,7,0,0,0,1.39-.21,10.25,10.25,0,0,0,3.68-2,30.43,30.43,0,0,0,3.06-3q.65-.74,1.31-1.56l.53-.68q-.1.35-.18.7a7.29,7.29,0,0,0-.12,2.65,2.79,2.79,0,0,0,1.27,2,3.07,3.07,0,0,0,1.29.56,5.18,5.18,0,0,0,3.3-.35,14.2,14.2,0,0,0,3.22-2A26.57,26.57,0,0,0,131.89,48l.87-.94c-.05.19-.1.38-.13.57a8.9,8.9,0,0,0-.13,1.3,4.47,4.47,0,0,0,.14,1.27,2.4,2.4,0,0,0,.54,1,1.75,1.75,0,0,0,1,.54,5.89,5.89,0,0,0,2.65-.15,10,10,0,0,0,2.6-1.09,13.32,13.32,0,0,0,3.38-3.07s-1.93,3.2-2.71,4.39-7.87,12-9,13.61q-.93,1.32-1.84,2.67a1.75,1.75,0,0,0-.51.63c-.1.21-.22.42-.33.62l-.65,1c-.42.55-.86,1.09-1.33,1.61l-1.95,2.1q-.49.53-1,1t-1,1l-.89.86-.89.86-1.15,1q-.56.49-1.14.94a12.88,12.88,0,0,1-1.81,1.13,11.4,11.4,0,0,1-2.32,1,3.76,3.76,0,0,1-2,.09q-.86-.23-.86-1.52a5.22,5.22,0,0,1,.58-2.53q.63-1.26,1.34-2.43,1.59-2.51,3.31-5a47.1,47.1,0,0,1,3.76-4.68q.39-.42,1.08-1.24A12.11,12.11,0,0,1,123,63.13a5.3,5.3,0,0,1,1.57-.94,1,1,0,0,1,1.28.38,2.28,2.28,0,0,1,.36,1.29,8.29,8.29,0,0,1-.14,1.39,3.56,3.56,0,0,1-.11.53,1.77,1.77,0,0,0-.07.58,1.05,1.05,0,0,0,.11.46q.1.18.44.14a1.38,1.38,0,0,0,1.11-.65q.43-.62.83-1.14.52-.72,1.08-1.43a5.17,5.17,0,0,0,.85-1.54,1.59,1.59,0,0,0,.09-.77,3.43,3.43,0,0,0-.21-.69,1.09,1.09,0,0,0-.5-.49,2.6,2.6,0,0,0-.76-.24,5.17,5.17,0,0,0-.88-.07h-.79a15.48,15.48,0,0,0-4.15,1,18.26,18.26,0,0,0-2.34,1.17,27.66,27.66,0,0,0-4.09,3q-1.92,1.69-3.67,3.5a29.56,29.56,0,0,0-3.13,3.85,34.58,34.58,0,0,0-2.45,4.2,18.12,18.12,0,0,0-1,2.53,11.35,11.35,0,0,0-.41,2.28,5.11,5.11,0,0,0,.28,2.15,2.7,2.7,0,0,0,1.43,1.52,5.21,5.21,0,0,0,2.18.49l1.95-.22a7.71,7.71,0,0,0,1.47-.5q.68-.32,1.4-.68a7,7,0,0,0,1.34-.79l1.27-1q2.12-1.71,4.09-3.62,1.17-1.13,2.31-2.27-.53.77-1.07,1.52-.74,1-1.51,2.07t-1.47,2.11c-.12.17-.25.39-.41.66a3.72,3.72,0,0,0-.35.78,1,1,0,0,0,0,.62q.09.25.62.24a4,4,0,0,0,.67,0l.95-.08.85-.1.44-.05.64-.17a4.3,4.3,0,0,0,.94-.2,2,2,0,0,0,.79-.56,12,12,0,0,0,1.45-1.94q.63-1,1.27-2l1.42-2.08q.72-1.05,1.37-2.08.83-1.33,1.63-2.68a12.43,12.43,0,0,1,1.94-2.48,8.59,8.59,0,0,1,2.89-1.71,5.92,5.92,0,0,1,.72-.22.59.59,0,0,1,.59.12.7.7,0,0,1,.17.41,3.28,3.28,0,0,0,.11.51,2.64,2.64,0,0,1-.1,1.72,9.13,9.13,0,0,1-.92,1.77A17.82,17.82,0,0,1,136,74.4q-.72.84-1.28,1.52a12.94,12.94,0,0,0-1.13,1.7,6.62,6.62,0,0,0-.71,1.81,3.48,3.48,0,0,0,0,1.66A2,2,0,0,0,134,82.31a4.22,4.22,0,0,0,2.23.37,6.89,6.89,0,0,0,2.09-.59,13.19,13.19,0,0,0,2.06-1.18,20,20,0,0,0,1.82-1.42,43.7,43.7,0,0,0,5.45-5.95q.84-1,1.61-2.08l.21-.31,1.3-1.6,2.32-2.85q.61-.73,1.16-1.48t1.16-1.48q.34-.42.66-.76t.66-.76a3.87,3.87,0,0,1,.41-.62,2.39,2.39,0,0,1,.54-.54,31.11,31.11,0,0,1-1.35,4.4q-.86,2.21-1.63,4.34-.57,1.58-1.26,3.18a19.49,19.49,0,0,1-1.26,2.42,19.17,19.17,0,0,0-5.22.23,4,4,0,0,0-1.14.44,3.19,3.19,0,0,0-.49.31A4.69,4.69,0,0,0,144,77.91a2.76,2.76,0,0,0-.35,1.77,1.68,1.68,0,0,0,.36.84,2,2,0,0,0,.66.52,2.69,2.69,0,0,0,.86.26l.95.1h0a8.22,8.22,0,0,0,3.58-.67,14.14,14.14,0,0,0,3.3-2A18.18,18.18,0,0,0,155,77.39c.54,0,1.07,0,1.61,0l1.76-.16a15.82,15.82,0,0,0,1.76-.21l1.75-.32.88-.16.86-.24A27.35,27.35,0,0,0,167,75.21l1.69-.64,1.64-.79c.54-.28,1.11-.5,1.63-.83l1.57-.94.78-.47.75-.54,1.49-1.08c.5-.35.94-.79,1.41-1.18s.94-.79,1.38-1.23a35.11,35.11,0,0,0,4.72-5.69c.34-.52.69-1,1-1.56l.86-1.64a29.5,29.5,0,0,0,1.49-3.38,14.73,14.73,0,0,0,.58-1.78l.52-1.81c.12-.57.21-1.13.32-1.7l.16-.85.08-.42v-.05l0-.11ZM150,78.27a5.59,5.59,0,0,1-1.14.91,3.67,3.67,0,0,1-1,.35c-2.19.32-2.16-1-1.83-1.52a1.79,1.79,0,0,1,.92-.55,16.88,16.88,0,0,1,4-.3A11.35,11.35,0,0,1,150,78.27ZM185.8,48.74l-.15.85c-.1.56-.2,1.14-.31,1.69l-.44,1.52a11.8,11.8,0,0,1-.49,1.52,26,26,0,0,1-1.31,3l-.75,1.47c-.28.48-.59.93-.88,1.4a31.63,31.63,0,0,1-4.16,5.19c-.39.4-.82.76-1.23,1.14s-.81.78-1.25,1.11l-1.33,1-.67.51-.71.45-1.41.9c-.46.32-1,.54-1.46.81l-1.48.78-1.54.65a35.27,35.27,0,0,1-6.37,2,14.42,14.42,0,0,1-1.64.29l-1.41.21a18.85,18.85,0,0,0,1.61-2.5,25.71,25.71,0,0,0,1.77-4.14q.67-2.07,1.3-4.23.39-1.33.76-2.65t.86-2.66a8.73,8.73,0,0,1,.48-1.05l.58-1.06a2.3,2.3,0,0,1,.19-.38q.18-.33.34-.68l.29-.65q.13-.3.08-.29a4.14,4.14,0,0,0-1,.23,6.34,6.34,0,0,1-1,.28c-.43.08-1.38.1-1.78.13a4.22,4.22,0,0,0-1.26.31,3.19,3.19,0,0,0-1.06.67,10.6,10.6,0,0,0-.86,1q-1.06,1.31-2,2.63t-2,2.62l-2.36,3c-.13.16-7,9.15-7.54,9.74a15.71,15.71,0,0,1-1.54,1.62c-.17.16-.44.35-.79.61a7.09,7.09,0,0,1-1.09.67,4.47,4.47,0,0,1-1.05.38.66.66,0,0,1-.74-.25A.76.76,0,0,1,139,78a3,3,0,0,1,.3-.72,8,8,0,0,1,.47-.74q.26-.36.43-.57.68-.88,1.41-1.8a18.36,18.36,0,0,0,1.32-1.88,6.73,6.73,0,0,0,.82-1.95,3.68,3.68,0,0,0-.08-2,3.18,3.18,0,0,0-1.76-2.05,4.67,4.67,0,0,0-2.93-.16,3.51,3.51,0,0,1,.35-.3l.34-.25q.84-.67,1.62-1.35t1.61-1.3a10,10,0,0,1,1.4-.87,2.19,2.19,0,0,1,1.47-.22,3,3,0,0,1,1,.55,1.62,1.62,0,0,0,1.14.34,2.06,2.06,0,0,0,1.44-.62,7.82,7.82,0,0,0,1.13-1.29,8.19,8.19,0,0,0,.7-1.31,3.27,3.27,0,0,0,.29-1.29,1.24,1.24,0,0,0-.39-1,1.81,1.81,0,0,0-1.26-.35,4.73,4.73,0,0,0-1.82.4,10,10,0,0,0-1.77,1q-.86.6-1.69,1.28T143,60.92q-.69.6-1.38,1.15l-1.38,1.11-.79.64-.79.64-.45.38-.45.38q-.43.38-.87.72a8.51,8.51,0,0,0-.88.77,4.88,4.88,0,0,0,1-1.39,10.53,10.53,0,0,1,.84-1.47q.52-.77,1-1.49t1-1.49c1-1.47,14.21-21.7,14.85-22.7l1.93-3,2.21-3.4,1.1-1.6,1.1-1.6a5.48,5.48,0,0,0,.73-1.28,4.91,4.91,0,0,0,.35-1.37q.06-.62-.21-.78a1.28,1.28,0,0,0-.86,0q-.93.21-1.81.31t-1.75.26a3,3,0,0,0-1,.39,1.84,1.84,0,0,0-.67.91,16.23,16.23,0,0,1-1.73,3.63Q153,32.32,151.88,34t-2.44,3.57q-1.26,1.77-2.53,3.49-.78,1-1.54,1.94l-2.24,2.53a10.73,10.73,0,0,1-2.59,2.14,3.42,3.42,0,0,1-1.17.45,1.47,1.47,0,0,1-.9-.08.75.75,0,0,1-.39-.64,2.42,2.42,0,0,1,.31-1.23,10,10,0,0,1,1.08-1.89q.64-.88,1.26-1.77l1.36-2.09q.68-1.06,1.41-2.09,1.36-2.11,2.77-4.16l2.81-4.12q.46-.72.94-1.44a1.94,1.94,0,0,0,.32-1.51q-.13-.65-.65-.68a3.67,3.67,0,0,0-1.16.14,6.18,6.18,0,0,1-1.33.11,4.83,4.83,0,0,0-1.34.16,2.15,2.15,0,0,0-1,.54,3.32,3.32,0,0,0-.61.86,10.51,10.51,0,0,0-.44,1,9,9,0,0,1-.43,1q-1,1.78-2.12,3.46T139,37l-2,2.83-.75.95q-1.13,1.44-2.33,2.87-1,1.21-2,2.41a10.64,10.64,0,0,1-2.39,2,4.29,4.29,0,0,1-1.4.6,1.48,1.48,0,0,1-1-.11,1.19,1.19,0,0,1-.54-.79,2.41,2.41,0,0,1,.19-1.4,9.67,9.67,0,0,1,1-2.11q.63-1,1.35-2,2.83-3.86,5.43-7.73l5.24-7.81L144.35,20l2.44-.51h.05l.08,0a33.86,33.86,0,0,1,6.46-1.32,32.28,32.28,0,0,1,6.51,0l.84.08.78.11.78.11.79.15c.53.09,1,.21,1.56.34s1,.27,1.54.42A30,30,0,0,1,172,21.77,28,28,0,0,1,181.35,30a25.71,25.71,0,0,1,4.54,11.6,26.56,26.56,0,0,1,0,6.39l0,.32Z" transform="translate(-9.58 -8.01)"/></g></g></svg>