<?xml version="1.0" encoding="utf-8"?>
<!-- Generator: Adobe Illustrator 17.0.0, SVG Export Plug-In . SVG Version: 6.00 Build 0)  -->
<!DOCTYPE svg PUBLIC "-//W3C//DTD SVG 1.1//EN" "http://www.w3.org/Graphics/SVG/1.1/DTD/svg11.dtd">
<svg version="1.1" id="Layer_1" xmlns="http://www.w3.org/2000/svg" xmlns:xlink="http://www.w3.org/1999/xlink" x="0px" y="0px"
	 width="612px" height="792px" viewBox="0 0 612 792" enable-background="new 0 0 612 792" xml:space="preserve">
<g id="XMLID_27_">
	<g>
		<g id="XMLID_103_">
			<path fill="#D7D9DD" d="M270.005,436.988c2.899-2.577,5.315-5.154,7.167-7.811c1.933-2.657,3.624-5.556,5.073-8.777
				c1.288-2.899,2.255-6.039,2.899-9.341c0.644-3.302,0.725-6.442,0.322-9.261c-0.403-2.818-1.449-5.315-3.141-7.328
				c-1.691-2.013-4.187-3.302-7.569-3.704c-0.161-0.081-0.483-0.081-0.966-0.081c-0.483,0-0.886-0.081-1.288-0.242
				c-1.772-0.322-4.187-0.161-7.328,0.403c-3.141,0.564-6.201,1.449-9.341,2.577c-2.416,0.966-4.832,2.013-7.247,3.302
				c-2.416,1.208-4.751,2.577-6.925,4.026c-2.013,1.288-3.946,2.738-5.878,4.348s-3.785,3.221-5.556,4.912
				c-2.979,2.979-5.637,6.201-7.972,9.663c-2.335,3.463-4.348,6.925-5.959,10.549c-1.611,3.543-2.818,7.167-3.543,10.871
				c-0.805,3.704-0.966,7.167-0.644,10.468c0.242,2.657,0.483,5.234,0.725,7.892c0.242,2.657,0.483,5.234,0.886,7.892
				c0.725,4.671,1.611,9.341,2.416,14.012c0.886,4.671,0.725,9.663-0.322,14.897c-0.805,3.704-2.013,7.328-3.624,10.71
				c-1.369,2.979-3.141,6.039-5.395,9.261c-2.255,3.141-4.59,5.959-6.925,8.536c-1.449,1.53-2.979,3.06-4.671,4.51
				c-1.691,1.449-3.382,2.818-5.073,4.107c-3.141,2.174-6.362,4.026-9.824,5.315c-3.463,1.369-6.845,2.255-10.146,2.657
				c-3.382,0.403-6.603,0.403-9.663-0.161c-3.141-0.483-5.798-1.53-8.133-3.221c-1.772-1.208-3.624-2.657-5.476-4.429
				c-1.852-1.772-3.221-3.704-4.026-5.798c-0.644-1.53-1.047-3.302-1.288-5.234c2.094-0.322,4.187-0.725,6.12-1.208
				c9.341-2.174,16.991-5.073,22.95-7.892l0,0c6.925-2.657,13.126-6.845,17.716-10.71c1.53-1.127,2.979-2.255,4.348-3.543
				c1.369-1.369,2.738-2.738,4.026-4.268c0.403-0.403,0.644-0.644,0.644-0.644c2.577-3.221,4.832-6.925,6.603-11.032
				s2.818-8.053,3.06-11.757c0.242-3.704-0.403-6.925-2.094-9.663c-1.691-2.738-4.671-4.429-8.858-4.993
				c-2.013-0.242-4.026-0.242-6.201,0.081c-2.174,0.322-4.268,0.886-6.362,1.611c-6.925,2.416-13.609,5.717-20.132,9.985
				c-4.993,3.302-9.824,7.328-14.495,12.159c-4.751,4.751-8.777,9.905-12.24,15.3c-3.463,5.395-6.12,10.871-8.053,16.427
				c-0.403,1.288-0.805,2.577-1.127,3.785c-2.255-0.081-4.59-0.161-7.006-0.322c-9.341-0.564-19.729-2.416-29.714-6.281
				c-9.985-3.785-19.809-9.502-28.426-17.152s-15.864-17.313-20.776-28.345s-7.328-23.433-6.845-36.076
				c0.242-6.442,1.127-12.562,2.738-18.763c1.611-6.12,3.865-12.159,6.764-17.796c5.798-11.354,13.851-21.42,23.031-29.553
				c9.261-8.133,19.487-14.414,29.875-18.763s20.695-6.845,30.358-7.811c3.865-0.403,7.65-0.564,11.274-0.644
				c0,0.081,0,0.161,0,0.242c0.081,2.818,0.242,5.315,0.644,7.569c0.644,4.107,2.416,7.569,5.234,10.227
				c2.818,2.657,6.442,4.187,10.871,4.429c3.785,0.242,7.811-0.403,11.918-2.013c1.852-0.725,3.624-1.53,5.395-2.335
				c5.476-2.818,9.502-5.717,10.791-9.099c0.322-0.725,0.483-1.53,0.483-2.335l0,0c0-1.047-0.322-2.013-0.886-2.818
				c0,0-0.081,0-0.081,0.081c-0.966-1.449-2.174-2.174-3.302-2.818c-0.644-0.403-1.369-0.725-2.094-1.047
				c-0.644-0.242-1.288-0.483-1.933-0.805c-4.751-1.852-10.549-3.785-17.394-5.154c0.081-0.805,0.161-1.53,0.242-2.335
				c0.483-2.899,1.288-5.798,2.416-8.697s2.335-5.395,3.624-7.569c3.946-7.167,9.099-14.012,15.381-20.615
				c6.281-6.603,13.045-11.918,20.373-16.105c1.852-1.127,3.704-2.174,5.556-3.141c1.852-0.966,3.785-1.933,5.878-2.979
				s4.348-2.013,6.603-2.899c2.255-0.886,4.509-1.691,6.845-2.416c7.65-2.255,15.219-3.624,22.869-3.946
				c7.65-0.403,14.656,0.886,21.017,3.865c4.832,2.255,8.294,5.798,10.388,10.629c2.094,4.832,3.302,9.985,3.543,15.461
				c0.322,7.489-0.564,15.139-2.657,22.95c-2.094,7.892-4.912,15.461-8.375,22.869c-1.047,2.013-2.013,4.026-2.979,5.878
				c-0.966,1.933-1.933,3.865-2.979,5.717c-4.026,7.247-8.536,14.092-13.609,20.454s-10.791,12.321-17.233,17.796
				c-2.657,2.335-5.556,4.187-8.697,5.717s-6.362,2.657-9.583,3.543c-3.302,0.805-6.523,1.369-9.824,1.53
				c-3.221,0.161-6.362,0.081-9.341-0.242c-1.691-0.322-3.463-0.564-5.234-0.725c-1.772-0.161-3.543-0.564-5.234-1.047
				c-0.805-0.081-1.691-0.322-2.738-0.725c-1.047-0.403-1.611-0.966-1.691-1.772c-0.081-0.886,0.242-1.691,1.127-2.496
				c0.805-0.805,1.611-1.449,2.255-2.094c4.912-4.59,9.502-9.502,13.851-14.897c4.268-5.315,8.214-10.871,11.757-16.427
				c1.611-2.496,3.06-4.993,4.59-7.489c1.449-2.496,2.979-5.073,4.59-7.65c2.577-4.268,5.154-8.616,7.65-12.965
				c2.496-4.348,5.154-8.697,7.892-12.965c2.738-4.348,5.556-8.536,8.536-12.723c2.979-4.107,6.12-8.133,9.583-11.918
				c1.933-2.255,3.946-4.348,5.878-6.362c2.013-2.013,4.348-3.624,7.086-4.751c0.644-0.242,1.449-0.644,2.577-1.047
				c1.047-0.403,2.013-0.966,2.818-1.53c0.805-0.564,1.369-1.288,1.611-2.013c0.242-0.725,0-1.53-0.805-2.335
				c-0.725-0.644-1.852-0.886-3.302-0.805c-1.449,0.081-2.979,0.322-4.671,0.805c-1.611,0.483-3.221,1.047-4.832,1.691
				c-1.611,0.644-2.818,1.127-3.624,1.53c-6.201,2.657-12.159,6.201-17.796,10.791c-4.187,3.463-8.133,7.086-11.676,10.871
				c-3.543,3.785-7.086,7.731-10.388,11.918c-3.221,3.865-6.12,7.811-8.777,11.918c-2.577,4.026-5.315,8.133-8.053,12.24
				c-3.141,4.671-6.281,9.261-9.422,13.851s-6.12,9.261-8.938,13.931c-2.174,3.543-4.429,7.086-6.684,10.71
				c-2.255,3.543-4.751,6.925-7.489,10.146c-2.174,2.577-4.187,4.348-6.12,5.395c-1.852,1.047-4.268,1.208-7.086,0.483
				c-1.449-0.322-2.979-0.483-4.509-0.564c-1.53,0-3.06-0.081-4.671-0.081c-2.738-0.161-5.395-0.242-8.133-0.161
				c-2.738,0.081-5.556,0.242-8.375,0.403c-2.416,0.322-5.234,0.805-8.455,1.53c-3.141,0.725-6.201,1.772-9.099,3.221
				c-2.899,1.449-5.476,3.302-7.569,5.556c-2.094,2.255-3.221,4.993-3.382,8.214c-0.081,1.449,0.242,2.738,0.886,3.946
				c0.644,1.208,1.449,2.174,2.496,2.899c2.335,1.772,4.993,2.818,7.892,3.302c2.899,0.483,5.959,0.644,9.099,0.483l0.644-0.081
				c3.543-0.242,7.167-0.564,10.871-1.127c3.704-0.564,7.408-1.369,11.032-2.657c2.818-1.047,5.637-2.335,8.294-3.946
				c2.657-1.611,5.476-2.657,8.375-3.221c2.979-0.564,5.878-0.483,8.616,0.322c2.738,0.725,5.556,1.208,8.375,1.53
				c4.832,0.483,9.744,0.644,14.736,0.483c4.993-0.161,10.146-0.725,15.3-1.691c11.998-2.416,23.675-6.764,35.109-13.206
				c11.435-6.442,21.581-14.495,30.519-24.238c0.886-1.127,1.852-2.174,2.818-3.141c0.966-1.047,1.852-2.094,2.657-3.302
				c2.899-3.865,5.637-7.65,8.133-11.515c2.496-3.865,4.671-7.811,6.603-11.918c3.704-7.65,6.362-15.381,7.811-23.111
				c1.449-7.811,2.013-15.461,1.53-23.031c-0.242-4.509-0.966-8.697-2.094-12.643c-1.127-3.946-2.979-7.65-5.476-10.952
				c-1.208-1.691-2.657-3.221-4.107-4.751c-1.53-1.53-3.141-2.899-4.993-4.107c-3.302-2.094-6.845-3.704-10.549-4.671
				c-3.704-0.966-7.65-1.611-11.837-1.933c-4.993-0.564-9.985-0.886-14.978-0.966c-4.993-0.161-10.146,0.403-15.381,1.449
				c-7.006,1.611-14.092,3.785-21.259,6.523c-7.086,2.738-14.012,5.959-20.615,9.583c-5.556,3.06-10.71,6.523-15.461,10.388
				c-4.751,3.865-9.261,8.214-13.609,12.884c-4.832,5.234-9.341,10.871-13.528,16.911c-4.107,5.798-7.086,11.998-8.858,18.36
				c-1.611-0.081-3.221-0.081-4.993,0c-1.208,0-2.496,0.081-3.785,0.081c-1.288,0.081-2.577,0.161-3.865,0.242
				c-10.388,0.886-21.662,3.221-33.016,7.731c-11.354,4.429-22.789,11.032-33.096,19.971c-10.227,8.858-19.407,19.89-25.929,32.613
				c-3.302,6.362-5.878,13.045-7.731,19.971c-1.852,6.845-2.899,14.092-3.221,21.017c-0.564,14.092,2.255,28.104,7.811,40.424
				c5.556,12.321,13.77,22.869,23.353,31.164c9.583,8.375,20.534,14.253,31.486,18.118c11.032,3.946,22.064,5.637,32.533,6.039
				c1.369,0.081,2.496,0,3.785,0.081c0.644,0,1.208,0,1.852,0h0.483h0.564l0,0c0,1.369,0,2.657,0.161,4.026
				c0.564,5.154,2.094,9.422,4.509,12.804c2.416,3.382,6.12,5.878,10.952,7.569c1.772,0.564,3.704,1.047,5.717,1.288
				s4.026,0.483,6.12,0.483c2.094,0.081,4.268,0,6.442-0.242c4.348-0.403,8.938-1.288,13.851-2.738s9.744-3.382,14.575-5.637
				c4.832-2.255,9.502-4.912,13.931-7.892c4.429-2.979,8.455-6.281,12.079-9.905c3.785-3.865,7.408-8.133,10.952-12.804
				c3.543-4.751,6.201-9.422,7.972-14.173c2.416-6.039,3.624-11.998,3.785-17.796c0.161-5.798-0.161-11.435-0.805-16.911
				c-0.242-2.255-0.564-4.348-1.047-6.362c-0.483-2.013-0.886-4.107-1.208-6.201c-0.644-3.704-1.208-7.408-1.611-11.193
				c-0.403-3.785-0.081-7.811,0.966-12.079c0.644-2.496,1.691-5.234,3.141-8.053c1.449-2.899,3.06-5.476,4.912-7.811
				c1.53-1.933,3.302-3.785,5.395-5.476s4.268-3.06,6.603-4.187c2.335-1.047,4.59-1.772,6.845-2.013s4.348,0,6.362,0.805
				c1.691,0.725,2.979,1.772,3.785,3.302c0.886,1.449,1.369,3.141,1.611,5.073c0.242,1.933,0.161,3.865-0.081,5.878
				s-0.725,4.026-1.288,5.798c-0.644,2.174-1.53,4.348-2.738,6.684c-1.208,2.255-2.577,4.429-4.268,6.523
				c-1.611,2.013-3.543,3.785-5.637,5.234c-2.094,1.449-4.348,2.335-6.925,2.738c-0.966,0.081-1.772,0.242-2.496,0.483
				s-1.127,0.966-1.288,2.094c-0.242,1.047,0,1.691,0.564,2.094c0.564,0.403,1.288,0.564,2.174,0.644
				c0.886,0.081,1.772,0,2.818-0.242s1.933-0.483,2.657-0.725c2.496-0.644,4.912-1.691,7.328-2.979
				C265.656,440.531,267.911,438.921,270.005,436.988z M143.095,399.543c-1.369,0.805-2.979,1.53-4.832,2.174
				c-1.852,0.644-3.624,1.208-5.315,1.691s-2.738,0.725-3.06,0.725c-1.208,0.242-2.335,0.403-3.382,0.403
				c-1.611,0.081-3.382,0.161-5.154,0.161c-1.852,0-3.302-0.483-4.59-1.449c-1.127-0.966-1.449-2.255-1.127-3.785
				c0.322-1.53,1.288-2.818,2.818-3.785c1.852-1.208,3.946-1.852,6.281-1.933c2.335-0.081,4.429,0.081,6.201,0.322l2.657,0.564
				c1.449,0.322,2.979,0.644,4.429,0.966c1.449,0.322,2.979,0.644,4.59,0.966c0.161,0.081,0.564,0.161,1.208,0.161
				c0.564,0,0.966,0.161,1.047,0.483C145.108,397.933,144.464,398.738,143.095,399.543z M173.293,340.115
				c0.644,0.242,1.288,0.483,1.933,0.644c0.483,0.161,0.886,0.322,1.288,0.564c-0.322,0.081-0.644,0.161-0.966,0.242
				c-2.255,0.564-4.509,0.805-6.764,0.725c-2.255-0.081-4.187-0.725-6.039-1.933c-1.53-0.966-2.657-2.335-3.302-3.946
				C164.757,337.457,169.427,338.746,173.293,340.115z M141.646,514.776c0.564-5.315,2.335-10.79,5.154-16.508
				s6.12-11.032,9.985-15.864c2.174-2.657,4.751-5.234,7.569-7.569c2.899-2.335,5.878-4.268,9.019-5.717
				c3.141-1.449,6.281-2.335,9.422-2.577c3.141-0.242,5.959,0.403,8.455,1.933c1.933,1.208,3.06,2.899,3.624,5.154
				c0.483,2.255,0.483,4.751,0,7.408c-0.483,2.657-1.369,5.315-2.577,7.972c-1.369,2.818-5.395,9.663-14.817,15.219
				c-3.543,1.772-7.972,3.946-10.871,5.073c-5.395,2.094-12.079,4.268-19.89,5.637c-1.691,0.322-3.382,0.564-5.154,0.725
				C141.565,515.34,141.565,515.098,141.646,514.776z"/>
		</g>
		<g id="XMLID_100_">
			<path fill="#D7D9DD" d="M337.083,423.137c0.805-3.624,0.403-6.925-1.369-10.066c-1.288-2.174-2.979-3.543-5.234-4.187
				c-2.657-0.644-5.395-0.725-8.294-0.242c-2.577,0.403-5.154,1.047-7.65,2.013c-2.577,0.966-5.073,2.174-7.569,3.543
				c-2.496,1.369-4.912,2.899-7.328,4.59c-2.416,1.691-4.59,3.382-6.764,5.073c-3.463,2.818-7.006,5.798-10.468,9.099
				c-6.362,6.12-11.757,12.723-16.025,19.89c-2.174,3.624-3.785,7.247-4.912,10.71c-0.725,2.013-1.369,4.026-1.933,6.12
				c-0.564,2.094-0.886,4.107-1.047,6.039c-0.242,3.382,0.805,6.201,2.979,8.214c2.174,2.094,4.832,3.302,7.892,3.785
				c1.208,0.242,2.416,0.322,3.704,0.242s2.496-0.242,3.785-0.483c4.671-1.127,9.422-2.979,14.173-5.637s9.18-5.476,13.287-8.536
				c6.684-5.073,12.562-11.032,17.635-17.957s9.019-14.092,11.837-21.42C335.07,430.304,336.197,426.681,337.083,423.137z
				 M321.703,428.211c-0.966,2.013-1.933,4.107-3.06,6.362c-1.691,3.06-3.463,6.201-5.315,9.261
				c-1.852,3.141-3.785,6.12-5.878,9.019c-0.886,1.208-1.691,2.416-2.496,3.543c-0.805,1.208-1.691,2.416-2.657,3.624
				c-2.657,3.463-5.556,6.925-8.777,10.227c-3.221,3.382-6.764,6.039-10.79,8.053c-1.288,0.644-2.496,1.208-3.543,1.611
				c-1.047,0.322-2.255,0.483-3.543,0.403c-1.288-0.081-2.255-0.483-2.899-1.369c-0.966-1.369-1.047-3.221-0.322-5.476
				s1.449-4.187,2.255-5.798c1.611-3.141,3.302-6.362,5.073-9.502c1.772-3.141,3.704-6.201,5.798-9.261
				c2.335-3.463,4.832-6.845,7.489-10.307c2.657-3.382,5.476-6.684,8.455-9.744c1.369-1.53,2.899-3.06,4.509-4.429
				c1.611-1.449,3.221-2.899,4.751-4.509c1.369-1.288,2.979-2.496,4.832-3.865c1.852-1.288,3.704-1.772,5.476-1.53
				c1.369,0.322,2.174,1.288,2.496,2.818c0.242,1.53,0.242,2.979,0,4.268C323.394,424.023,322.669,426.197,321.703,428.211z"/>
		</g>
		<g id="XMLID_96_">
			<path fill="#D7D9DD" d="M586.795,364.756v-0.322l0.081-0.725c0.886-7.569,0.805-15.219-0.081-22.708
				c-1.852-14.978-7.65-28.989-16.025-40.907c-8.536-11.918-19.729-21.662-32.533-28.667c-6.442-3.463-13.206-6.281-20.293-8.375
				c-1.772-0.483-3.543-1.047-5.315-1.369c-1.772-0.403-3.624-0.805-5.395-1.127l-2.738-0.483l-2.818-0.403l-2.818-0.322
				l-2.657-0.242c-7.408-0.644-14.897-0.483-22.386,0.403c-7.006,0.805-14.012,2.335-20.776,4.429
				c1.449-2.174,2.818-4.268,4.268-6.362c1.611-2.255,2.899-4.671,4.026-7.086c0.483-1.047,1.047-2.255,1.691-3.543
				c0.564-1.288,0.725-2.496,0.242-3.382c-0.644-1.288-1.772-1.852-3.302-1.611c-1.53,0.242-2.899,0.483-4.187,0.886
				c-1.047,0.322-2.174,0.483-3.382,0.564c-1.208,0.081-2.416,0.161-3.704,0.242c-1.208,0.161-2.416,0.403-3.543,0.725
				s-2.174,0.886-3.06,1.53c-0.805,0.725-1.449,1.53-2.013,2.577s-1.047,2.094-1.53,3.221c-0.483,1.127-0.886,2.174-1.369,3.302
				c-0.403,1.127-0.805,2.094-1.208,2.899c-1.127,2.255-2.335,4.429-3.624,6.603c-0.966,1.611-2.013,3.302-2.979,4.912
				l-33.741,7.569l-14.092,3.141l-14.092,3.06l-3.543,0.725c-1.127,0.161-2.255,0.403-3.463,0.564
				c-2.335,0.322-4.59,0.644-6.845,0.805c-1.288,0.081-2.577,0.161-3.785,0.081c0.403-0.322,0.725-0.564,1.127-0.966
				c1.208-1.127,2.174-2.416,2.979-3.785s1.369-2.818,1.772-4.268c0.403-1.449,0.483-2.818,0.322-4.107
				c-0.725-3.141-2.738-4.509-6.12-4.107c-2.255,0.242-4.268,1.127-6.039,2.657c-1.53,1.208-2.979,2.657-4.268,4.429
				c-1.288,1.772-2.174,3.463-2.657,5.154c-0.483,1.852-0.403,3.463,0.161,4.671c0.242,0.564,0.644,1.047,1.047,1.449l-0.242,0.161
				c0.161,0.242,0.242,0.483,0.483,0.805c0.322,0.483,0.725,0.966,1.127,1.288c0.322,0.242,0.725,0.564,1.047,0.805l1.047,0.564
				c1.369,0.644,2.738,0.966,4.107,1.127c2.657,0.403,5.154,0.403,7.65,0.403c2.496-0.081,4.993-0.322,7.408-0.644
				c1.208-0.161,2.416-0.322,3.704-0.483l3.543-0.644l14.253-2.657l14.173-2.738c8.697-1.691,17.474-3.463,26.171-5.234
				l-16.025,21.339c-5.637,7.167-10.952,14.495-16.186,21.984c-4.993,7.247-9.824,14.656-14.334,22.064
				c-1.611,2.094-3.141,4.187-4.751,6.281c-2.979,4.026-6.281,7.892-9.744,11.515c-0.805,0.805-1.691,1.691-2.657,2.657
				s-2.013,1.852-3.06,2.577c-1.127,0.805-2.174,1.369-3.302,1.852c-1.127,0.483-2.255,0.644-3.302,0.483
				c-1.127-0.161-1.611-0.886-1.53-2.255c0.081-1.288,0.403-2.818,0.966-4.509c0.564-1.691,1.288-3.302,2.013-4.832
				c0.805-1.53,1.369-2.577,1.691-3.141c1.047-1.933,2.094-3.865,3.221-5.798c1.127-1.933,2.416-3.865,3.704-5.798
				c4.187-6.523,8.858-12.965,14.012-19.487c1.288-1.53,2.577-3.06,3.785-4.59c1.288-1.53,2.577-3.06,3.946-4.59
				c0.886-1.127,2.094-2.335,3.463-3.785c1.369-1.369,2.174-2.818,2.416-4.268c0.242-1.449-0.081-2.255-1.127-2.577
				c-0.966-0.322-2.013-0.242-3.221,0.242c-4.026,1.53-7.892,2.738-11.757,3.624c-3.865,0.805-7.408,0.322-10.79-1.611
				c-1.53-0.886-2.818-0.966-3.865-0.161s-2.094,2.013-3.06,3.463c-2.013,3.06-3.946,6.12-5.637,9.261
				c-1.772,3.141-3.704,6.281-5.798,9.341c-1.691,2.416-3.382,4.751-4.912,7.086c-0.322,0.161-9.261,12.884-10.79,14.736
				c-1.772,2.255-3.624,4.59-5.395,7.006c-1.53,2.174-3.141,4.187-4.832,6.281c-0.644,0.725-1.288,1.449-1.933,2.174
				c-0.886,1.047-1.933,2.174-3.06,3.463c-0.564,0.644-1.127,1.208-1.691,1.852c-1.127,1.047-2.255,2.094-3.463,3.06
				c-0.805,0.644-1.611,1.208-2.416,1.691c-1.369,0.805-2.657,1.208-4.026,1.288c-1.208,0.161-2.013-0.161-2.255-0.966
				c-0.242-0.805-0.242-1.772,0.161-3.06c0.403-1.288,1.047-2.738,1.852-4.268c0.886-1.53,1.772-3.06,2.657-4.509
				c0.886-1.449,1.772-2.738,2.496-3.865c0.805-1.127,1.288-1.933,1.53-2.335c3.221-5.073,6.523-10.066,9.905-14.978
				c3.302-4.912,6.764-9.824,10.146-14.656c0.725-1.047,1.611-2.335,2.657-3.704c1.047-1.369,2.013-2.738,2.899-4.107
				c0.886-1.369,1.691-2.738,2.255-4.187c0.564-1.449,0.886-2.818,0.966-4.107c0-0.966-0.242-1.691-0.886-2.094
				c-0.564-0.403-1.288-0.644-2.094-0.644c-0.805-0.081-1.691,0-2.577,0.161c-0.966,0.161-1.772,0.322-2.496,0.483
				c-1.449,0.242-3.302,0.644-5.637,1.127s-4.107,1.288-5.315,2.577c-0.564,0.564-0.966,1.208-1.208,2.013
				c-0.242,0.805-0.403,1.53-0.644,2.255c-0.403,2.174-1.288,4.187-2.496,6.039c-1.288,1.933-2.577,3.785-3.865,5.637
				c-3.141,4.751-6.362,9.422-9.663,13.931c-3.302,4.509-6.442,9.261-9.341,14.092c-1.691,2.818-3.382,5.717-4.912,8.697
				c-1.611,2.979-2.738,6.039-3.463,9.099c-0.242,1.611-0.322,3.382-0.242,5.234s0.564,3.382,1.288,4.751
				c1.127,1.691,2.577,2.738,4.187,3.141c1.933,0.483,4.187,0.242,6.764-0.805c0.081,0,0.161-0.081,0.322-0.161
				c0.483,0.403,1.208,0.564,2.094,0.322c1.369-0.322,2.899-1.208,4.671-2.496s3.624-2.899,5.637-4.671
				c2.013-1.852,3.865-3.624,5.637-5.476c1.772-1.772,3.302-3.463,4.509-4.912c1.288-1.449,2.094-2.416,2.577-2.818
				c1.611-1.772,3.141-3.543,4.671-5.315s2.979-3.624,4.348-5.476c2.577-3.302,4.993-6.603,7.328-9.905
				c2.335-3.302,4.59-6.684,6.925-10.146c1.047-1.611,2.174-3.221,3.221-4.912c1.047-1.611,2.174-3.221,3.221-4.751
				c0.805-1.208,1.691-2.255,2.496-3.141c0.886-0.886,2.013-1.369,3.382-1.288c0.966,0.081,1.933,0.322,2.818,0.725
				c0.886,0.403,1.852,0.564,2.818,0.403c0.322,0,0.725-0.161,1.288-0.322c0.564-0.161,1.127-0.242,1.53-0.322
				c0.483-0.081,0.805,0,1.047,0.081c0.242,0.161,0.161,0.483-0.161,1.127c-0.403,0.886-1.288,1.772-2.657,2.818
				c-1.369,1.047-2.416,1.933-3.06,2.577c-3.946,3.946-7.892,8.133-11.918,12.482s-7.328,8.938-10.066,13.77
				c-0.966,1.611-1.933,3.302-2.818,5.154c-0.886,1.772-1.691,3.624-2.416,5.395s-1.208,3.543-1.449,5.315
				c-0.322,1.772-0.242,3.543,0.081,5.315c0.242,1.449,0.805,2.657,1.691,3.463c0.886,0.886,1.933,1.449,3.06,1.852
				c1.208,0.403,2.496,0.483,3.946,0.483c1.449-0.081,2.899-0.322,4.429-0.644c4.268-1.288,8.133-3.382,11.676-6.362
				c3.463-2.979,6.764-6.12,9.744-9.422c1.369-1.53,2.738-3.221,4.187-4.912c0.564-0.725,1.127-1.449,1.691-2.094
				c-0.242,0.725-0.403,1.449-0.564,2.255c-0.644,2.979-0.805,5.798-0.403,8.375c0.403,2.577,1.691,4.671,3.946,6.201
				c1.288,0.966,2.657,1.53,4.026,1.772c3.463,0.805,6.925,0.483,10.388-1.047c3.463-1.53,6.925-3.543,10.227-6.201
				c3.302-2.657,6.442-5.556,9.341-8.697c0.966-1.047,1.852-2.013,2.738-2.979c-0.161,0.564-0.322,1.208-0.403,1.772
				c-0.242,1.369-0.403,2.738-0.403,4.107c-0.081,1.449,0.081,2.738,0.403,4.026s0.886,2.335,1.691,3.221
				c0.805,0.886,1.933,1.449,3.302,1.691c2.577,0.483,5.395,0.322,8.375-0.403c2.979-0.805,5.798-1.933,8.214-3.463
				c2.174-1.369,6.12-4.026,10.71-9.663c0.081-0.081-6.12,10.066-8.616,13.851c-2.496,3.785-25.044,37.686-28.748,42.921
				c-1.933,2.818-3.946,5.556-5.878,8.375c-0.725,0.564-1.208,1.208-1.611,2.013c-0.322,0.644-0.725,1.288-1.047,1.933
				c-0.725,1.047-1.369,2.094-2.094,3.06c-1.369,1.772-2.738,3.463-4.268,5.073c-2.013,2.174-4.107,4.348-6.201,6.603
				c-1.047,1.127-2.094,2.174-3.221,3.302c-1.127,1.047-2.174,2.174-3.221,3.302c-0.886,0.886-1.852,1.772-2.818,2.738
				c-0.966,0.886-1.933,1.772-2.818,2.738c-1.208,1.047-2.416,2.094-3.624,3.06c-1.208,1.047-2.416,2.013-3.624,2.979
				c-1.369,1.047-3.221,2.255-5.717,3.543c-2.496,1.288-4.912,2.335-7.328,2.979c-2.416,0.644-4.509,0.725-6.362,0.242
				c-1.852-0.483-2.738-2.094-2.657-4.832c-0.081-2.657,0.564-5.395,1.852-7.972c1.288-2.657,2.738-5.234,4.268-7.65
				c3.382-5.234,6.845-10.468,10.549-15.622c3.624-5.154,7.65-10.066,11.918-14.736c0.805-0.886,1.933-2.174,3.463-3.865
				c1.449-1.691,3.06-3.221,4.751-4.671c1.691-1.369,3.382-2.335,4.993-2.979c1.611-0.564,2.979-0.161,4.026,1.208
				c0.805,1.208,1.127,2.577,1.127,4.107s-0.161,2.979-0.483,4.429c-0.081,0.483-0.161,1.047-0.322,1.691
				c-0.161,0.644-0.242,1.208-0.242,1.852c0,0.564,0.161,1.047,0.322,1.449c0.242,0.403,0.644,0.564,1.369,0.483
				c1.449-0.081,2.577-0.725,3.543-2.013c0.886-1.288,1.772-2.496,2.657-3.624c1.127-1.53,2.255-3.06,3.382-4.509
				c1.208-1.449,2.094-3.141,2.738-4.832c0.322-0.966,0.403-1.772,0.322-2.416c-0.161-0.644-0.322-1.449-0.644-2.174
				c-0.322-0.644-0.886-1.208-1.53-1.53c-0.725-0.403-1.53-0.644-2.416-0.805s-1.852-0.242-2.818-0.242c-0.966,0-1.772,0-2.496,0
				c-4.268,0.403-8.697,1.369-13.126,3.06c-2.657,1.127-5.154,2.335-7.408,3.704c-4.59,2.738-8.858,5.798-12.965,9.341
				c-4.026,3.543-7.972,7.247-11.676,11.032c-3.704,3.785-7.006,7.811-9.985,12.079s-5.556,8.697-7.811,13.206
				c-1.369,2.979-2.416,5.637-3.06,7.972c-0.725,2.335-1.127,4.751-1.288,7.167c-0.161,2.416,0.081,4.671,0.886,6.764
				c0.886,2.174,2.335,3.785,4.509,4.832c2.174,1.047,4.429,1.53,6.845,1.53l6.12-0.644c1.691-0.403,3.221-0.886,4.671-1.53
				s2.899-1.369,4.429-2.174c1.53-0.644,2.899-1.53,4.268-2.496c1.369-0.966,2.657-2.013,4.026-3.06
				c4.509-3.624,8.777-7.408,12.965-11.435c2.496-2.335,4.912-4.751,7.328-7.167c-1.127,1.611-2.255,3.221-3.382,4.832
				c-1.611,2.174-3.141,4.348-4.832,6.523c-1.611,2.174-3.221,4.429-4.671,6.684c-0.403,0.564-0.805,1.208-1.288,2.094
				c-0.483,0.886-0.886,1.691-1.127,2.416c-0.242,0.805-0.242,1.449-0.081,1.933c0.161,0.564,0.805,0.805,1.933,0.725
				c0.403,0.081,1.127,0.081,2.094,0c1.047-0.081,2.013-0.161,2.979-0.242c0.966-0.081,1.852-0.242,2.657-0.322
				c0.805-0.081,1.288-0.161,1.369-0.161l2.013-0.564c1.127-0.161,2.094-0.322,2.979-0.644c0.805-0.322,1.691-0.886,2.496-1.772
				c1.772-1.852,3.302-3.946,4.59-6.12s2.657-4.348,4.026-6.362c1.449-2.174,2.979-4.348,4.509-6.603
				c1.53-2.255,2.979-4.429,4.348-6.523c1.772-2.818,3.463-5.637,5.154-8.455c1.691-2.818,3.785-5.476,6.201-7.811
				c2.738-2.416,5.798-4.187,9.18-5.395c0.725-0.242,1.53-0.483,2.255-0.725c0.805-0.161,1.369-0.081,1.852,0.403
				c0.242,0.242,0.483,0.725,0.564,1.288c0.081,0.564,0.161,1.127,0.322,1.611c0.483,1.772,0.403,3.543-0.322,5.395
				s-1.691,3.704-2.979,5.556c-1.208,1.852-2.577,3.624-4.107,5.395c-1.53,1.772-2.899,3.382-4.026,4.832
				c-1.288,1.611-2.496,3.463-3.624,5.315c-1.127,1.933-1.852,3.865-2.255,5.717c-0.403,1.933-0.403,3.624,0,5.234
				c0.403,1.611,1.611,2.899,3.463,3.865c1.772,0.966,4.832,1.449,7.006,1.208s4.429-0.886,6.603-1.852
				c2.174-0.966,4.348-2.255,6.523-3.704c2.174-1.449,4.107-2.979,5.798-4.429c6.523-5.556,11.596-11.837,17.313-18.763
				c1.772-2.174,3.463-4.348,5.073-6.523c0.242-0.322,0.483-0.644,0.644-0.966c1.369-1.691,2.738-3.302,4.107-5.073
				c2.577-3.141,4.993-6.12,7.408-9.019c1.288-1.53,2.496-3.141,3.704-4.671c1.127-1.611,2.335-3.141,3.704-4.671
				c0.725-0.886,1.449-1.691,2.094-2.416c0.725-0.725,1.369-1.53,2.094-2.416c0.242-0.564,0.725-1.208,1.288-1.933
				c0.564-0.725,1.208-1.288,1.691-1.691c-1.047,4.59-2.496,9.261-4.348,13.931c-1.852,4.671-3.543,9.18-5.234,13.689
				c-1.208,3.302-2.577,6.684-4.026,10.066c-1.127,2.657-2.496,5.154-4.026,7.65c-5.717-0.322-11.193-0.564-16.508,0.644
				c-1.53,0.322-2.657,0.805-3.624,1.369c-0.483,0.242-0.966,0.564-1.53,0.966c-1.691,1.288-3.06,2.899-4.107,4.832
				c-1.047,1.933-1.449,3.865-1.127,5.556c0.161,1.047,0.564,1.933,1.127,2.657s1.288,1.208,2.094,1.611
				c0.805,0.403,1.691,0.725,2.738,0.805c0.966,0.161,2.013,0.242,2.979,0.322h0.161c3.785,0.161,7.57-0.483,11.354-2.094
				c3.704-1.53,7.247-3.624,10.468-6.201c1.691-1.369,3.302-2.738,4.832-4.268c1.691,0,3.382,0,5.073,0l5.556-0.483
				c1.852-0.161,3.704-0.242,5.556-0.644l5.556-0.966l2.738-0.483l2.738-0.725c3.624-0.966,7.328-1.852,10.871-3.382l5.315-2.013
				l5.234-2.496c1.691-0.886,3.543-1.53,5.154-2.577l4.993-2.979l2.496-1.53l2.335-1.691l4.751-3.382
				c1.611-1.127,2.979-2.496,4.509-3.704c1.449-1.288,2.979-2.496,4.348-3.865c5.476-5.556,10.791-11.354,14.978-17.957
				c1.047-1.611,2.174-3.221,3.221-4.912l2.738-5.154c1.933-3.382,3.221-7.086,4.751-10.629c0.805-1.772,1.288-3.704,1.852-5.637
				l1.691-5.717c0.403-1.852,0.644-3.543,1.047-5.395l0.483-2.657l0.242-1.369v-0.161l0.081-0.322L586.795,364.756z
				 M462.704,458.408c-1.127,1.208-2.335,2.174-3.624,2.899c0,0-1.691,0.886-3.06,1.127c-6.925,0.966-6.845-3.221-5.798-4.832
				c0.564-0.805,1.772-1.369,2.899-1.772c3.624-0.805,8.053-0.966,12.562-0.886C464.798,456.153,463.832,457.281,462.704,458.408z
				 M576.246,365.561l-0.483,2.657c-0.322,1.772-0.644,3.624-0.966,5.315l-1.449,4.751c-0.483,1.611-0.805,3.221-1.53,4.832
				c-1.369,3.221-2.416,6.523-4.187,9.502l-2.416,4.671c-0.886,1.53-1.852,2.979-2.818,4.429
				c-3.704,5.959-8.375,11.274-13.206,16.347c-1.208,1.288-2.577,2.416-3.865,3.624c-1.369,1.127-2.577,2.416-3.946,3.463
				l-4.187,3.221l-2.094,1.611l-2.255,1.449l-4.59,2.818c-1.449,1.047-3.06,1.691-4.671,2.577l-4.67,2.496L514,441.336
				c-6.523,2.738-13.287,4.751-20.132,6.201c-1.691,0.483-3.463,0.644-5.154,0.886l-4.429,0.644
				c1.933-2.577,3.704-5.234,5.073-7.892c2.335-4.348,4.268-8.697,5.637-13.045c1.449-4.348,2.818-8.777,4.187-13.367
				c0.805-2.818,1.691-5.556,2.416-8.375c0.805-2.818,1.691-5.556,2.738-8.375c0.403-1.127,0.966-2.255,1.53-3.302
				c0.564-1.047,1.208-2.174,1.852-3.382c0-0.081,0.242-0.483,0.564-1.208c0.403-0.725,0.725-1.369,1.127-2.174
				c0.322-0.725,0.644-1.449,0.966-2.013c0.242-0.644,0.403-0.966,0.242-0.966c-1.127,0.161-2.174,0.403-3.141,0.725
				c-0.966,0.322-2.013,0.644-3.141,0.886c-1.369,0.242-4.348,0.322-5.637,0.403c-1.288,0.081-2.577,0.403-4.026,0.966
				c-1.369,0.564-2.496,1.288-3.382,2.094c-0.886,0.805-1.772,1.852-2.738,3.06c-2.255,2.738-4.348,5.476-6.362,8.294
				c-2.013,2.738-4.107,5.556-6.201,8.294c-2.496,3.141-4.993,6.362-7.489,9.422c-0.403,0.483-22.306,28.828-23.916,30.681
				c-1.691,2.013-2.818,3.221-4.912,5.073c-0.564,0.483-1.369,1.127-2.496,1.933c-1.127,0.805-2.255,1.53-3.463,2.094
				c-1.208,0.564-2.255,0.966-3.302,1.208c-1.047,0.242-1.852-0.081-2.335-0.805c-0.322-0.564-0.403-1.208-0.242-1.933
				c0.161-0.725,0.483-1.449,0.966-2.255c0.483-0.805,0.966-1.611,1.53-2.335s0.966-1.369,1.369-1.772
				c1.449-1.852,2.899-3.785,4.509-5.637c1.53-1.933,2.979-3.865,4.187-5.959c1.288-2.013,2.094-4.107,2.657-6.12
				c0.483-2.013,0.403-4.107-0.242-6.281c-1.047-3.221-2.899-5.315-5.556-6.523c-2.657-1.127-5.717-1.369-9.261-0.564
				c0.322-0.322,0.725-0.644,1.127-0.966c0.403-0.322,0.725-0.564,1.047-0.805c1.772-1.369,3.463-2.818,5.154-4.268
				c1.611-1.449,3.382-2.818,5.154-4.107c1.449-1.047,2.899-1.933,4.429-2.738s3.06-0.966,4.671-0.644
				c1.208,0.403,2.255,0.966,3.221,1.772c0.966,0.805,2.174,1.127,3.624,1.127c1.611,0,3.141-0.644,4.59-1.933
				s2.657-2.657,3.624-4.107c0.886-1.288,1.611-2.657,2.255-4.107c0.644-1.449,0.966-2.818,0.966-4.107
				c0-1.208-0.403-2.255-1.208-2.979c-0.805-0.725-2.174-1.127-3.946-1.127c-1.933,0-3.865,0.403-5.798,1.208
				c-1.933,0.805-3.785,1.852-5.637,3.06c-1.852,1.288-3.624,2.577-5.315,4.026c-1.772,1.449-3.382,2.818-4.832,4.187
				c-1.449,1.288-2.899,2.496-4.348,3.624c-1.449,1.127-2.899,2.335-4.348,3.463c-0.886,0.725-1.772,1.369-2.496,2.013
				c-0.805,0.644-1.611,1.288-2.496,2.013c-0.564,0.483-1.047,0.886-1.449,1.208c-0.403,0.322-0.886,0.725-1.449,1.208
				c-0.886,0.805-1.852,1.53-2.738,2.255c-0.966,0.725-1.852,1.53-2.818,2.416c1.288-1.208,2.335-2.738,3.141-4.429
				c0.805-1.691,1.691-3.221,2.657-4.671c1.127-1.611,2.174-3.221,3.302-4.751c1.127-1.53,2.174-3.06,3.302-4.751
				c3.06-4.671,45.175-68.447,47.188-71.588s4.107-6.281,6.12-9.422l7.006-10.71c1.208-1.772,2.335-3.463,3.463-5.073
				c1.127-1.611,2.255-3.302,3.463-5.073c0.966-1.208,1.691-2.577,2.335-4.026c0.644-1.449,0.966-2.899,1.127-4.348
				c0.161-1.288-0.081-2.174-0.644-2.496s-1.449-0.403-2.738-0.161c-1.933,0.403-3.865,0.725-5.717,0.966
				c-1.852,0.242-3.704,0.483-5.556,0.805c-1.369,0.242-2.416,0.644-3.302,1.208s-1.611,1.53-2.094,2.899
				c-1.288,3.946-3.141,7.811-5.556,11.435c-2.335,3.704-4.751,7.328-7.086,10.871c-2.496,3.785-5.073,7.569-7.811,11.274
				c-2.657,3.704-5.315,7.408-8.053,11.032c-1.611,2.174-3.302,4.268-4.912,6.12c-2.255,2.577-4.671,5.234-7.086,7.972
				c-2.496,2.738-5.234,4.993-8.214,6.764c-1.288,0.725-2.496,1.208-3.704,1.369c-1.208,0.161-2.094,0.081-2.818-0.242
				c-0.725-0.403-1.127-1.047-1.208-2.013c-0.081-0.966,0.242-2.255,1.047-3.865c0.886-2.094,2.094-4.107,3.463-5.959
				c1.369-1.852,2.657-3.704,4.026-5.556c1.449-2.174,2.899-4.348,4.348-6.603c1.449-2.255,2.899-4.429,4.509-6.603
				c2.899-4.429,5.798-8.777,8.777-13.126c2.979-4.268,5.959-8.616,8.938-12.965c0.966-1.53,1.933-3.06,2.979-4.509
				c1.047-1.53,1.369-3.141,1.047-4.751c-0.242-1.369-0.966-2.094-2.013-2.174c-1.127-0.081-2.335,0.081-3.704,0.403
				c-1.449,0.242-2.818,0.403-4.187,0.322c-1.369-0.081-2.738,0.081-4.187,0.483c-1.288,0.322-2.255,0.886-3.06,1.691
				c-0.805,0.805-1.449,1.691-1.933,2.738c-0.483,1.047-0.966,2.094-1.369,3.141c-0.403,1.127-0.886,2.094-1.369,3.06
				c-2.094,3.785-4.348,7.408-6.764,10.952c-2.416,3.543-4.832,7.006-7.328,10.549c-2.094,2.979-4.268,5.959-6.362,8.938
				c-0.805,0.966-1.611,2.013-2.416,2.979c-2.416,3.06-4.832,6.039-7.408,9.019c-2.094,2.577-4.268,5.073-6.442,7.569
				c-2.174,2.496-4.751,4.59-7.569,6.362c-1.611,0.966-3.141,1.611-4.429,1.852c-1.369,0.242-2.416,0.161-3.302-0.403
				c-0.886-0.483-1.449-1.369-1.691-2.496c-0.322-1.208-0.081-2.657,0.644-4.429c0.725-2.255,1.772-4.509,3.141-6.684
				c1.369-2.174,2.738-4.268,4.268-6.362c6.039-8.133,11.757-16.266,17.233-24.399c5.476-8.133,11.032-16.347,16.669-24.641
				l14.897-21.098l7.73-1.611h0.161l0.242-0.081c6.684-2.013,13.528-3.382,20.454-4.107c6.845-0.644,13.77-0.725,20.534,0
				l2.657,0.242l2.496,0.322l2.496,0.403l2.496,0.483c1.691,0.322,3.302,0.725,4.912,1.127c1.611,0.403,3.221,0.886,4.832,1.369
				c6.442,1.933,12.643,4.509,18.441,7.731c11.596,6.442,21.742,15.381,29.312,26.171c7.489,10.791,12.643,23.433,14.173,36.72
				c0.805,6.684,0.805,13.448,0,20.212l-0.081,0.966L576.246,365.561z"/>
		</g>
	</g>
</g>
</svg>
