<?xml version="1.0" encoding="utf-8"?>
<!-- Generator: Adobe Illustrator 21.0.2, SVG Export Plug-In . SVG Version: 6.00 Build 0)  -->
<svg version="1.1" id="Layer_1" xmlns="http://www.w3.org/2000/svg" xmlns:xlink="http://www.w3.org/1999/xlink" x="0px" y="0px"
	 viewBox="0 0 760 415" style="enable-background:new 0 0 760 415;" xml:space="preserve">
<style type="text/css">
	.st0{fill:#FFFFFF;}
</style>
<g id="XMLID_27_">
	<g>
		<g id="XMLID_103_">
			<path class="st0" d="M335.3,258.4c3.6-3.2,6.6-6.4,8.9-9.7c2.4-3.3,4.5-6.9,6.3-10.9c1.6-3.6,2.8-7.5,3.6-11.6
				c0.8-4.1,0.9-8,0.4-11.5c-0.5-3.5-1.8-6.6-3.9-9.1c-2.1-2.5-5.2-4.1-9.4-4.6c-0.2-0.1-0.6-0.1-1.2-0.1c-0.6,0-1.1-0.1-1.6-0.3
				c-2.2-0.4-5.2-0.2-9.1,0.5c-3.9,0.7-7.7,1.8-11.6,3.2c-3,1.2-6,2.5-9,4.1c-3,1.5-5.9,3.2-8.6,5c-2.5,1.6-4.9,3.4-7.3,5.4
				c-2.4,2-4.7,4-6.9,6.1c-3.7,3.7-7,7.7-9.9,12c-2.9,4.3-5.4,8.6-7.4,13.1c-2,4.4-3.5,8.9-4.4,13.5c-1,4.6-1.2,8.9-0.8,13
				c0.3,3.3,0.6,6.5,0.9,9.8c0.3,3.3,0.6,6.5,1.1,9.8c0.9,5.8,2,11.6,3,17.4c1.1,5.8,0.9,12-0.4,18.5c-1,4.6-2.5,9.1-4.5,13.3
				c-1.7,3.7-3.9,7.5-6.7,11.5c-2.8,3.9-5.7,7.4-8.6,10.6c-1.8,1.9-3.7,3.8-5.8,5.6c-2.1,1.8-4.2,3.5-6.3,5.1
				c-3.9,2.7-7.9,5-12.2,6.6c-4.3,1.7-8.5,2.8-12.6,3.3c-4.2,0.5-8.2,0.5-12-0.2c-3.9-0.6-7.2-1.9-10.1-4c-2.2-1.5-4.5-3.3-6.8-5.5
				c-2.3-2.2-4-4.6-5-7.2c-0.8-1.9-1.3-4.1-1.6-6.5c2.6-0.4,5.2-0.9,7.6-1.5c11.6-2.7,21.1-6.3,28.5-9.8l0,0
				c8.6-3.3,16.3-8.5,22-13.3c1.9-1.4,3.7-2.8,5.4-4.4c1.7-1.7,3.4-3.4,5-5.3c0.5-0.5,0.8-0.8,0.8-0.8c3.2-4,6-8.6,8.2-13.7
				c2.2-5.1,3.5-10,3.8-14.6c0.3-4.6-0.5-8.6-2.6-12c-2.1-3.4-5.8-5.5-11-6.2c-2.5-0.3-5-0.3-7.7,0.1c-2.7,0.4-5.3,1.1-7.9,2
				c-8.6,3-16.9,7.1-25,12.4c-6.2,4.1-12.2,9.1-18,15.1c-5.9,5.9-10.9,12.3-15.2,19c-4.3,6.7-7.6,13.5-10,20.4
				c-0.5,1.6-1,3.2-1.4,4.7c-2.8-0.1-5.7-0.2-8.7-0.4c-11.6-0.7-24.5-3-36.9-7.8c-12.4-4.7-24.6-11.8-35.3-21.3
				c-10.7-9.5-19.7-21.5-25.8-35.2c-6.1-13.7-9.1-29.1-8.5-44.8c0.3-8,1.4-15.6,3.4-23.3c2-7.6,4.8-15.1,8.4-22.1
				c7.2-14.1,17.2-26.6,28.6-36.7c11.5-10.1,24.2-17.9,37.1-23.3c12.9-5.4,25.7-8.5,37.7-9.7c4.8-0.5,9.5-0.7,14-0.8
				c0,0.1,0,0.2,0,0.3c0.1,3.5,0.3,6.6,0.8,9.4c0.8,5.1,3,9.4,6.5,12.7c3.5,3.3,8,5.2,13.5,5.5c4.7,0.3,9.7-0.5,14.8-2.5
				c2.3-0.9,4.5-1.9,6.7-2.9c6.8-3.5,11.8-7.1,13.4-11.3c0.4-0.9,0.6-1.9,0.6-2.9c0,0,0,0,0,0c0-1.3-0.4-2.5-1.1-3.5
				c0,0-0.1,0-0.1,0.1c-1.2-1.8-2.7-2.7-4.1-3.5c-0.8-0.5-1.7-0.9-2.6-1.3c-0.8-0.3-1.6-0.6-2.4-1c-5.9-2.3-13.1-4.7-21.6-6.4
				c0.1-1,0.2-1.9,0.3-2.9c0.6-3.6,1.6-7.2,3-10.8c1.4-3.6,2.9-6.7,4.5-9.4c4.9-8.9,11.3-17.4,19.1-25.6c7.8-8.2,16.2-14.8,25.3-20
				c2.3-1.4,4.6-2.7,6.9-3.9c2.3-1.2,4.7-2.4,7.3-3.7c2.6-1.3,5.4-2.5,8.2-3.6c2.8-1.1,5.6-2.1,8.5-3c9.5-2.8,18.9-4.5,28.4-4.9
				c9.5-0.5,18.2,1.1,26.1,4.8c6,2.8,10.3,7.2,12.9,13.2c2.6,6,4.1,12.4,4.4,19.2c0.4,9.3-0.7,18.8-3.3,28.5
				c-2.6,9.8-6.1,19.2-10.4,28.4c-1.3,2.5-2.5,5-3.7,7.3c-1.2,2.4-2.4,4.8-3.7,7.1c-5,9-10.6,17.5-16.9,25.4
				c-6.3,7.9-13.4,15.3-21.4,22.1c-3.3,2.9-6.9,5.2-10.8,7.1c-3.9,1.9-7.9,3.3-11.9,4.4c-4.1,1-8.1,1.7-12.2,1.9
				c-4,0.2-7.9,0.1-11.6-0.3c-2.1-0.4-4.3-0.7-6.5-0.9c-2.2-0.2-4.4-0.7-6.5-1.3c-1-0.1-2.1-0.4-3.4-0.9c-1.3-0.5-2-1.2-2.1-2.2
				c-0.1-1.1,0.3-2.1,1.4-3.1c1-1,2-1.8,2.8-2.6c6.1-5.7,11.8-11.8,17.2-18.5c5.3-6.6,10.2-13.5,14.6-20.4c2-3.1,3.8-6.2,5.7-9.3
				c1.8-3.1,3.7-6.3,5.7-9.5c3.2-5.3,6.4-10.7,9.5-16.1c3.1-5.4,6.4-10.8,9.8-16.1c3.4-5.4,6.9-10.6,10.6-15.8
				c3.7-5.1,7.6-10.1,11.9-14.8c2.4-2.8,4.9-5.4,7.3-7.9c2.5-2.5,5.4-4.5,8.8-5.9c0.8-0.3,1.8-0.8,3.2-1.3c1.3-0.5,2.5-1.2,3.5-1.9
				c1-0.7,1.7-1.6,2-2.5c0.3-0.9,0-1.9-1-2.9c-0.9-0.8-2.3-1.1-4.1-1c-1.8,0.1-3.7,0.4-5.8,1c-2,0.6-4,1.3-6,2.1
				c-2,0.8-3.5,1.4-4.5,1.9c-7.7,3.3-15.1,7.7-22.1,13.4c-5.2,4.3-10.1,8.8-14.5,13.5c-4.4,4.7-8.8,9.6-12.9,14.8
				c-4,4.8-7.6,9.7-10.9,14.8c-3.2,5-6.6,10.1-10,15.2c-3.9,5.8-7.8,11.5-11.7,17.2c-3.9,5.7-7.6,11.5-11.1,17.3
				c-2.7,4.4-5.5,8.8-8.3,13.3c-2.8,4.4-5.9,8.6-9.3,12.6c-2.7,3.2-5.2,5.4-7.6,6.7c-2.3,1.3-5.3,1.5-8.8,0.6
				c-1.8-0.4-3.7-0.6-5.6-0.7c-1.9,0-3.8-0.1-5.8-0.1c-3.4-0.2-6.7-0.3-10.1-0.2c-3.4,0.1-6.9,0.3-10.4,0.5c-3,0.4-6.5,1-10.5,1.9
				c-3.9,0.9-7.7,2.2-11.3,4c-3.6,1.8-6.8,4.1-9.4,6.9c-2.6,2.8-4,6.2-4.2,10.2c-0.1,1.8,0.3,3.4,1.1,4.9c0.8,1.5,1.8,2.7,3.1,3.6
				c2.9,2.2,6.2,3.5,9.8,4.1c3.6,0.6,7.4,0.8,11.3,0.6l0.8-0.1c4.4-0.3,8.9-0.7,13.5-1.4c4.6-0.7,9.2-1.7,13.7-3.3
				c3.5-1.3,7-2.9,10.3-4.9c3.3-2,6.8-3.3,10.4-4c3.7-0.7,7.3-0.6,10.7,0.4c3.4,0.9,6.9,1.5,10.4,1.9c6,0.6,12.1,0.8,18.3,0.6
				c6.2-0.2,12.6-0.9,19-2.1c14.9-3,29.4-8.4,43.6-16.4c14.2-8,26.8-18,37.9-30.1c1.1-1.4,2.3-2.7,3.5-3.9c1.2-1.3,2.3-2.6,3.3-4.1
				c3.6-4.8,7-9.5,10.1-14.3c3.1-4.8,5.8-9.7,8.2-14.8c4.6-9.5,7.9-19.1,9.7-28.7c1.8-9.7,2.5-19.2,1.9-28.6
				c-0.3-5.6-1.2-10.8-2.6-15.7c-1.4-4.9-3.7-9.5-6.8-13.6c-1.5-2.1-3.3-4-5.1-5.9c-1.9-1.9-3.9-3.6-6.2-5.1
				c-4.1-2.6-8.5-4.6-13.1-5.8c-4.6-1.2-9.5-2-14.7-2.4c-6.2-0.7-12.4-1.1-18.6-1.2c-6.2-0.2-12.6,0.5-19.1,1.8
				c-8.7,2-17.5,4.7-26.4,8.1c-8.8,3.4-17.4,7.4-25.6,11.9c-6.9,3.8-13.3,8.1-19.2,12.9c-5.9,4.8-11.5,10.2-16.9,16
				c-6,6.5-11.6,13.5-16.8,21c-5.1,7.2-8.8,14.9-11,22.8c-2-0.1-4-0.1-6.2,0c-1.5,0-3.1,0.1-4.7,0.1c-1.6,0.1-3.2,0.2-4.8,0.3
				c-12.9,1.1-26.9,4-41,9.6c-14.1,5.5-28.3,13.7-41.1,24.8c-12.7,11-24.1,24.7-32.2,40.5c-4.1,7.9-7.3,16.2-9.6,24.8
				c-2.3,8.5-3.6,17.5-4,26.1c-0.7,17.5,2.8,34.9,9.7,50.2c6.9,15.3,17.1,28.4,29,38.7c11.9,10.4,25.5,17.7,39.1,22.5
				c13.7,4.9,27.4,7,40.4,7.5c1.7,0.1,3.1,0,4.7,0.1c0.8,0,1.5,0,2.3,0l0.6,0l0.7,0l0,0c0,1.7,0,3.3,0.2,5
				c0.7,6.4,2.6,11.7,5.6,15.9c3,4.2,7.6,7.3,13.6,9.4c2.2,0.7,4.6,1.3,7.1,1.6c2.5,0.3,5,0.6,7.6,0.6c2.6,0.1,5.3,0,8-0.3
				c5.4-0.5,11.1-1.6,17.2-3.4c6.1-1.8,12.1-4.2,18.1-7c6-2.8,11.8-6.1,17.3-9.8c5.5-3.7,10.5-7.8,15-12.3
				c4.7-4.8,9.2-10.1,13.6-15.9c4.4-5.9,7.7-11.7,9.9-17.6c3-7.5,4.5-14.9,4.7-22.1c0.2-7.2-0.2-14.2-1-21c-0.3-2.8-0.7-5.4-1.3-7.9
				c-0.6-2.5-1.1-5.1-1.5-7.7c-0.8-4.6-1.5-9.2-2-13.9c-0.5-4.7-0.1-9.7,1.2-15c0.8-3.1,2.1-6.5,3.9-10c1.8-3.6,3.8-6.8,6.1-9.7
				c1.9-2.4,4.1-4.7,6.7-6.8c2.6-2.1,5.3-3.8,8.2-5.2c2.9-1.3,5.7-2.2,8.5-2.5c2.8-0.3,5.4,0,7.9,1c2.1,0.9,3.7,2.2,4.7,4.1
				c1.1,1.8,1.7,3.9,2,6.3c0.3,2.4,0.2,4.8-0.1,7.3c-0.3,2.5-0.9,5-1.6,7.2c-0.8,2.7-1.9,5.4-3.4,8.3c-1.5,2.8-3.2,5.5-5.3,8.1
				c-2,2.5-4.4,4.7-7,6.5c-2.6,1.8-5.4,2.9-8.6,3.4c-1.2,0.1-2.2,0.3-3.1,0.6c-0.9,0.3-1.4,1.2-1.6,2.6c-0.3,1.3,0,2.1,0.7,2.6
				c0.7,0.5,1.6,0.7,2.7,0.8c1.1,0.1,2.2,0,3.5-0.3c1.3-0.3,2.4-0.6,3.3-0.9c3.1-0.8,6.1-2.1,9.1-3.7
				C329.9,262.8,332.7,260.8,335.3,258.4z M177.7,211.9c-1.7,1-3.7,1.9-6,2.7c-2.3,0.8-4.5,1.5-6.6,2.1c-2.1,0.6-3.4,0.9-3.8,0.9
				c-1.5,0.3-2.9,0.5-4.2,0.5c-2,0.1-4.2,0.2-6.4,0.2c-2.3,0-4.1-0.6-5.7-1.8c-1.4-1.2-1.8-2.8-1.4-4.7c0.4-1.9,1.6-3.5,3.5-4.7
				c2.3-1.5,4.9-2.3,7.8-2.4c2.9-0.1,5.5,0.1,7.7,0.4l3.3,0.7c1.8,0.4,3.7,0.8,5.5,1.2c1.8,0.4,3.7,0.8,5.7,1.2
				c0.2,0.1,0.7,0.2,1.5,0.2c0.7,0,1.2,0.2,1.3,0.6C180.2,209.9,179.4,210.9,177.7,211.9z M215.2,138.1c0.8,0.3,1.6,0.6,2.4,0.8
				c0.6,0.2,1.1,0.4,1.6,0.7c-0.4,0.1-0.8,0.2-1.2,0.3c-2.8,0.7-5.6,1-8.4,0.9c-2.8-0.1-5.2-0.9-7.5-2.4c-1.9-1.2-3.3-2.9-4.1-4.9
				C204.6,134.8,210.4,136.4,215.2,138.1z M175.9,355c0.7-6.6,2.9-13.4,6.4-20.5c3.5-7.1,7.6-13.7,12.4-19.7
				c2.7-3.3,5.9-6.5,9.4-9.4c3.6-2.9,7.3-5.3,11.2-7.1c3.9-1.8,7.8-2.9,11.7-3.2c3.9-0.3,7.4,0.5,10.5,2.4c2.4,1.5,3.8,3.6,4.5,6.4
				c0.6,2.8,0.6,5.9,0,9.2c-0.6,3.3-1.7,6.6-3.2,9.9c-1.7,3.5-6.7,12-18.4,18.9c-4.4,2.2-9.9,4.9-13.5,6.3c-6.7,2.6-15,5.3-24.7,7
				c-2.1,0.4-4.2,0.7-6.4,0.9C175.8,355.7,175.8,355.4,175.9,355z"/>
		</g>
		<g id="XMLID_100_">
			<path class="st0" d="M418.6,241.2c1-4.5,0.5-8.6-1.7-12.5c-1.6-2.7-3.7-4.4-6.5-5.2c-3.3-0.8-6.7-0.9-10.3-0.3
				c-3.2,0.5-6.4,1.3-9.5,2.5c-3.2,1.2-6.3,2.7-9.4,4.4c-3.1,1.7-6.1,3.6-9.1,5.7c-3,2.1-5.7,4.2-8.4,6.3c-4.3,3.5-8.7,7.2-13,11.3
				c-7.9,7.6-14.6,15.8-19.9,24.7c-2.7,4.5-4.7,9-6.1,13.3c-0.9,2.5-1.7,5-2.4,7.6c-0.7,2.6-1.1,5.1-1.3,7.5
				c-0.3,4.2,1,7.7,3.7,10.2c2.7,2.6,6,4.1,9.8,4.7c1.5,0.3,3,0.4,4.6,0.3c1.6-0.1,3.1-0.3,4.7-0.6c5.8-1.4,11.7-3.7,17.6-7
				c5.9-3.3,11.4-6.8,16.5-10.6c8.3-6.3,15.6-13.7,21.9-22.3c6.3-8.6,11.2-17.5,14.7-26.6C416.1,250.1,417.5,245.6,418.6,241.2z
				 M399.5,247.5c-1.2,2.5-2.4,5.1-3.8,7.9c-2.1,3.8-4.3,7.7-6.6,11.5c-2.3,3.9-4.7,7.6-7.3,11.2c-1.1,1.5-2.1,3-3.1,4.4
				c-1,1.5-2.1,3-3.3,4.5c-3.3,4.3-6.9,8.6-10.9,12.7c-4,4.2-8.4,7.5-13.4,10c-1.6,0.8-3.1,1.5-4.4,2c-1.3,0.4-2.8,0.6-4.4,0.5
				c-1.6-0.1-2.8-0.6-3.6-1.7c-1.2-1.7-1.3-4-0.4-6.8c0.9-2.8,1.8-5.2,2.8-7.2c2-3.9,4.1-7.9,6.3-11.8c2.2-3.9,4.6-7.7,7.2-11.5
				c2.9-4.3,6-8.5,9.3-12.8c3.3-4.2,6.8-8.3,10.5-12.1c1.7-1.9,3.6-3.8,5.6-5.5c2-1.8,4-3.6,5.9-5.6c1.7-1.6,3.7-3.1,6-4.8
				c2.3-1.6,4.6-2.2,6.8-1.9c1.7,0.4,2.7,1.6,3.1,3.5c0.3,1.9,0.3,3.7,0,5.3C401.6,242.3,400.7,245,399.5,247.5z"/>
		</g>
		<g id="XMLID_96_">
			<path class="st0" d="M728.7,168.7l0-0.4l0.1-0.9c1.1-9.4,1-18.9-0.1-28.2c-2.3-18.6-9.5-36-19.9-50.8
				c-10.6-14.8-24.5-26.9-40.4-35.6c-8-4.3-16.4-7.8-25.2-10.4c-2.2-0.6-4.4-1.3-6.6-1.7c-2.2-0.5-4.5-1-6.7-1.4l-3.4-0.6l-3.5-0.5
				l-3.5-0.4l-3.3-0.3c-9.2-0.8-18.5-0.6-27.8,0.5c-8.7,1-17.4,2.9-25.8,5.5c1.8-2.7,3.5-5.3,5.3-7.9c2-2.8,3.6-5.8,5-8.8
				c0.6-1.3,1.3-2.8,2.1-4.4c0.7-1.6,0.9-3.1,0.3-4.2c-0.8-1.6-2.2-2.3-4.1-2c-1.9,0.3-3.6,0.6-5.2,1.1c-1.3,0.4-2.7,0.6-4.2,0.7
				c-1.5,0.1-3,0.2-4.6,0.3c-1.5,0.2-3,0.5-4.4,0.9c-1.4,0.4-2.7,1.1-3.8,1.9c-1,0.9-1.8,1.9-2.5,3.2c-0.7,1.3-1.3,2.6-1.9,4
				c-0.6,1.4-1.1,2.7-1.7,4.1c-0.5,1.4-1,2.6-1.5,3.6c-1.4,2.8-2.9,5.5-4.5,8.2c-1.2,2-2.5,4.1-3.7,6.1l-41.9,9.4l-17.5,3.9
				l-17.5,3.8l-4.4,0.9c-1.4,0.2-2.8,0.5-4.3,0.7c-2.9,0.4-5.7,0.8-8.5,1c-1.6,0.1-3.2,0.2-4.7,0.1c0.5-0.4,0.9-0.7,1.4-1.2
				c1.5-1.4,2.7-3,3.7-4.7c1-1.7,1.7-3.5,2.2-5.3c0.5-1.8,0.6-3.5,0.4-5.1c-0.9-3.9-3.4-5.6-7.6-5.1c-2.8,0.3-5.3,1.4-7.5,3.3
				c-1.9,1.5-3.7,3.3-5.3,5.5c-1.6,2.2-2.7,4.3-3.3,6.4c-0.6,2.3-0.5,4.3,0.2,5.8c0.3,0.7,0.8,1.3,1.3,1.8l-0.3,0.2
				c0.2,0.3,0.3,0.6,0.6,1c0.4,0.6,0.9,1.2,1.4,1.6c0.4,0.3,0.9,0.7,1.3,1l1.3,0.7c1.7,0.8,3.4,1.2,5.1,1.4c3.3,0.5,6.4,0.5,9.5,0.5
				c3.1-0.1,6.2-0.4,9.2-0.8c1.5-0.2,3-0.4,4.6-0.6l4.4-0.8l17.7-3.3l17.6-3.4c10.8-2.1,21.7-4.3,32.5-6.5L504.9,89
				c-7,8.9-13.6,18-20.1,27.3c-6.2,9-12.2,18.2-17.8,27.4c-2,2.6-3.9,5.2-5.9,7.8c-3.7,5-7.8,9.8-12.1,14.3c-1,1-2.1,2.1-3.3,3.3
				c-1.2,1.2-2.5,2.3-3.8,3.2c-1.4,1-2.7,1.7-4.1,2.3c-1.4,0.6-2.8,0.8-4.1,0.6c-1.4-0.2-2-1.1-1.9-2.8c0.1-1.6,0.5-3.5,1.2-5.6
				c0.7-2.1,1.6-4.1,2.5-6c1-1.9,1.7-3.2,2.1-3.9c1.3-2.4,2.6-4.8,4-7.2c1.4-2.4,3-4.8,4.6-7.2c5.2-8.1,11-16.1,17.4-24.2
				c1.6-1.9,3.2-3.8,4.7-5.7c1.6-1.9,3.2-3.8,4.9-5.7c1.1-1.4,2.6-2.9,4.3-4.7c1.7-1.7,2.7-3.5,3-5.3c0.3-1.8-0.1-2.8-1.4-3.2
				c-1.2-0.4-2.5-0.3-4,0.3c-5,1.9-9.8,3.4-14.6,4.5c-4.8,1-9.2,0.4-13.4-2c-1.9-1.1-3.5-1.2-4.8-0.2c-1.3,1-2.6,2.5-3.8,4.3
				c-2.5,3.8-4.9,7.6-7,11.5c-2.2,3.9-4.6,7.8-7.2,11.6c-2.1,3-4.2,5.9-6.1,8.8c-0.4,0.2-11.5,16-13.4,18.3
				c-2.2,2.8-4.5,5.7-6.7,8.7c-1.9,2.7-3.9,5.2-6,7.8c-0.8,0.9-1.6,1.8-2.4,2.7c-1.1,1.3-2.4,2.7-3.8,4.3c-0.7,0.8-1.4,1.5-2.1,2.3
				c-1.4,1.3-2.8,2.6-4.3,3.8c-1,0.8-2,1.5-3,2.1c-1.7,1-3.3,1.5-5,1.6c-1.5,0.2-2.5-0.2-2.8-1.2c-0.3-1-0.3-2.2,0.2-3.8
				c0.5-1.6,1.3-3.4,2.3-5.3c1.1-1.9,2.2-3.8,3.3-5.6c1.1-1.8,2.2-3.4,3.1-4.8c1-1.4,1.6-2.4,1.9-2.9c4-6.3,8.1-12.5,12.3-18.6
				c4.1-6.1,8.4-12.2,12.6-18.2c0.9-1.3,2-2.9,3.3-4.6c1.3-1.7,2.5-3.4,3.6-5.1c1.1-1.7,2.1-3.4,2.8-5.2c0.7-1.8,1.1-3.5,1.2-5.1
				c0-1.2-0.3-2.1-1.1-2.6c-0.7-0.5-1.6-0.8-2.6-0.8c-1-0.1-2.1,0-3.2,0.2c-1.2,0.2-2.2,0.4-3.1,0.6c-1.8,0.3-4.1,0.8-7,1.4
				c-2.9,0.6-5.1,1.6-6.6,3.2c-0.7,0.7-1.2,1.5-1.5,2.5c-0.3,1-0.5,1.9-0.8,2.8c-0.5,2.7-1.6,5.2-3.1,7.5c-1.6,2.4-3.2,4.7-4.8,7
				c-3.9,5.9-7.9,11.7-12,17.3c-4.1,5.6-8,11.5-11.6,17.5c-2.1,3.5-4.2,7.1-6.1,10.8c-2,3.7-3.4,7.5-4.3,11.3
				c-0.3,2-0.4,4.2-0.3,6.5c0.1,2.3,0.7,4.2,1.6,5.9c1.4,2.1,3.2,3.4,5.2,3.9c2.4,0.6,5.2,0.3,8.4-1c0.1,0,0.2-0.1,0.4-0.2
				c0.6,0.5,1.5,0.7,2.6,0.4c1.7-0.4,3.6-1.5,5.8-3.1c2.2-1.6,4.5-3.6,7-5.8c2.5-2.3,4.8-4.5,7-6.8c2.2-2.2,4.1-4.3,5.6-6.1
				c1.6-1.8,2.6-3,3.2-3.5c2-2.2,3.9-4.4,5.8-6.6c1.9-2.2,3.7-4.5,5.4-6.8c3.2-4.1,6.2-8.2,9.1-12.3c2.9-4.1,5.7-8.3,8.6-12.6
				c1.3-2,2.7-4,4-6.1c1.3-2,2.7-4,4-5.9c1-1.5,2.1-2.8,3.1-3.9c1.1-1.1,2.5-1.7,4.2-1.6c1.2,0.1,2.4,0.4,3.5,0.9
				c1.1,0.5,2.3,0.7,3.5,0.5c0.4,0,0.9-0.2,1.6-0.4c0.7-0.2,1.4-0.3,1.9-0.4c0.6-0.1,1,0,1.3,0.1c0.3,0.2,0.2,0.6-0.2,1.4
				c-0.5,1.1-1.6,2.2-3.3,3.5c-1.7,1.3-3,2.4-3.8,3.2c-4.9,4.9-9.8,10.1-14.8,15.5c-5,5.4-9.1,11.1-12.5,17.1
				c-1.2,2-2.4,4.1-3.5,6.4c-1.1,2.2-2.1,4.5-3,6.7c-0.9,2.2-1.5,4.4-1.8,6.6c-0.4,2.2-0.3,4.4,0.1,6.6c0.3,1.8,1,3.3,2.1,4.3
				c1.1,1.1,2.4,1.8,3.8,2.3c1.5,0.5,3.1,0.6,4.9,0.6c1.8-0.1,3.6-0.4,5.5-0.8c5.3-1.6,10.1-4.2,14.5-7.9c4.3-3.7,8.4-7.6,12.1-11.7
				c1.7-1.9,3.4-4,5.2-6.1c0.7-0.9,1.4-1.8,2.1-2.6c-0.3,0.9-0.5,1.8-0.7,2.8c-0.8,3.7-1,7.2-0.5,10.4c0.5,3.2,2.1,5.8,4.9,7.7
				c1.6,1.2,3.3,1.9,5,2.2c4.3,1,8.6,0.6,12.9-1.3c4.3-1.9,8.6-4.4,12.7-7.7c4.1-3.3,8-6.9,11.6-10.8c1.2-1.3,2.3-2.5,3.4-3.7
				c-0.2,0.7-0.4,1.5-0.5,2.2c-0.3,1.7-0.5,3.4-0.5,5.1c-0.1,1.8,0.1,3.4,0.5,5c0.4,1.6,1.1,2.9,2.1,4c1,1.1,2.4,1.8,4.1,2.1
				c3.2,0.6,6.7,0.4,10.4-0.5c3.7-1,7.2-2.4,10.2-4.3c2.7-1.7,7.6-5,13.3-12c0.1-0.1-7.6,12.5-10.7,17.2
				c-3.1,4.7-31.1,46.8-35.7,53.3c-2.4,3.5-4.9,6.9-7.3,10.4c-0.9,0.7-1.5,1.5-2,2.5c-0.4,0.8-0.9,1.6-1.3,2.4
				c-0.9,1.3-1.7,2.6-2.6,3.8c-1.7,2.2-3.4,4.3-5.3,6.3c-2.5,2.7-5.1,5.4-7.7,8.2c-1.3,1.4-2.6,2.7-4,4.1c-1.4,1.3-2.7,2.7-4,4.1
				c-1.1,1.1-2.3,2.2-3.5,3.4c-1.2,1.1-2.4,2.2-3.5,3.4c-1.5,1.3-3,2.6-4.5,3.8c-1.5,1.3-3,2.5-4.5,3.7c-1.7,1.3-4,2.8-7.1,4.4
				c-3.1,1.6-6.1,2.9-9.1,3.7c-3,0.8-5.6,0.9-7.9,0.3c-2.3-0.6-3.4-2.6-3.3-6c-0.1-3.3,0.7-6.7,2.3-9.9c1.6-3.3,3.4-6.5,5.3-9.5
				c4.2-6.5,8.5-13,13.1-19.4c4.5-6.4,9.5-12.5,14.8-18.3c1-1.1,2.4-2.7,4.3-4.8c1.8-2.1,3.8-4,5.9-5.8c2.1-1.7,4.2-2.9,6.2-3.7
				c2-0.7,3.7-0.2,5,1.5c1,1.5,1.4,3.2,1.4,5.1c0,1.9-0.2,3.7-0.6,5.5c-0.1,0.6-0.2,1.3-0.4,2.1c-0.2,0.8-0.3,1.5-0.3,2.3
				c0,0.7,0.2,1.3,0.4,1.8c0.3,0.5,0.8,0.7,1.7,0.6c1.8-0.1,3.2-0.9,4.4-2.5c1.1-1.6,2.2-3.1,3.3-4.5c1.4-1.9,2.8-3.8,4.2-5.6
				c1.5-1.8,2.6-3.9,3.4-6c0.4-1.2,0.5-2.2,0.4-3c-0.2-0.8-0.4-1.8-0.8-2.7c-0.4-0.8-1.1-1.5-1.9-1.9c-0.9-0.5-1.9-0.8-3-1
				c-1.1-0.2-2.3-0.3-3.5-0.3c-1.2,0-2.2,0-3.1,0c-5.3,0.5-10.8,1.7-16.3,3.8c-3.3,1.4-6.4,2.9-9.2,4.6c-5.7,3.4-11,7.2-16.1,11.6
				c-5,4.4-9.9,9-14.5,13.7c-4.6,4.7-8.7,9.7-12.4,15c-3.7,5.3-6.9,10.8-9.7,16.4c-1.7,3.7-3,7-3.8,9.9c-0.9,2.9-1.4,5.9-1.6,8.9
				c-0.2,3,0.1,5.8,1.1,8.4c1.1,2.7,2.9,4.7,5.6,6c2.7,1.3,5.5,1.9,8.5,1.9l7.6-0.8c2.1-0.5,4-1.1,5.8-1.9c1.8-0.8,3.6-1.7,5.5-2.7
				c1.9-0.8,3.6-1.9,5.3-3.1c1.7-1.2,3.3-2.5,5-3.8c5.6-4.5,10.9-9.2,16.1-14.2c3.1-2.9,6.1-5.9,9.1-8.9c-1.4,2-2.8,4-4.2,6
				c-2,2.7-3.9,5.4-6,8.1c-2,2.7-4,5.5-5.8,8.3c-0.5,0.7-1,1.5-1.6,2.6c-0.6,1.1-1.1,2.1-1.4,3c-0.3,1-0.3,1.8-0.1,2.4
				c0.2,0.7,1,1,2.4,0.9c0.5,0.1,1.4,0.1,2.6,0c1.3-0.1,2.5-0.2,3.7-0.3c1.2-0.1,2.3-0.3,3.3-0.4c1-0.1,1.6-0.2,1.7-0.2l2.5-0.7
				c1.4-0.2,2.6-0.4,3.7-0.8c1-0.4,2.1-1.1,3.1-2.2c2.2-2.3,4.1-4.9,5.7-7.6c1.6-2.7,3.3-5.4,5-7.9c1.8-2.7,3.7-5.4,5.6-8.2
				c1.9-2.8,3.7-5.5,5.4-8.1c2.2-3.5,4.3-7,6.4-10.5c2.1-3.5,4.7-6.8,7.7-9.7c3.4-3,7.2-5.2,11.4-6.7c0.9-0.3,1.9-0.6,2.8-0.9
				c1-0.2,1.7-0.1,2.3,0.5c0.3,0.3,0.6,0.9,0.7,1.6c0.1,0.7,0.2,1.4,0.4,2c0.6,2.2,0.5,4.4-0.4,6.7c-0.9,2.3-2.1,4.6-3.7,6.9
				c-1.5,2.3-3.2,4.5-5.1,6.7c-1.9,2.2-3.6,4.2-5,6c-1.6,2-3.1,4.3-4.5,6.6c-1.4,2.4-2.3,4.8-2.8,7.1c-0.5,2.4-0.5,4.5,0,6.5
				c0.5,2,2,3.6,4.3,4.8c2.2,1.2,6,1.8,8.7,1.5c2.7-0.3,5.5-1.1,8.2-2.3c2.7-1.2,5.4-2.8,8.1-4.6c2.7-1.8,5.1-3.7,7.2-5.5
				c8.1-6.9,14.4-14.7,21.5-23.3c2.2-2.7,4.3-5.4,6.3-8.1c0.3-0.4,0.6-0.8,0.8-1.2c1.7-2.1,3.4-4.1,5.1-6.3
				c3.2-3.9,6.2-7.6,9.2-11.2c1.6-1.9,3.1-3.9,4.6-5.8c1.4-2,2.9-3.9,4.6-5.8c0.9-1.1,1.8-2.1,2.6-3c0.9-0.9,1.7-1.9,2.6-3
				c0.3-0.7,0.9-1.5,1.6-2.4c0.7-0.9,1.5-1.6,2.1-2.1c-1.3,5.7-3.1,11.5-5.4,17.3c-2.3,5.8-4.4,11.4-6.5,17c-1.5,4.1-3.2,8.3-5,12.5
				c-1.4,3.3-3.1,6.4-5,9.5c-7.1-0.4-13.9-0.7-20.5,0.8c-1.9,0.4-3.3,1-4.5,1.7c-0.6,0.3-1.2,0.7-1.9,1.2c-2.1,1.6-3.8,3.6-5.1,6
				c-1.3,2.4-1.8,4.8-1.4,6.9c0.2,1.3,0.7,2.4,1.4,3.3c0.7,0.9,1.6,1.5,2.6,2c1,0.5,2.1,0.9,3.4,1c1.2,0.2,2.5,0.3,3.7,0.4l0.2,0
				c4.7,0.2,9.4-0.6,14.1-2.6c4.6-1.9,9-4.5,13-7.7c2.1-1.7,4.1-3.4,6-5.3c2.1,0,4.2,0,6.3,0l6.9-0.6c2.3-0.2,4.6-0.3,6.9-0.8
				l6.9-1.2l3.4-0.6l3.4-0.9c4.5-1.2,9.1-2.3,13.5-4.2l6.6-2.5l6.5-3.1c2.1-1.1,4.4-1.9,6.4-3.2l6.2-3.7l3.1-1.9l2.9-2.1l5.9-4.2
				c2-1.4,3.7-3.1,5.6-4.6c1.8-1.6,3.7-3.1,5.4-4.8c6.8-6.9,13.4-14.1,18.6-22.3c1.3-2,2.7-4,4-6.1l3.4-6.4c2.4-4.2,4-8.8,5.9-13.2
				c1-2.2,1.6-4.6,2.3-7l2.1-7.1c0.5-2.3,0.8-4.4,1.3-6.7l0.6-3.3l0.3-1.7l0-0.2l0.1-0.4L728.7,168.7z M574.6,285
				c-1.4,1.5-2.9,2.7-4.5,3.6c0,0-2.1,1.1-3.8,1.4c-8.6,1.2-8.5-4-7.2-6c0.7-1,2.2-1.7,3.6-2.2c4.5-1,10-1.2,15.6-1.1
				C577.2,282.2,576,283.6,574.6,285z M715.6,169.7L715,173c-0.4,2.2-0.8,4.5-1.2,6.6l-1.8,5.9c-0.6,2-1,4-1.9,6
				c-1.7,4-3,8.1-5.2,11.8l-3,5.8c-1.1,1.9-2.3,3.7-3.5,5.5c-4.6,7.4-10.4,14-16.4,20.3c-1.5,1.6-3.2,3-4.8,4.5
				c-1.7,1.4-3.2,3-4.9,4.3l-5.2,4l-2.6,2l-2.8,1.8L656,255c-1.8,1.3-3.8,2.1-5.8,3.2l-5.8,3.1l-6.1,2.5c-8.1,3.4-16.5,5.9-25,7.7
				c-2.1,0.6-4.3,0.8-6.4,1.1l-5.5,0.8c2.4-3.2,4.6-6.5,6.3-9.8c2.9-5.4,5.3-10.8,7-16.2c1.8-5.4,3.5-10.9,5.2-16.6
				c1-3.5,2.1-6.9,3-10.4c1-3.5,2.1-6.9,3.4-10.4c0.5-1.4,1.2-2.8,1.9-4.1c0.7-1.3,1.5-2.7,2.3-4.2c0-0.1,0.3-0.6,0.7-1.5
				c0.5-0.9,0.9-1.7,1.4-2.7c0.4-0.9,0.8-1.8,1.2-2.5c0.3-0.8,0.5-1.2,0.3-1.2c-1.4,0.2-2.7,0.5-3.9,0.9c-1.2,0.4-2.5,0.8-3.9,1.1
				c-1.7,0.3-5.4,0.4-7,0.5c-1.6,0.1-3.2,0.5-5,1.2c-1.7,0.7-3.1,1.6-4.2,2.6c-1.1,1-2.2,2.3-3.4,3.8c-2.8,3.4-5.4,6.8-7.9,10.3
				c-2.5,3.4-5.1,6.9-7.7,10.3c-3.1,3.9-6.2,7.9-9.3,11.7c-0.5,0.6-27.7,35.8-29.7,38.1c-2.1,2.5-3.5,4-6.1,6.3
				c-0.7,0.6-1.7,1.4-3.1,2.4c-1.4,1-2.8,1.9-4.3,2.6c-1.5,0.7-2.8,1.2-4.1,1.5c-1.3,0.3-2.3-0.1-2.9-1c-0.4-0.7-0.5-1.5-0.3-2.4
				c0.2-0.9,0.6-1.8,1.2-2.8c0.6-1,1.2-2,1.9-2.9c0.7-0.9,1.2-1.7,1.7-2.2c1.8-2.3,3.6-4.7,5.6-7c1.9-2.4,3.7-4.8,5.2-7.4
				c1.6-2.5,2.6-5.1,3.3-7.6c0.6-2.5,0.5-5.1-0.3-7.8c-1.3-4-3.6-6.6-6.9-8.1c-3.3-1.4-7.1-1.7-11.5-0.7c0.4-0.4,0.9-0.8,1.4-1.2
				c0.5-0.4,0.9-0.7,1.3-1c2.2-1.7,4.3-3.5,6.4-5.3c2-1.8,4.2-3.5,6.4-5.1c1.8-1.3,3.6-2.4,5.5-3.4c1.9-1,3.8-1.2,5.8-0.8
				c1.5,0.5,2.8,1.2,4,2.2c1.2,1,2.7,1.4,4.5,1.4c2,0,3.9-0.8,5.7-2.4c1.8-1.6,3.3-3.3,4.5-5.1c1.1-1.6,2-3.3,2.8-5.1
				c0.8-1.8,1.2-3.5,1.2-5.1c0-1.5-0.5-2.8-1.5-3.7c-1-0.9-2.7-1.4-4.9-1.4c-2.4,0-4.8,0.5-7.2,1.5c-2.4,1-4.7,2.3-7,3.8
				c-2.3,1.6-4.5,3.2-6.6,5c-2.2,1.8-4.2,3.5-6,5.2c-1.8,1.6-3.6,3.1-5.4,4.5c-1.8,1.4-3.6,2.9-5.4,4.3c-1.1,0.9-2.2,1.7-3.1,2.5
				c-1,0.8-2,1.6-3.1,2.5c-0.7,0.6-1.3,1.1-1.8,1.5c-0.5,0.4-1.1,0.9-1.8,1.5c-1.1,1-2.3,1.9-3.4,2.8c-1.2,0.9-2.3,1.9-3.5,3
				c1.6-1.5,2.9-3.4,3.9-5.5c1-2.1,2.1-4,3.3-5.8c1.4-2,2.7-4,4.1-5.9c1.4-1.9,2.7-3.8,4.1-5.9c3.8-5.8,56.1-85,58.6-88.9
				c2.5-3.9,5.1-7.8,7.6-11.7l8.7-13.3c1.5-2.2,2.9-4.3,4.3-6.3c1.4-2,2.8-4.1,4.3-6.3c1.2-1.5,2.1-3.2,2.9-5
				c0.8-1.8,1.2-3.6,1.4-5.4c0.2-1.6-0.1-2.7-0.8-3.1c-0.7-0.4-1.8-0.5-3.4-0.2c-2.4,0.5-4.8,0.9-7.1,1.2c-2.3,0.3-4.6,0.6-6.9,1
				c-1.7,0.3-3,0.8-4.1,1.5c-1.1,0.7-2,1.9-2.6,3.6c-1.6,4.9-3.9,9.7-6.9,14.2c-2.9,4.6-5.9,9.1-8.8,13.5c-3.1,4.7-6.3,9.4-9.7,14
				c-3.3,4.6-6.6,9.2-10,13.7c-2,2.7-4.1,5.3-6.1,7.6c-2.8,3.2-5.8,6.5-8.8,9.9c-3.1,3.4-6.5,6.2-10.2,8.4c-1.6,0.9-3.1,1.5-4.6,1.7
				c-1.5,0.2-2.6,0.1-3.5-0.3c-0.9-0.5-1.4-1.3-1.5-2.5c-0.1-1.2,0.3-2.8,1.3-4.8c1.1-2.6,2.6-5.1,4.3-7.4c1.7-2.3,3.3-4.6,5-6.9
				c1.8-2.7,3.6-5.4,5.4-8.2c1.8-2.8,3.6-5.5,5.6-8.2c3.6-5.5,7.2-10.9,10.9-16.3c3.7-5.3,7.4-10.7,11.1-16.1
				c1.2-1.9,2.4-3.8,3.7-5.6c1.3-1.9,1.7-3.9,1.3-5.9c-0.3-1.7-1.2-2.6-2.5-2.7c-1.4-0.1-2.9,0.1-4.6,0.5c-1.8,0.3-3.5,0.5-5.2,0.4
				c-1.7-0.1-3.4,0.1-5.2,0.6c-1.6,0.4-2.8,1.1-3.8,2.1c-1,1-1.8,2.1-2.4,3.4c-0.6,1.3-1.2,2.6-1.7,3.9c-0.5,1.4-1.1,2.6-1.7,3.8
				c-2.6,4.7-5.4,9.2-8.4,13.6c-3,4.4-6,8.7-9.1,13.1c-2.6,3.7-5.3,7.4-7.9,11.1c-1,1.2-2,2.5-3,3.7c-3,3.8-6,7.5-9.2,11.2
				c-2.6,3.2-5.3,6.3-8,9.4s-5.9,5.7-9.4,7.9c-2,1.2-3.9,2-5.5,2.3c-1.7,0.3-3,0.2-4.1-0.5c-1.1-0.6-1.8-1.7-2.1-3.1
				c-0.4-1.5-0.1-3.3,0.8-5.5c0.9-2.8,2.2-5.6,3.9-8.3c1.7-2.7,3.4-5.3,5.3-7.9c7.5-10.1,14.6-20.2,21.4-30.3
				c6.8-10.1,13.7-20.3,20.7-30.6l18.5-26.2l9.6-2l0.2,0l0.3-0.1c8.3-2.5,16.8-4.2,25.4-5.1c8.5-0.8,17.1-0.9,25.5,0l3.3,0.3
				l3.1,0.4l3.1,0.5l3.1,0.6c2.1,0.4,4.1,0.9,6.1,1.4c2,0.5,4,1.1,6,1.7c8,2.4,15.7,5.6,22.9,9.6c14.4,8,27,19.1,36.4,32.5
				c9.3,13.4,15.7,29.1,17.6,45.6c1,8.3,1,16.7,0,25.1l-0.1,1.2L715.6,169.7z"/>
		</g>
	</g>
</g>
</svg>
