<?xml version="1.0" encoding="utf-8"?>
<!-- Generator: Adobe Illustrator 17.0.0, SVG Export Plug-In . SVG Version: 6.00 Build 0)  -->
<!DOCTYPE svg PUBLIC "-//W3C//DTD SVG 1.1//EN" "http://www.w3.org/Graphics/SVG/1.1/DTD/svg11.dtd">
<svg version="1.1" id="Layer_1" xmlns="http://www.w3.org/2000/svg" xmlns:xlink="http://www.w3.org/1999/xlink" x="0px" y="0px"
	 width="612px" height="505.94px" viewBox="0 142 612 505.94" enable-background="new 0 142 612 505.94" xml:space="preserve">
<path fill="#FFFFFF" d="M515.1,288.9c0,5.1,0,9.18,0,14.28c0,142.8-108.12,307.02-307.02,307.02c-61.2,0-117.3-17.34-165.24-47.94
	c8.16,1.02,17.34,1.02,25.5,1.02c51,0,96.9-17.34,133.62-45.9c-46.92-1.02-86.7-31.62-100.98-74.46c6.12,1.02,13.26,2.04,20.4,2.04
	c10.2,0,19.38-1.02,28.56-4.08c-48.96-10.2-86.7-53.04-86.7-106.08v-1.02c14.28,8.16,31.62,13.26,48.96,13.26
	c-28.56-19.38-47.94-52.02-47.94-89.76c0-19.38,5.1-37.74,14.28-54.06c53.04,65.28,132.6,108.12,222.36,112.2
	c-2.04-8.16-3.06-16.32-3.06-24.48c0-59.16,47.94-108.12,108.12-108.12c30.6,0,59.16,13.26,78.54,33.66
	c24.48-5.1,47.94-14.28,68.34-26.52c-8.16,25.5-25.5,45.9-46.92,59.16c21.42-3.06,42.84-8.16,62.22-17.34
	C553.86,254.22,535.5,273.6,515.1,288.9L515.1,288.9z M591.6,201.18c4.08-15.3-1.02-31.62-13.26-41.82
	c-7.14-5.1-15.3-8.16-24.48-8.16c-7.14,0-13.26,2.04-19.38,5.1c-12.24,7.14-24.48,13.26-37.74,17.34
	c-25.5-19.38-57.12-30.6-88.74-30.6c-74.46,0-135.66,55.08-144.84,126.48C204,257.28,149.94,224.64,111.18,176.7
	c-9.18-8.16-19.38-13.26-31.62-13.26c-1.02,0-2.04,0-3.06,0c-12.24,1.02-23.46,8.16-30.6,19.38c-13.26,22.44-20.4,47.94-20.4,73.44
	c0,17.34,3.06,34.68,9.18,49.98c-6.12,7.14-10.2,16.32-10.2,25.5c0,38.76,14.28,73.44,38.76,99.96c-1.02,7.14-1.02,13.26,1.02,20.4
	c8.16,26.52,23.46,48.96,43.86,66.3c-13.26,3.06-26.52,4.08-39.78,4.08c-7.14,0-14.28,0-21.42-1.02c-1.02,0-3.06,0-4.08,0
	c-16.32,0-30.6,10.2-36.72,25.5c-6.12,17.34,0,35.7,15.3,45.9c56.1,35.7,120.36,55.08,186.66,55.08
	c214.2,0,342.72-172.38,345.78-340.68c17.34-15.3,32.64-31.62,45.9-51c5.1-6.12,8.16-14.28,8.16-23.46
	C607.92,219.54,600.78,208.32,591.6,201.18L591.6,201.18z"/>
</svg>
